<svg xmlns="http://www.w3.org/2000/svg" width="20" height="20" viewBox="0 0 20 20">
    <g fill="none" fill-rule="evenodd">
        <g transform="translate(-117.000000, -1851.000000) translate(117.000000, 1851.000000)">
            <rect width="20" height="20" fill="#1C78BB" rx="10"/>
            <path fill="#FFF" d="M7.289 14.033c.414-.391.665-1.058.783-1.998h.384L8.323 15H2v-.392h.739v-8.23H2V6h6.16l.104 2.286h-.37c-.206-.732-.502-1.241-.841-1.502-.355-.275-.916-.405-1.7-.405h-.531v3.723c.517-.013.886-.131 1.093-.366.222-.235.34-.64.37-1.215h.354v3.723h-.355c-.044-.653-.162-1.098-.369-1.359-.222-.248-.576-.378-1.093-.378v4.101h.546c.872 0 1.522-.183 1.921-.575zm6.185-2.455L15.157 6H18v.392h-.625v8.23H18V15h-3.454v-.379h.79V6.98L12.908 15h-.491l-2.189-8.242v7.863h.7V15H9.04v-.379h.714v-8.23h-.715V6h3.037l1.4 5.578z"/>
        </g>
    </g>
</svg>
