<svg xmlns="http://www.w3.org/2000/svg" width="20" height="20" viewBox="0 0 20 20">
    <g fill="none" fill-rule="evenodd">
        <g fill="#8B572A" fill-rule="nonzero">
            <path d="M17.108 2.972C15.158 1.01 12.48-.067 9.71.003 4.19.167-.131 4.726.033 10.22c.024 1.145.259 2.268.682 3.32.352.888.822 1.706 1.409 2.454l-.822 1.94c-.33.75.023 1.614.775 1.941.258.117.563.14.845.094l3.805-.655c1.362.468 2.795.632 4.228.491 4.908-.49 8.736-4.489 8.995-9.398.14-2.782-.893-5.47-2.842-7.435zM9.264 13.89H6.657c-.4 0-.752-.327-.752-.748 0-.397.329-.748.752-.748h2.607c.399 0 .751.327.751.748s-.329.748-.751.748zm4.063-3.039h-6.67c-.4 0-.752-.327-.752-.748 0-.42.329-.748.752-.748h6.67c.399 0 .751.327.751.748 0 .42-.352.748-.751.748zm0-3.063h-6.67c-.4 0-.752-.327-.752-.748 0-.397.329-.748.752-.748h6.67c.399 0 .751.327.751.748 0 .398-.352.748-.751.748z" transform="translate(-17.000000, -1851.000000) translate(17.000000, 1851.000000)"/>
        </g>
    </g>
</svg>
