<svg xmlns="http://www.w3.org/2000/svg" viewBox="0 0 30 30" fill="#1973b4"><path d="M13.384 27.117l-.363.603c-.274.457-.867.606-1.325.332a.97.97 0 0 1-.331-1.326l.362-.603c.275-.458.868-.606 1.325-.331s.606.867.332 1.325zm3.871-1.338c-.464-.263-1.053-.098-1.315.366L14.612 28.5c-.263.465-.098 1.054.366 1.316s1.054.098 1.316-.367l1.328-2.354c.262-.464.098-1.053-.367-1.315zm3.644.013c-.457-.275-1.05-.127-1.325.33l-.362.604a.97.97 0 0 0 .331 1.326c.458.274 1.051.125 1.325-.332l.363-.603c.274-.458.126-1.051-.332-1.325zm3.16-9.695c1.525 4.154-1.572 8.569-5.988 8.569-7.28 0-6.813.004-6.92-.01l-3.27 4.853c-.558.828-1.864.36-1.762-.638l.328-3.206H4.508c-.567 0-1.012-.486-.962-1.05l.017-.19a5.12 5.12 0 0 1 1.208-9.976c-.31-3.796 3.236-7.342 7.45-6.613 1.278-2.253 3.674-3.67 6.306-3.67 6.19 0 9.486 7.279 5.531 11.932zM14.095 8.47c1.4.736 2.503 1.978 3.046 3.51 2.224-.325 4.443.534 5.871 2.285 2.241-3.507-.287-8.17-4.486-8.17a5.31 5.31 0 0 0-4.43 2.375zm8.42 9.818c0-2.986-2.91-5.14-5.776-4.242-.553.173-1.133-.176-1.238-.746-.39-2.103-2.227-3.63-4.37-3.63-2.451 0-4.445 1.995-4.445 4.446 0 .244.089.839.152 1.184a.97.97 0 0 1-1.13 1.123 3.19 3.19 0 0 0-3.777 3.127 3.19 3.19 0 0 0 1.808 2.873l.291-3.293c.047-.531.516-.924 1.048-.877s.923.516.876 1.047l-.392 4.433h1.954c.572 0 1.019.495.96 1.064l-.044.435 1.441-2.14h-1.24c-.627 0-1.088-.588-.938-1.196l.679-2.766c.127-.518.65-.834 1.168-.707s.835.65.708 1.168l-.386 1.57h1.826c.708 0 1.286.784.755 1.572h5.626a4.45 4.45 0 0 0 4.444-4.445zm6.458-7.846h-1.087c-.533 0-.965.432-.965.965s.432.966.965.966h1.087c.533 0 .966-.432.966-.966s-.433-.965-.966-.965zM18.522 3.018c.533 0 .966-.432.966-.966V.966c0-.534-.433-.966-.966-.966s-.966.432-.966.966v1.086c0 .534.433.966.966.966zm6.706.322l-.769.768a.97.97 0 0 0 .683 1.649c.247 0 .495-.095.683-.283l.769-.769c.377-.377.377-.988 0-1.365s-.989-.378-1.366 0zM11.22 5.48a.96.96 0 0 0 .683.283.97.97 0 0 0 .683-1.649l-.768-.768c-.377-.377-.989-.377-1.366 0s-.377.989 0 1.366l.768.768z"/></svg>
