<svg xmlns="http://www.w3.org/2000/svg" viewBox="0 0 30 28" fill="#1973b4"><path d="M11.244 5.53a.96.96 0 0 0 .684.284c.855 0 1.296-1.042.685-1.655l-.77-.77c-.378-.38-.99-.38-1.369 0a.97.97 0 0 0 0 1.37l.77.77zm7.316-2.47a.97.97 0 0 0 .967-.97V1a.97.97 0 0 0-.968-.97.97.97 0 0 0-.967.97v1.09a.97.97 0 0 0 .967.97zm6.633 2.747a.96.96 0 0 0 .684-.284l.77-.77a.97.97 0 0 0 0-1.371c-.378-.379-.99-.379-1.368 0l-.77.77c-.612.613-.17 1.655.684 1.655zm3.839 4.703h-1.088a.97.97 0 0 0-.968.969.97.97 0 0 0 .968.969h1.088a.97.97 0 0 0 .968-.97.97.97 0 0 0-.968-.968zm-4.129 4.538c2.642-4.638-.63-10.838-6.34-10.838a7.25 7.25 0 0 0-6.31 3.672c-4.217-.726-7.78 2.826-7.467 6.644A5.14 5.14 0 0 0 0 19.65a5.14 5.14 0 0 0 4.688 5.117c.912 1.123 2.301 1.841 3.855 1.841h13.072c3.442 0 6.242-2.804 6.242-6.25 0-2.26-1.194-4.214-2.954-5.311zm-6.34-8.9c4.186 0 6.71 4.625 4.535 8.136l-.027.045-.054-.064a6.22 6.22 0 0 0-2.468-.067 6.23 6.23 0 0 0-1.167-2.093 6.25 6.25 0 0 0-3.333-2.047 6.45 6.45 0 0 0-1.916-1.539 5.32 5.32 0 0 1 4.43-2.37zM1.936 19.651a3.2 3.2 0 0 1 3.791-3.143.97.97 0 0 0 1.132-1.127c-.064-.346-.153-.944-.153-1.19a4.47 4.47 0 0 1 4.46-4.465c.64 0 1.252.137 1.808.384-2.91.794-4.883 3.637-4.567 6.548a4.98 4.98 0 0 0-4.832 4.975 5.06 5.06 0 0 0 .074.85 3.2 3.2 0 0 1-1.713-2.832zm19.68 5.39H8.543c-.454 0-.887-.09-1.284-.254a3.42 3.42 0 0 1-1.893-1.938 3.39 3.39 0 0 1-.225-1.216 3.41 3.41 0 0 1 4.038-3.348c.539.102 1.015-.37.916-.912-.06-.331-.156-.958-.156-1.231 0-2.582 2.097-4.683 4.675-4.683l.081.002a4.68 4.68 0 0 1 4.06 2.502 4.65 4.65 0 0 1 .456 1.32c.085.462.555.747 1.004.606a4.72 4.72 0 0 1 1.45-.216 4.66 4.66 0 0 1 2.566.809c1.225.831 2.06 2.233 2.06 3.876 0 2.582-2.098 4.682-4.676 4.682z"/></svg>
