<svg xmlns="http://www.w3.org/2000/svg" viewBox="0 0 30 30" fill="#1973b4"><path d="M30 15a.97.97 0 0 1-.968.968h-1.451a.97.97 0 0 1-.968-.968.97.97 0 0 1 .968-.968h1.451A.97.97 0 0 1 30 15zM15 3.387a.97.97 0 0 0 .968-.968V.968A.97.97 0 0 0 15 0a.97.97 0 0 0-.968.968v1.451a.97.97 0 0 0 .968.968zm9.568 3.402L25.6 5.757c.378-.377.378-.99 0-1.368s-.99-.378-1.368 0L23.2 5.42c-.378.378-.379.991 0 1.369s.99.378 1.368 0zM5.41 6.798c.189.189.437.283.684.283a.97.97 0 0 0 .684-1.652L5.747 4.397a.97.97 0 0 0-1.369 0 .97.97 0 0 0 0 1.37l1.033 1.031zm-2.99 7.295H.968c-.535 0-.968.433-.968.967a.97.97 0 0 0 .968.968h1.451a.97.97 0 0 0 .968-.968c0-.534-.433-.967-.968-.967zm22.17 9.153a.97.97 0 0 0-1.369 0 .97.97 0 0 0 0 1.369l1.033 1.032a.97.97 0 0 0 1.369 0 .97.97 0 0 0 0-1.37l-1.033-1.031zM15 26.613a.97.97 0 0 0-.968.968v1.451A.97.97 0 0 0 15 30a.97.97 0 0 0 .968-.968v-1.451a.97.97 0 0 0-.968-.968zm-9.597-3.375L4.37 24.27c-.61.61-.171 1.652.685 1.652a.97.97 0 0 0 .684-.283l1.032-1.032a.97.97 0 0 0 0-1.369c-.377-.378-.99-.378-1.368 0zm20-8.208c0 5.72-4.653 10.373-10.373 10.373S4.657 20.75 4.657 15.03 9.311 4.657 15.03 4.657 25.403 9.311 25.403 15.03zm-1.935 0a8.45 8.45 0 0 0-8.438-8.437 8.45 8.45 0 0 0-8.437 8.437 8.45 8.45 0 0 0 8.437 8.438 8.45 8.45 0 0 0 8.438-8.438z"/></svg>
