<svg xmlns="http://www.w3.org/2000/svg" viewBox="0 0 30 30" fill="#1973b4"><path d="M4.864 26.625v.604c0 .533-.431.966-.964.966s-.964-.433-.964-.966v-.604c0-.533.432-.966.964-.966s.964.433.964.966zm3.253-.966c-.532 0-.964.433-.964.966v2.354c0 .534.432.966.964.966s.964-.432.964-.966v-2.354c0-.533-.431-.966-.964-.966zm4.217 0c-.532 0-.964.433-.964.966v.604c0 .533.432.966.964.966s.964-.433.964-.966v-.604c0-.533-.431-.966-.964-.966zm4.217 0c-.532 0-.963.433-.963.966v2.354c0 .534.431.966.963.966s.964-.432.964-.966v-2.354c0-.533-.431-.966-.964-.966zm4.218 0c-.533 0-.964.433-.964.966v.604c0 .533.431.966.964.966s.963-.433.963-.966v-.604c0-.533-.431-.966-.963-.966zm9.035-12.883c-.742 2.691-2.594 4.998-5.144 6.3-.385 3.152-3.073 5.6-6.322 5.6H5.394a5.12 5.12 0 0 1-5.108-5.118c0-2.707 2.108-4.93 4.766-5.108-.242-2.963 1.94-6.034 5.246-6.617 1.358-5.94 7.657-9.335 13.354-7.183a.97.97 0 0 1 .26 1.659c-1.27 1.015-1.999 2.53-1.999 4.155 0 3.486 3.323 6.055 6.707 5.123.72-.198 1.383.467 1.184 1.189zm-7.024 5.519c0-2.454-1.992-4.45-4.442-4.45-1.263 0-1.506.475-2.115.108-.236-.143-.4-.38-.45-.652a4.44 4.44 0 0 0-4.367-3.634c-2.45 0-4.442 1.997-4.442 4.45 0 .246.089.842.152 1.186.122.667-.463 1.249-1.127 1.123a3.19 3.19 0 0 0-3.776 3.132 3.19 3.19 0 0 0 3.182 3.187h12.943c2.45 0 4.442-1.996 4.442-4.45zm4.612-4.59c-6.114.149-9.568-6.9-5.914-11.653-4.15-.706-8.05 1.897-9.18 5.747 2.35.332 4.323 1.95 5.112 4.182 3.344-.49 6.43 1.712 7.145 4.924a8.28 8.28 0 0 0 2.837-3.2z"/></svg>
