<svg xmlns="http://www.w3.org/2000/svg" viewBox="0 0 30 30" fill="#1973b4"><path d="M29.878 13.136a10.1 10.1 0 0 1-5.144 6.3c-.385 3.152-3.073 5.6-6.321 5.6H5.469A5.12 5.12 0 0 1 .36 19.919c0-2.707 2.109-4.93 4.767-5.108-.243-2.963 1.939-6.034 5.246-6.617 1.357-5.941 7.656-9.336 13.353-7.184a.97.97 0 0 1 .26 1.659c-1.27 1.015-1.998 2.53-1.998 4.155 0 3.485 3.322 6.055 6.706 5.123.72-.198 1.383.467 1.184 1.189zm-7.024 5.519c0-2.99-2.906-5.146-5.771-4.248-.551.173-1.13-.176-1.236-.746a4.44 4.44 0 0 0-4.367-3.634c-2.449 0-4.441 1.997-4.441 4.45 0 .245.088.841.151 1.186.122.667-.463 1.248-1.127 1.123a3.19 3.19 0 0 0-3.775 3.132 3.19 3.19 0 0 0 3.18 3.187h12.945c2.449 0 4.441-1.996 4.441-4.45zm4.612-4.59c-6.095.15-9.582-6.881-5.913-11.653-4.158-.708-8.053 1.904-9.18 5.747 2.348.332 4.323 1.95 5.111 4.182a6.38 6.38 0 0 1 7.146 4.924 8.28 8.28 0 0 0 2.836-3.2zM10.302 26.488a.97.97 0 0 0-1.282.48l-.605 1.33a.97.97 0 0 0 .48 1.28.97.97 0 0 0 1.282-.48l.605-1.33c.221-.486.006-1.06-.48-1.28zm-6.049 0a.97.97 0 0 0-1.281.48l-.605 1.33c-.221.485-.006 1.058.48 1.28a.97.97 0 0 0 1.282-.48l.605-1.33c.221-.486.006-1.06-.48-1.28zm17.54-.121c-.486-.221-1.06-.006-1.28.48l-.606 1.33a.97.97 0 0 0 .48 1.28.97.97 0 0 0 1.282-.48l.605-1.33c.221-.486.006-1.06-.48-1.28zm-5.443 0a.97.97 0 0 0-1.281.48l-.605 1.33c-.221.485-.006 1.059.48 1.28a.97.97 0 0 0 1.282-.48l.605-1.33c.22-.486.006-1.06-.48-1.28z"/></svg>
