<svg xmlns="http://www.w3.org/2000/svg" viewBox="0 0 26 26" fill="#1973b4"><path d="M24.506 15.395c-4.687 1.292-9.295-2.269-9.295-7.105a7.34 7.34 0 0 1 2.77-5.763c.498-.398.374-1.189-.221-1.414C9.406-2.045.532 4.175.532 13.054c0 7.05 5.69 12.755 12.72 12.755 5.726 0 10.774-3.866 12.275-9.401.17-.63-.419-1.179-1.021-1.013zm-11.254 8.768c-6.109 0-11.079-4.983-11.079-11.109 0-7.166 6.712-12.495 13.71-10.802C14.4 3.895 13.57 6.029 13.57 8.29c0 5.317 4.604 9.529 9.942 8.963-1.68 4.127-5.726 6.91-10.26 6.91z"/></svg>
