<svg xmlns="http://www.w3.org/2000/svg" width="229" height="25" viewBox="0 0 229 25">
    <g fill="none" fill-rule="evenodd">
        <g fill="#212121" fill-rule="nonzero">
            <path d="M122.14 6.465c-.545-.35-1.197-.593-1.96-.767l-.652-.105c-.723-.075-1.45-.11-2.176-.105h-3.844v.628h1.16v13.952h-1.16v.663h4.134c.763 0 1.378-.035 1.886-.07.29-.035.543-.07.725-.107.58-.138 1.088-.312 1.523-.592 1.016-.628 1.74-1.533 2.284-2.72.545-1.185.798-2.615.798-4.22 0-1.57-.253-2.93-.724-4.046-.436-1.15-1.124-1.989-1.995-2.511zm-.98 9.313c0 1.57-.217 2.685-.616 3.347-.254.384-.58.629-1.016.803-.351.115-.718.173-1.088.174h-.326c-.073 0-.145-.034-.218-.034V6.114h.145c.58 0 1.087.105 1.487.245.4.174.725.384.943.732.472.628.689 1.919.689 3.942v4.744zm13.864 3.313c-.652.663-1.633.977-3.013.977h-.834v-6.94c.799 0 1.342.209 1.707.662.326.418.507 1.15.544 2.268h.58V9.743h-.58c-.037.977-.218 1.674-.545 2.059-.363.418-.907.628-1.706.628V6.114h.834c1.199 0 2.07.245 2.615.699.543.452.98 1.29 1.342 2.545h.545l-.145-3.87h-9.618v.627h1.16v13.952h-1.159v.663h9.871l.218-5.023h-.617c-.183 1.604-.581 2.72-1.199 3.383v.001zM12.915 21.77c-.974 1.062-2.562 1.558-4.69 1.558H6.89V12.213c1.263 0 2.129.353 2.67 1.025.504.708.794 1.912.902 3.682h.865V6.832h-.865c-.072 1.558-.361 2.655-.902 3.292-.505.637-1.407.956-2.67.99V1.028h1.3c1.911 0 3.282.354 4.148 1.097.83.709 1.551 2.089 2.056 4.071h.902L15.044 0H0v1.027h1.804v22.3H0v1.062h15.44l.325-8.035h-.938c-.288 2.549-.902 4.355-1.912 5.415zM26.478 9.748c-.363-.245-.906-.597-1.594-1.053-2.828-1.823-4.242-3.4-4.242-4.733 0-.84.328-1.578.98-2.138.652-.596 1.486-.911 2.427-.911 1.305 0 2.43.49 3.335 1.471.87.982 1.557 2.42 1.957 4.313h.87V.317h-.87l-.797 1.226C27.89 1.06 27.17.67 26.405.387 25.708.134 24.973.003 24.231 0c-1.74 0-3.153.596-4.276 1.824-1.124 1.193-1.668 2.769-1.668 4.663 0 1.682.362 3.12 1.124 4.313.76 1.192 2.247 2.558 4.458 4.031 1.92 1.263 3.152 2.28 3.66 2.981.507.736.797 1.507.797 2.419 0 1.087-.362 1.963-1.087 2.665-.689.7-1.594 1.052-2.682 1.052-1.486 0-2.682-.596-3.624-1.719-.943-1.156-1.558-2.804-1.812-4.943h-.834v7.292h.834l.979-1.227c.76.526 1.521.947 2.246 1.227.762.28 1.486.42 2.211.42 1.848 0 3.37-.7 4.567-2.068 1.16-1.367 1.775-3.12 1.775-5.293 0-1.719-.362-3.192-1.087-4.454-.688-1.261-1.812-2.419-3.334-3.435zm23.34-1.96L49.635 0H33.01l-.218 7.788h.945c.435-2.442 1.016-4.177 1.741-5.239.726-1.026 1.743-1.558 2.977-1.558h.29v22.336H36.17v1.062h10.31v-1.062h-2.541V.991h.29c1.234 0 2.214.532 2.94 1.523.726 1.027 1.307 2.796 1.779 5.274h.872-.001zM58.568 0h-1.493L55.73 4.567l-5.535 18.76h-1.638v1.062h5.132v-1.062h-2.292l1.82-6.195h4.951l1.639 6.195h-1.822v1.062h8.228v-1.062h-1.348L58.568 0zm-2.84 16H53.58l2.148-7.61.073-.248L57.876 16H55.73zM81.414 1.558c-.93-.567-1.97-.955-3.16-1.203-.335-.072-.706-.107-1.078-.177-1.16-.121-2.327-.18-3.494-.178h-6.206v1.027h1.857v22.3h-1.857v1.062h6.69c1.189 0 2.192-.035 3.01-.107.483-.071.855-.106 1.19-.176.929-.213 1.747-.53 2.452-.956 1.6-.99 2.825-2.406 3.68-4.319.856-1.91 1.264-4.21 1.264-6.795 0-2.513-.372-4.673-1.115-6.479-.743-1.804-1.82-3.15-3.234-3.999h.001zM79.777 16.46c0 2.548-.334 4.318-.967 5.38-.408.602-.928 1.026-1.635 1.274-.483.177-1.078.248-1.747.248h-.52c-.112 0-.223 0-.335-.035v-22.3h.186c.966 0 1.784.141 2.416.39.669.247 1.19.637 1.561 1.132.707.99 1.042 3.115 1.042 6.3v7.611h-.001zM103.19 2.907c-.802-.902-1.776-1.64-2.864-2.171C99.319.253 98.214.002 97.095 0c-1.096.005-2.177.257-3.16.735-1.03.49-1.984 1.224-2.829 2.171-1.145 1.226-2.032 2.666-2.608 4.236-.55 1.576-.845 3.36-.845 5.356 0 1.961.294 3.747.845 5.322.57 1.574 1.457 3.016 2.608 4.238.801.903 1.775 1.64 2.865 2.169 1.029.49 2.057.77 3.122.77 1.102 0 2.168-.28 3.233-.77 1.066-.525 1.984-1.225 2.867-2.17 1.138-1.26 2.018-2.696 2.57-4.237.551-1.576.808-3.36.808-5.32 0-1.997-.258-3.782-.844-5.358-.55-1.566-1.411-3.007-2.534-4.236h-.002zm-2.571 13.514c0 2.66-.258 4.586-.808 5.812-.588 1.19-1.47 1.785-2.719 1.785-1.212 0-2.093-.596-2.68-1.785-.552-1.226-.846-3.151-.846-5.812V8.543c0-2.66.294-4.586.845-5.776.551-1.19 1.47-1.786 2.681-1.786 1.25 0 2.13.596 2.72 1.786.55 1.19.807 3.115.807 5.776v7.878zm53.45-1.306L150.625 0h-7.479v1.063h1.761v22.3h-1.76v1.026h4.656v-1.027h-1.723V2.054l5.39 22.335h1.21l5.975-21.733v20.706h-1.944v1.027h8.507v-1.027h-1.541v-22.3h1.54V0h-7.002l-4.143 15.115zM167.74 1.063h1.765v22.3h-1.765v1.026h8.828v-1.027h-1.802v-22.3h1.802V0h-8.828v1.063zm23.131.01h2.07V14.95L185.33 0h-6.87v1.073h1.92v22.531h-1.922v1.036h5.173v-1.036h-2.105V3.362l11.081 21.637h1.478V1.073h2.03V0h-5.245v1.073zM207.39 0h-1.493l-1.346 4.602-5.498 18.76h-1.675v1.027h5.133v-1.027h-2.294l1.821-6.194h4.95l1.64 6.194h-1.821v1.027h8.228v-1.027h-1.31L207.387 0h.001zm-2.84 16.035h-2.147l2.148-7.645.072-.213 2.075 7.858h-2.147zm19.973-6.275c-.4-.245-.942-.631-1.631-1.088-2.79-1.79-4.204-3.37-4.204-4.704 0-.843.326-1.58.978-2.177.653-.596 1.45-.877 2.428-.877 1.306 0 2.429.49 3.299 1.475.906.982 1.594 2.42 1.994 4.317h.832V.281h-.832l-.8 1.265c-.66-.482-1.378-.882-2.137-1.192-.699-.242-1.435-.361-2.175-.352-1.74 0-3.19.597-4.277 1.79-1.122 1.229-1.702 2.774-1.702 4.705 0 1.685.398 3.124 1.16 4.319.76 1.192 2.246 2.561 4.456 4.001 1.922 1.3 3.153 2.317 3.661 3.02.507.702.761 1.509.76 2.422 0 1.054-.325 1.966-1.05 2.668-.688.667-1.595 1.019-2.682 1.019-1.486 0-2.717-.561-3.624-1.72-.943-1.124-1.56-2.774-1.812-4.95h-.87v7.301h.87l.978-1.227c.689.517 1.444.942 2.246 1.263.726.245 1.487.387 2.212.387 1.849 0 3.37-.668 4.531-2.037 1.195-1.37 1.775-3.125 1.775-5.302 0-1.72-.326-3.23-1.052-4.458-.724-1.264-1.81-2.423-3.333-3.442h.001z"/>
        </g>
    </g>
</svg>
