<svg width="120" height="31" viewBox="0 0 120 31" fill="none" xmlns="http://www.w3.org/2000/svg">
<path d="M0.564911 0.567146L0.588423 15.7128C0.568023 20.2585 2.20073 23.6366 5.29985 25.5427C7.07916 26.6321 8.99955 26.6137 10.7585 27.7714C10.7716 27.7801 10.7844 27.7905 10.7975 27.7992C11.8514 28.5413 13.5671 29.7588 13.5671 30.4109L13.6356 30.4352V30.4325C13.6356 29.8327 15.0318 28.7364 15.9412 27.9912C15.9719 27.9669 16.0024 27.9409 16.0331 27.9173C16.047 27.9068 16.0612 27.8971 16.0753 27.886C16.1282 27.8459 16.1822 27.8074 16.2375 27.7707C17.9968 26.613 19.922 26.6307 21.6968 25.5427C24.7786 23.6512 26.449 20.2435 26.4062 15.7128L26.4359 0.567493L0.564911 0.567146V0.567146Z" fill="url(#paint0_linear)"/>
<path d="M11.6665 21.6951C12.1253 22.151 12.7608 22.3986 13.386 22.4538C13.23 21.9132 12.9029 21.4378 12.4641 21.012C12.0157 20.6043 11.5264 20.3095 10.9946 20.1612C10.9977 20.4492 11.0588 20.7335 11.1743 20.997C11.2898 21.2606 11.4572 21.4979 11.6665 21.6947V21.6951Z" fill="url(#paint1_linear)"/>
<path d="M9.77719 20.8617C10.1492 21.3815 10.7277 21.7545 11.3428 21.8888C11.2643 21.353 11.0337 20.8057 10.6779 20.3255C10.3149 19.8508 9.89994 19.4782 9.4169 19.2323C9.31179 19.7456 9.40446 20.3349 9.77719 20.8613V20.8617Z" fill="url(#paint2_linear)"/>
<path d="M11.4448 22.3514C12.1115 22.2938 12.7622 22.3587 13.3649 22.5622C13.0271 22.974 12.4811 23.3171 11.7792 23.3904C11.0738 23.4859 10.3322 23.2932 9.71497 22.9358C10.1852 22.6063 10.7754 22.4233 11.4448 22.3514Z" fill="url(#paint3_linear)"/>
<path d="M8.08052 19.6744C8.33985 20.2571 8.83291 20.7418 9.41483 20.9846C9.43662 20.4415 9.31456 19.8654 9.06665 19.3282C8.81009 18.7951 8.48887 18.3482 8.06738 18.0103C7.85785 18.4867 7.82396 19.0833 8.08052 19.6744Z" fill="url(#paint4_linear)"/>
<path d="M7.62964 20.1987C8.28072 20.388 8.84778 20.704 9.35848 21.0811C8.89273 21.3735 8.26655 21.4819 7.56533 21.2933C6.85962 21.1141 6.23275 20.6314 5.79742 20.0494C6.36172 19.9418 6.9841 20.0043 7.62964 20.1987V20.1987Z" fill="url(#paint5_linear)"/>
<path d="M6.6722 18.1586C6.80458 18.7922 7.17275 19.3511 7.70155 19.7213C7.83398 19.1934 7.83398 18.6083 7.70743 18.0301C7.56912 17.4575 7.34714 16.9519 7.00863 16.5268C6.70021 16.9526 6.54323 17.529 6.6722 18.1589V18.1586Z" fill="url(#paint6_linear)"/>
<path d="M6.12069 18.5767C6.71299 18.9024 7.20467 19.3285 7.62686 19.8039C7.11166 19.9925 6.47268 19.9682 5.82748 19.6338C5.17295 19.3077 4.66225 18.7038 4.3642 18.0461C4.93229 18.0582 5.52874 18.2499 6.12069 18.5763V18.5767Z" fill="url(#paint7_linear)"/>
<path d="M5.60827 16.3796C5.59894 17.0244 5.86276 17.662 6.28943 18.1253C6.53043 17.6377 6.65318 17.0665 6.64834 16.4695C6.63382 15.8768 6.50588 15.3309 6.25866 14.8374C5.87348 15.1993 5.60654 15.7372 5.60827 16.3796Z" fill="url(#paint8_linear)"/>
<path d="M4.98417 16.6744C5.47422 17.1046 5.88554 17.6176 6.19954 18.1902C5.65634 18.2669 5.03707 18.1055 4.47831 17.6464C3.91056 17.1932 3.52814 16.5108 3.37186 15.8118C3.92301 15.932 4.46725 16.2369 4.98417 16.6744V16.6744Z" fill="url(#paint9_linear)"/>
<path d="M4.90844 14.4186C4.77913 15.052 4.91881 15.7257 5.23865 16.2688C5.57819 15.8382 5.80363 15.3038 5.91359 14.7089C6.01248 14.1168 5.97928 13.5442 5.81988 13.0053C5.37903 13.2994 5.02531 13.7852 4.90844 14.4186V14.4186Z" fill="url(#paint10_linear)"/>
<path d="M4.24076 14.5915C4.64397 15.1047 4.94817 15.6889 5.13768 16.3143C4.59586 16.2764 4.01394 15.999 3.55995 15.4461C3.09385 14.8982 2.84179 14.171 2.80963 13.4657C3.33174 13.6765 3.81512 14.0679 4.24076 14.5915Z" fill="url(#paint11_linear)"/>
<path d="M4.55819 12.3562C4.32894 12.9633 4.35038 13.647 4.5651 14.2412C4.97968 13.88 5.29363 13.3914 5.50213 12.816C5.69714 12.241 5.75904 11.6569 5.67674 11.0905C5.2027 11.3204 4.77395 11.7485 4.55819 12.3562Z" fill="url(#paint12_linear)"/>
<path d="M3.87081 12.4184C4.18638 12.989 4.38561 13.617 4.45688 14.2658C3.93339 14.1293 3.41094 13.7564 3.05791 13.1421C2.69071 12.5309 2.56243 11.7864 2.63123 11.0947C3.12222 11.3759 3.53541 11.8343 3.87081 12.4184V12.4184Z" fill="url(#paint13_linear)"/>
<path d="M4.52153 10.2571C4.21449 10.8269 4.12563 11.5051 4.24803 12.1257C4.7079 11.8354 5.10691 11.3978 5.39183 10.8526C5.66671 10.3053 5.81124 9.72541 5.80467 9.1441C5.29985 9.31356 4.82788 9.68443 4.52188 10.2571H4.52153Z" fill="url(#paint14_linear)"/>
<path d="M3.83276 10.2202C4.0748 10.8457 4.16435 11.4975 4.13773 12.1329C3.63498 11.9131 3.19102 11.4669 2.92582 10.8144C2.65059 10.1626 2.62846 9.42051 2.78509 8.75065C3.23113 9.09027 3.589 9.59553 3.83276 10.2202V10.2202Z" fill="url(#paint15_linear)"/>
<path d="M4.76565 8.15024C4.39706 8.67981 4.21207 9.33786 4.25045 9.96987C4.74386 9.74763 5.20477 9.36634 5.55192 8.85552C5.90979 8.34401 6.10342 7.7745 6.17707 7.1925C5.64666 7.30258 5.14772 7.62067 4.76565 8.15024Z" fill="url(#paint16_linear)"/>
<path d="M4.08689 8.02835C4.25701 8.67877 4.25183 9.33683 4.14014 9.96189C3.67094 9.67297 3.29785 9.17431 3.11183 8.4982C2.93769 7.82069 2.97633 7.10569 3.22248 6.4511C3.61838 6.83587 3.92888 7.38106 4.08689 8.02835V8.02835Z" fill="url(#paint17_linear)"/>
<path d="M5.258 6.08231C4.8213 6.56708 4.57995 7.20153 4.53189 7.8325C5.05642 7.67206 5.54741 7.34633 5.95818 6.87441C6.3553 6.41718 6.63078 5.86647 6.75898 5.27354C6.23514 5.33431 5.68157 5.59337 5.258 6.08266V6.08231Z" fill="url(#paint18_linear)"/>
<path d="M4.87559 4.53944C4.63839 5.19923 4.62387 5.88021 4.79675 6.45145C5.2622 6.02495 5.61636 5.49029 5.82818 4.89434C6.06226 4.26927 6.12899 3.63136 6.04808 3.03338C5.55191 3.3598 5.12212 3.88277 4.87559 4.53944V4.53944Z" fill="url(#paint19_linear)"/>
<path d="M4.5969 5.88646C4.68335 6.54695 4.61903 7.20604 4.42298 7.81132C4.00046 7.46822 3.67751 6.92754 3.57413 6.2424C3.46694 5.55483 3.60179 4.83982 3.89569 4.23073C4.26635 4.6589 4.49629 5.2225 4.5969 5.88646V5.88646Z" fill="url(#paint20_linear)"/>
<path d="M9.53513 22.5552C10.1727 22.574 10.819 22.3385 11.2985 21.9291C10.8269 21.6666 10.254 21.5187 9.65788 21.511C9.06178 21.5128 8.51512 21.6173 8.02759 21.8545C8.3699 22.2497 8.8927 22.5334 9.53513 22.5552V22.5552Z" fill="url(#paint21_linear)"/>
<path d="M13.3648 22.5622C13.3648 22.5622 16.2174 23.6026 18.458 25.8532L17.9801 26.4664C17.9801 26.4664 14.8772 22.8066 13.127 22.8066C11.3767 22.8066 13.3648 22.5622 13.3648 22.5622Z" fill="url(#paint22_linear)"/>
<path d="M15.556 22.3514C14.889 22.2938 14.2383 22.3587 13.6356 22.5622C13.9738 22.974 14.5194 23.3171 15.222 23.3904C15.9267 23.4859 16.669 23.2928 17.2855 22.9358C16.8149 22.6063 16.2254 22.424 15.556 22.3514Z" fill="url(#paint23_linear)"/>
<path d="M17.5594 21.4669C16.8858 21.5211 16.2655 21.7145 15.6953 21.9948C16.1002 22.3691 16.6894 22.5903 17.4072 22.5511C18.1268 22.5184 18.8335 22.1819 19.376 21.7052C18.8505 21.4812 18.2291 21.4072 17.5594 21.4669V21.4669Z" fill="url(#paint24_linear)"/>
<path d="M15.3344 21.6947C14.8755 22.151 14.2407 22.3986 13.6152 22.4538C13.7705 21.9132 14.0979 21.4378 14.5363 21.0113C14.9851 20.6043 15.4744 20.3095 16.0058 20.1602C16.003 20.4483 15.9421 20.7328 15.8266 20.9966C15.7112 21.2603 15.5438 21.4978 15.3344 21.6947V21.6947Z" fill="url(#paint25_linear)"/>
<path d="M17.2236 20.862C16.8512 21.3815 16.2734 21.7545 15.6583 21.8895C15.7365 21.353 15.9674 20.8057 16.3236 20.3262C16.6863 19.8508 17.1009 19.4778 17.5842 19.2323C17.6887 19.7456 17.5963 20.3349 17.2236 20.862Z" fill="url(#paint26_linear)"/>
<path d="M19.3712 20.1987C18.7198 20.388 18.1538 20.704 17.6424 21.0811C18.1078 21.3735 18.7343 21.4819 19.4352 21.2933C20.1409 21.1141 20.7678 20.6321 21.2024 20.0494C20.6391 19.9407 20.0167 20.0039 19.3712 20.1987V20.1987Z" fill="url(#paint27_linear)"/>
<path d="M18.92 19.6744C18.6606 20.2571 18.1676 20.7419 17.5863 20.9853C17.5642 20.4415 17.6863 19.8654 17.9342 19.3285C18.1911 18.7955 18.5123 18.3478 18.9338 18.0107C19.143 18.4868 19.1772 19.0837 18.92 19.6744Z" fill="url(#paint28_linear)"/>
<path d="M20.8801 18.575C20.2875 18.9024 19.7958 19.3285 19.3743 19.8039C19.8888 19.9932 20.5278 19.9682 21.1733 19.6337C21.8282 19.3077 22.3386 18.7038 22.6363 18.0461C22.0682 18.0575 21.4721 18.2506 20.8801 18.575Z" fill="url(#paint29_linear)"/>
<path d="M20.3286 18.1586C20.1966 18.7923 19.8283 19.3514 19.2993 19.7213C19.1661 19.1934 19.1668 18.6083 19.2937 18.0298C19.431 17.4575 19.6537 16.9519 19.9925 16.5268C20.3003 16.9519 20.4576 17.529 20.3286 18.1586V18.1586Z" fill="url(#paint30_linear)"/>
<path d="M22.017 16.6737C21.5272 17.1046 21.1159 17.6177 20.8013 18.1902C21.3445 18.2669 21.9637 18.1062 22.5228 17.6457C23.0902 17.1932 23.4727 16.5102 23.629 15.8118C23.0775 15.9323 22.5329 16.2362 22.017 16.6737V16.6737Z" fill="url(#paint31_linear)"/>
<path d="M21.3922 16.3796C21.4015 17.0244 21.1377 17.662 20.711 18.1253C20.4704 17.6377 20.3473 17.0651 20.3521 16.4695C20.367 15.8768 20.4946 15.3316 20.7422 14.8378C21.1277 15.1999 21.3943 15.7372 21.3922 16.3796Z" fill="url(#paint32_linear)"/>
<path d="M22.76 14.5922C22.3567 15.1047 22.0524 15.6886 21.8631 16.3136C22.4053 16.2765 22.9865 15.9997 23.4409 15.4462C23.9073 14.8989 24.1594 14.171 24.1908 13.4664C23.6694 13.6765 23.1857 14.0672 22.76 14.5922Z" fill="url(#paint33_linear)"/>
<path d="M22.0924 14.4186C22.222 15.052 22.0813 15.7257 21.7618 16.2695C21.4226 15.8382 21.1979 15.3038 21.0865 14.7082C20.9887 14.1168 21.0215 13.5442 21.1806 13.0046C21.6218 13.2994 21.9751 13.7852 22.0924 14.4186Z" fill="url(#paint34_linear)"/>
<path d="M23.13 12.4184C22.8147 12.9893 22.6154 13.6176 22.5439 14.2665C23.0678 14.129 23.5906 13.755 23.9436 13.1421C24.3105 12.5309 24.4384 11.7871 24.3699 11.0947C23.8793 11.3759 23.4658 11.8333 23.13 12.4184V12.4184Z" fill="url(#paint35_linear)"/>
<path d="M22.4426 12.3562C22.6719 12.9633 22.6504 13.647 22.4357 14.2412C22.0215 13.8797 21.7075 13.3914 21.4983 12.816C21.3037 12.241 21.2421 11.6576 21.3237 11.0912C21.7985 11.3204 22.2265 11.7485 22.4426 12.3562V12.3562Z" fill="url(#paint36_linear)"/>
<path d="M23.1681 10.2202C22.9257 10.8464 22.8361 11.4975 22.8631 12.133C23.3655 11.9131 23.8098 11.4669 24.075 10.8144C24.3502 10.1633 24.3727 9.42051 24.2157 8.75134C23.7697 9.09096 23.4115 9.59553 23.1681 10.2202V10.2202Z" fill="url(#paint37_linear)"/>
<path d="M22.4793 10.2571C22.7863 10.8269 22.8752 11.5051 22.7524 12.1257C22.2933 11.836 21.8942 11.3978 21.609 10.8533C21.3344 10.306 21.1899 9.72471 21.1958 9.14479C21.7006 9.31356 22.1733 9.68374 22.4793 10.2571V10.2571Z" fill="url(#paint38_linear)"/>
<path d="M22.9143 8.02766C22.7445 8.67877 22.749 9.33717 22.861 9.96259C23.3299 9.67367 23.7036 9.17431 23.8897 8.49819C24.0634 7.82086 24.0246 7.10618 23.7787 6.4518C23.3824 6.83587 23.0719 7.38106 22.9143 8.02766Z" fill="url(#paint39_linear)"/>
<path d="M22.2352 8.15025C22.6038 8.68051 22.7891 9.33857 22.75 9.96988C22.2566 9.74798 21.7961 9.36704 21.4489 8.85553C21.0917 8.34471 20.8974 7.77451 20.8234 7.1932C21.3545 7.30328 21.8535 7.62068 22.2352 8.15025Z" fill="url(#paint40_linear)"/>
<path d="M22.4046 5.88646C22.3189 6.533 22.378 7.19061 22.5775 7.81132C23.0004 7.46822 23.3237 6.92754 23.4264 6.2424C23.5339 5.55517 23.3994 4.84051 23.1041 4.23142C22.7345 4.6589 22.5049 5.2225 22.4046 5.88646Z" fill="url(#paint41_linear)"/>
<path d="M21.192 4.88045C21.3991 5.4795 21.749 6.01851 22.2113 6.45041C22.389 5.87986 22.3804 5.20028 22.1487 4.53771C21.9081 3.87722 21.4818 3.34939 20.9873 3.01775C20.9012 3.61434 20.9628 4.2533 21.192 4.88045Z" fill="url(#paint42_linear)"/>
<path d="M21.7428 6.08232C22.1798 6.56709 22.4208 7.20153 22.4696 7.83146C21.9447 7.67276 21.4534 7.34599 21.0423 6.87441C20.6456 6.4168 20.3703 5.86607 20.2418 5.2732C20.766 5.33432 21.3192 5.59268 21.7428 6.08232Z" fill="url(#paint43_linear)"/>
<path d="M13.6359 22.5622C13.6359 22.5622 10.784 23.6019 8.54279 25.8532L9.02064 26.4657C9.02064 26.4657 12.1235 22.8066 13.8742 22.8066C15.6248 22.8066 13.6356 22.5622 13.6356 22.5622H13.6359Z" fill="url(#paint44_linear)"/>
<path d="M17.5234 17.7756L10.5309 17.7686L10.6762 17.0925C10.8695 17.0797 11.2896 17.0428 11.441 16.98C11.719 16.8682 11.8414 16.6421 11.9009 16.3664L13.0882 10.8405C13.1474 10.5647 13.1194 10.3519 12.8925 10.2262C12.7314 10.1383 12.3853 10.0247 12.1979 10.0126L12.3431 9.33578L18.902 9.34238L18.4338 11.5228L17.9366 11.5225C17.8992 10.9582 17.4733 10.231 17.0034 10.1553C16.717 10.1122 16.4278 10.0909 16.1382 10.0918L15.2814 10.0911L14.6677 12.948L15.0062 12.9483C15.5985 12.9487 15.8585 12.724 16.0179 12.5733C16.2171 12.3851 16.5203 11.9093 16.6216 11.5836L17.1185 11.5839L16.3509 15.1551L15.8537 15.1545C15.9107 14.7912 15.78 14.2648 15.6881 14.1016C15.5888 13.9262 15.409 13.7255 14.8382 13.7248H14.4997L14.0391 15.8677C13.8185 16.8949 13.9108 17.0078 14.9792 17.0088C15.4872 17.0092 16.14 17.0227 16.4615 16.7095C16.8754 16.3091 17.5507 15.4826 17.7582 15.1069L18.2343 15.1072L17.5234 17.7756V17.7756Z" fill="white"/>
<path d="M10.4798 12.9685C9.36606 12.9674 8.80557 12.5646 8.45669 12.3128L8.00097 12.9032L7.492 12.9025L8.11162 9.67401L8.60987 9.67436C8.7461 10.8682 9.13855 12.1507 10.3584 12.1517C11.2069 12.1524 11.8345 11.7006 12.0098 10.8842C12.1526 10.2185 11.822 9.97925 11.0863 9.65144C10.6706 9.46253 10.1202 9.26112 9.80795 9.08506C8.99021 8.64404 8.71014 7.72693 8.93662 6.67196C9.2281 5.31487 10.598 4.12273 12.2318 4.12447C13.0381 4.12516 13.6781 4.45228 14.0031 4.71654L14.408 4.21476L14.9277 4.2151L14.3278 7.25535L13.8296 7.25501C13.6864 5.89757 13.5014 4.93011 12.3563 4.92907C11.6879 4.92837 11.1004 5.34231 10.9441 6.07085C10.8038 6.72405 11.1025 6.96331 11.857 7.30328C12.2726 7.49219 12.802 7.69394 13.1353 7.87C13.8946 8.28567 14.351 8.92671 14.0647 10.2581C13.7348 11.7902 12.1979 12.9702 10.4798 12.9685V12.9685Z" fill="white"/>
<g clip-path="url(#clip0)">
<path d="M0.563629 0.562233L0.587092 15.5828C0.566387 20.0908 2.19621 23.441 5.28918 25.3314C7.06497 26.4117 8.98155 26.3935 10.737 27.5417C10.7501 27.5503 10.7629 27.5606 10.776 27.5692C11.8278 28.3052 13.5401 29.5126 13.5401 30.1594L13.6084 30.1835V30.1807C13.6084 29.586 15.0018 28.4987 15.9094 27.7597C15.9401 27.7356 15.9705 27.7097 16.0012 27.6863L16.0433 27.6553C16.0968 27.6157 16.1503 27.5765 16.2051 27.541C17.9609 26.3928 19.8823 26.4104 21.6536 25.3314C24.7294 23.4555 26.3964 20.076 26.3537 15.5828L26.3833 0.562233H0.563629Z" fill="url(#paint45_linear)"/>
<path d="M43.351 26.2891H29.2095V25.1361C29.595 25.1144 30.4294 25.0507 30.7072 24.9436C31.2207 24.7511 31.3708 24.3671 31.3708 23.8973V14.4814C31.3708 14.012 31.2207 13.649 30.7075 13.4355C30.3438 13.286 29.595 13.0939 29.2099 13.0722V11.9192H42.4741V15.6344H41.4686C41.1476 14.6736 39.9709 13.4352 38.9871 13.307C38.398 13.2341 37.8049 13.1984 37.2113 13.2003H35.4786V18.0682H36.1633C37.3607 18.0682 37.7886 17.6842 38.0457 17.428C38.3666 17.1074 38.7728 16.2963 38.8373 15.7412H39.8429V21.8265H38.8373C38.7945 21.207 38.3024 20.3105 38.0457 20.0326C37.7676 19.734 37.3186 19.3924 36.1633 19.3924H35.4786V23.0436C35.4786 24.7945 35.714 24.9867 37.8745 24.9867C38.9018 24.9867 40.228 25.008 40.7415 24.4745C41.4047 23.7913 42.4103 22.382 42.667 21.7415H43.6298L43.351 26.2891V26.2891Z" fill="#004B03"/>
<path d="M49.4548 26.6304C48.0859 26.6304 47.1013 26.0539 46.6524 25.7336L46.3315 26.4165H45.1975L45.0905 22.7653H46.1603C46.5451 23.9824 47.5938 25.413 49.0911 25.413C50.1822 25.413 50.7809 25.0504 50.7809 24.0682C50.7809 22.0614 45.3683 22.8297 45.3683 18.7305C45.3683 16.8518 47.1224 15.4639 49.5611 15.4639C50.5456 15.4639 51.3797 15.7629 52.0001 16.0615L52.2358 15.4639H53.348L53.4981 18.7945H52.4284C52.0212 17.4283 51.1661 16.7024 50.1177 16.7024C49.1977 16.7024 48.5776 17.044 48.5776 17.791C48.5776 19.9475 53.9902 19.0938 53.9902 23.0863C53.9902 25.4564 51.7865 26.6304 49.4548 26.6304V26.6304Z" fill="#004B03"/>
<path d="M54.4616 28.9151C54.8464 28.8934 55.3381 28.808 55.638 28.7226C56.0448 28.5948 56.1942 28.2105 56.1942 27.7404V18.3248C56.1515 17.8761 55.9803 17.4921 55.638 17.2572C55.3816 17.0864 54.8464 16.9583 54.4612 16.9369V15.869L59.6388 15.6131L59.7886 15.7408V16.8515L59.8742 16.8728C60.3663 16.339 61.2649 15.4636 62.6555 15.4636C65.2443 15.4636 66.977 17.8974 66.977 21.1002C66.977 24.0892 64.538 26.545 62.0137 26.545C60.7942 26.545 60.3663 26.2457 59.8742 25.8831H59.7886V27.6123C59.7886 28.0817 60.0026 28.445 60.3873 28.5945C60.7083 28.7222 61.4785 28.8931 61.8636 28.9148V29.897H54.4616V28.9151V28.9151ZM63.0834 21.1433C63.0834 19.1575 62.6769 17.2575 61.2649 17.2575C60.4729 17.2575 60.2165 17.5992 59.7886 18.1757V23.7269C60.0026 24.3671 60.4091 25.2639 61.2649 25.2639C62.5058 25.2639 63.0834 23.8974 63.0834 21.1433Z" fill="#004B03"/>
<path d="M73.7165 26.6091C70.7639 26.6091 68.1113 24.3244 68.1113 21.0362C68.1113 17.9404 70.4434 15.4639 73.8017 15.4639C77.2249 15.4636 79.4714 17.9615 79.4714 20.9721C79.4714 23.94 77.375 26.6091 73.7165 26.6091ZM73.8234 16.638C72.0908 16.638 72.0476 18.8799 72.0476 20.9084C72.0476 23.4273 72.2402 25.4347 73.8234 25.4347C75.3211 25.4347 75.535 23.4917 75.535 20.9508C75.535 18.7305 75.4495 16.638 73.8234 16.638Z" fill="#004B03"/>
<path d="M88.7996 19.4141C87.7513 19.4141 86.9169 18.9443 87.3876 17.3216C86.4248 17.4497 85.7615 18.2397 85.569 18.5383V24.0685C85.569 24.5383 85.7829 24.8368 86.1677 25.008C86.51 25.1578 87.2375 25.2432 87.5798 25.2642V26.2895H80.4773V25.2642C80.8621 25.2429 81.1188 25.2002 81.4187 25.1148C81.8252 24.9866 81.975 24.645 81.975 24.1749V18.3678C81.9318 17.9194 81.7396 17.471 81.3973 17.2362C81.1406 17.0654 80.7127 16.9586 80.3275 16.9376V15.8696L85.4189 15.6138L85.569 15.7632V17.1935H85.6118C86.5104 16.0832 87.4304 15.507 88.4787 15.507C89.6127 15.507 90.4039 16.3397 90.4039 17.5565C90.4039 18.5814 89.7621 19.4141 88.7993 19.4141H88.7996Z" fill="#004B03"/>
<path d="M95.7744 26.5664C93.6991 26.5664 92.2874 25.4774 92.2874 23.5344V17.1931H90.4474V15.7839H92.3302V12.7519H95.86V15.7839H98.6842V17.1931H95.8814V23.1714C95.8814 24.3884 96.074 24.9219 97.1437 24.9219C97.8922 24.9219 98.1489 24.3454 98.1921 23.4062H99.2187C99.1335 25.1361 98.2135 26.5664 95.7744 26.5664V26.5664Z" fill="#004B03"/>
<path d="M104.953 26.6091C101.252 26.6091 99.3477 23.94 99.3477 20.9724C99.3477 18.2611 101.466 15.4639 104.718 15.4639C108.098 15.4639 109.531 17.7486 109.531 20.1184V21.0796H103.156C103.156 23.4276 103.819 24.7945 106.023 24.7945C107.306 24.7945 108.226 24.2393 108.954 23.2144L109.809 23.8973C108.953 25.4133 107.092 26.6091 104.953 26.6091V26.6091ZM104.589 16.681C103.584 16.681 103.199 17.6632 103.156 19.9472L105.873 19.9048C105.873 18.1326 105.83 16.6814 104.589 16.6814V16.681Z" fill="#004B03"/>
<path d="M114.902 26.6304C113.532 26.6304 112.548 26.0539 112.099 25.7336L111.778 26.4165H110.644L110.537 22.7653H111.607C111.992 23.9824 113.04 25.413 114.538 25.413C115.629 25.413 116.228 25.0504 116.228 24.0682C116.228 22.0614 110.815 22.8297 110.815 18.7305C110.815 16.8518 112.569 15.4639 115.008 15.4639C115.992 15.4639 116.827 15.7629 117.447 16.0615L117.682 15.4639H118.795L118.945 18.7945H117.875C117.468 17.4283 116.613 16.7024 115.565 16.7024C114.645 16.7024 114.024 17.044 114.024 17.791C114.024 19.9475 119.437 19.0938 119.437 23.0863C119.437 25.4564 117.234 26.6304 114.902 26.6304V26.6304Z" fill="#004B03"/>
<path d="M11.6431 21.5152C12.1011 21.9677 12.7353 22.2133 13.3592 22.268C13.2036 21.7318 12.8772 21.2604 12.4393 20.8381C11.9917 20.4338 11.5034 20.1414 10.9727 19.994C10.9757 20.2796 11.0367 20.5617 11.1519 20.8231C11.2671 21.0845 11.4342 21.32 11.6431 21.5152V21.5152Z" fill="url(#paint46_linear)"/>
<path d="M9.75763 20.6887C10.1289 21.2046 10.7063 21.5744 11.3202 21.7077C11.2418 21.1763 11.0117 20.6336 10.6566 20.1573C10.2942 19.6865 9.88048 19.3166 9.39806 19.0731C9.29315 19.5821 9.38563 20.1666 9.75763 20.6887V20.6887Z" fill="url(#paint47_linear)"/>
<path d="M11.422 22.1664C12.0873 22.1093 12.7371 22.1737 13.3382 22.3755C13.0011 22.7839 12.4562 23.1242 11.7557 23.1969C11.052 23.2916 10.3115 23.1001 9.69586 22.7461C10.1652 22.4192 10.7539 22.2377 11.422 22.1664V22.1664Z" fill="url(#paint48_linear)"/>
<path d="M8.06431 19.5115C8.32312 20.0894 8.81521 20.5702 9.39598 20.8109C9.41772 20.2723 9.29625 19.701 9.04849 19.1682C8.79243 18.6396 8.47185 18.1963 8.05154 17.8612C7.84208 18.3337 7.80826 18.925 8.06431 19.5115Z" fill="url(#paint49_linear)"/>
<path d="M7.61432 20.0316C8.26411 20.2193 8.83005 20.5327 9.33973 20.9067C8.87491 21.1966 8.24996 21.3041 7.55014 21.1171C6.84583 20.9394 6.22019 20.4607 5.78574 19.8835C6.34891 19.7764 6.97006 19.8384 7.61432 20.0316V20.0316Z" fill="url(#paint50_linear)"/>
<path d="M6.6588 18.0083C6.79092 18.6366 7.15836 19.1909 7.68611 19.558C7.81828 19.0346 7.81828 18.4543 7.69198 17.8805C7.55395 17.313 7.3324 16.8115 6.99457 16.39C6.68676 16.8122 6.53009 17.3839 6.6588 18.0083Z" fill="url(#paint51_linear)"/>
<path d="M6.10839 18.4226C6.69952 18.746 7.19022 19.1685 7.61157 19.64C7.09774 19.827 6.45969 19.8029 5.81576 19.4713C5.16252 19.1479 4.65284 18.549 4.35538 17.8967C4.92235 17.9088 5.51761 18.0989 6.10839 18.4226Z" fill="url(#paint52_linear)"/>
<path d="M5.59698 16.244C5.58766 16.8835 5.85096 17.5158 6.27714 17.9752C6.51731 17.4917 6.63982 16.9252 6.63499 16.3332C6.62049 15.7453 6.49281 15.2039 6.24608 14.7142C5.86166 15.0734 5.59525 15.6069 5.59698 16.244Z" fill="url(#paint53_linear)"/>
<path d="M4.97411 16.5364C5.46318 16.963 5.87369 17.4718 6.18707 18.0396C5.64495 18.1157 5.0269 17.9556 4.46925 17.5003C3.90263 17.0509 3.52097 16.3738 3.36499 15.6809C3.91505 15.8001 4.45821 16.1024 4.97411 16.5364V16.5364Z" fill="url(#paint54_linear)"/>
<path d="M4.89853 14.2992C4.76947 14.9274 4.90923 15.5955 5.22809 16.1341C5.56696 15.7071 5.79195 15.1771 5.90169 14.5871C6.00038 13.9999 5.96725 13.432 5.80817 12.8976C5.36819 13.1893 5.01517 13.6711 4.89853 14.2992V14.2992Z" fill="url(#paint55_linear)"/>
<path d="M4.23218 14.4707C4.63459 14.9796 4.93818 15.5591 5.12732 16.1792C4.58658 16.1417 4.00615 15.8665 3.55271 15.3183C3.08754 14.7748 2.83598 14.0537 2.80423 13.3542C3.32496 13.5633 3.80738 13.9514 4.23218 14.4707V14.4707Z" fill="url(#paint56_linear)"/>
<path d="M4.54898 12.2539C4.32019 12.8559 4.34159 13.534 4.55589 14.1232C4.96964 13.7647 5.28297 13.2805 5.4914 12.7099C5.68568 12.1396 5.74745 11.5603 5.66532 10.9986C5.19222 11.2266 4.76431 11.6512 4.54898 12.2539Z" fill="url(#paint57_linear)"/>
<path d="M3.86295 12.3155C4.17789 12.8814 4.37673 13.5043 4.44786 14.1477C3.9254 14.0123 3.40399 13.6425 3.05166 13.0332C2.68518 12.4271 2.55716 11.6887 2.62583 11.0027C3.11584 11.2817 3.52822 11.7359 3.86295 12.3155Z" fill="url(#paint58_linear)"/>
<path d="M4.51274 10.1721C4.20596 10.7372 4.11727 11.4098 4.23943 12.0252C4.69873 11.7373 5.09661 11.3034 5.38096 10.7627C5.6553 10.2199 5.79954 9.64481 5.79299 9.0683C5.28917 9.23636 4.81813 9.60417 4.51274 10.1721Z" fill="url(#paint59_linear)"/>
<path d="M3.825 10.1356C4.0669 10.7558 4.15593 11.4022 4.12936 12.0324C3.62761 11.8145 3.18453 11.3719 2.91985 10.7248C2.64517 10.0784 2.62308 9.34243 2.7794 8.6781C3.22456 9.01491 3.58172 9.516 3.825 10.1356V10.1356Z" fill="url(#paint60_linear)"/>
<path d="M4.75602 8.08265C4.38817 8.60785 4.20355 9.26046 4.2422 9.88725C4.73428 9.6665 5.19428 9.2887 5.54074 8.78211C5.8979 8.27482 6.09114 7.71002 6.16465 7.13283C5.63529 7.242 5.13734 7.55746 4.75602 8.08265Z" fill="url(#paint61_linear)"/>
<path d="M4.07863 7.96177C4.24841 8.60682 4.24323 9.25943 4.13177 9.87933C3.66349 9.5928 3.29115 9.09826 3.1055 8.42773C2.93181 7.75579 2.9705 7.0467 3.21627 6.39756C3.61104 6.77914 3.92093 7.31983 4.07863 7.96177V7.96177Z" fill="url(#paint62_linear)"/>
<path d="M5.24741 6.03181C4.81157 6.51258 4.5707 7.14178 4.52274 7.76719C5.04622 7.60842 5.53624 7.28504 5.9462 6.81736C6.34259 6.36381 6.61752 5.81753 6.74541 5.22939C6.22261 5.29 5.67013 5.54691 5.24741 6.03181Z" fill="url(#paint63_linear)"/>
<path d="M4.86574 4.50169C4.62901 5.15603 4.61452 5.83138 4.78706 6.3979C5.25159 5.97493 5.60504 5.44469 5.81644 4.85366C6.05006 4.23342 6.11701 3.60112 6.03591 3.00808C5.54072 3.33181 5.11178 3.85045 4.86574 4.50169V4.50169Z" fill="url(#paint64_linear)"/>
<path d="M4.58763 5.83758C4.6739 6.49261 4.60971 7.14592 4.41405 7.74653C3.99236 7.40627 3.67006 6.87006 3.56688 6.19058C3.4599 5.50869 3.59448 4.79959 3.88815 4.19553C4.25773 4.62017 4.48721 5.17911 4.58763 5.83758Z" fill="url(#paint65_linear)"/>
<path d="M9.51606 22.3686C10.1524 22.3872 10.7974 22.1537 11.276 21.7477C10.8053 21.4873 10.2335 21.3403 9.63857 21.333C9.04399 21.3347 8.49807 21.4384 8.01151 21.6733C8.35314 22.0655 8.8749 22.3469 9.51606 22.3686V22.3686Z" fill="url(#paint66_linear)"/>
<path d="M13.3382 22.3755C13.3382 22.3755 16.1851 23.4073 18.4212 25.6393L17.9443 26.2475C17.9443 26.2475 14.8476 22.6179 13.1008 22.6179C11.354 22.6176 13.3382 22.3755 13.3382 22.3755V22.3755Z" fill="url(#paint67_linear)"/>
<path d="M15.525 22.1664C14.8593 22.1093 14.2099 22.1737 13.6084 22.3755C13.9459 22.7839 14.4904 23.1242 15.1916 23.1969C15.8949 23.2916 16.6358 23.1001 17.2511 22.7461C16.7814 22.4192 16.1931 22.2384 15.525 22.1664Z" fill="url(#paint68_linear)"/>
<path d="M17.5244 21.2893C16.8522 21.343 16.2331 21.5348 15.6641 21.8128C16.0682 22.184 16.6562 22.4034 17.3726 22.3645C18.0907 22.3321 18.796 21.9984 19.3375 21.5255C18.8129 21.3034 18.1928 21.2301 17.5244 21.2893V21.2893Z" fill="url(#paint69_linear)"/>
<path d="M15.3038 21.5152C14.8459 21.9677 14.2123 22.2133 13.588 22.268C13.743 21.7318 14.0698 21.2604 14.5073 20.8374C14.9553 20.4338 15.4435 20.1414 15.9739 19.9933C15.9711 20.2791 15.9103 20.5612 15.7951 20.8228C15.6799 21.0844 15.5128 21.3199 15.3038 21.5152V21.5152Z" fill="url(#paint70_linear)"/>
<path d="M17.1893 20.6894C16.8177 21.2046 16.241 21.5744 15.6271 21.7084C15.7051 21.1763 15.9356 20.6336 16.2911 20.158C16.6531 19.6865 17.0668 19.3166 17.5492 19.0731C17.6535 19.5821 17.5613 20.1666 17.1893 20.6894Z" fill="url(#paint71_linear)"/>
<path d="M19.3326 20.0316C18.6825 20.2193 18.1176 20.5327 17.6072 20.9067C18.0717 21.1966 18.697 21.3041 19.3965 21.1171C20.1008 20.9394 20.7264 20.4614 21.1602 19.8835C20.598 19.7757 19.9769 19.8384 19.3326 20.0316V20.0316Z" fill="url(#paint72_linear)"/>
<path d="M18.8823 19.5115C18.6235 20.0894 18.1314 20.5702 17.5513 20.8116C17.5292 20.2723 17.651 19.701 17.8984 19.1685C18.1548 18.6399 18.4754 18.196 18.8961 17.8616C19.1048 18.3337 19.139 18.9257 18.8823 19.5115Z" fill="url(#paint73_linear)"/>
<path d="M20.8386 18.4212C20.2471 18.746 19.7564 19.1685 19.3357 19.64C19.8492 19.8277 20.4869 19.8029 21.1312 19.4713C21.7848 19.1479 22.2941 18.549 22.5912 17.8967C22.0243 17.9081 21.4293 18.0996 20.8386 18.4212Z" fill="url(#paint74_linear)"/>
<path d="M20.2882 18.0083C20.1564 18.6368 19.7889 19.1912 19.2608 19.558C19.128 19.0346 19.1287 18.4543 19.2553 17.8805C19.3923 17.313 19.6146 16.8115 19.9527 16.39C20.2599 16.8115 20.4169 17.3839 20.2882 18.0083V18.0083Z" fill="url(#paint75_linear)"/>
<path d="M21.9732 16.5357C21.4844 16.963 21.0738 17.4719 20.7599 18.0396C21.302 18.1157 21.92 17.9563 22.478 17.4996C23.0443 17.0509 23.426 16.3735 23.5819 15.6809C23.0315 15.8004 22.488 16.1018 21.9732 16.5357V16.5357Z" fill="url(#paint76_linear)"/>
<path d="M21.3496 16.244C21.359 16.8835 21.0957 17.5158 20.6698 17.9752C20.4296 17.4917 20.3068 16.9238 20.3116 16.3332C20.3265 15.7453 20.4538 15.2046 20.7009 14.7149C21.0856 15.0741 21.3517 15.6069 21.3496 16.244Z" fill="url(#paint77_linear)"/>
<path d="M22.7148 14.4714C22.3122 14.9797 22.0086 15.5587 21.8196 16.1785C22.3607 16.1417 22.9408 15.8672 23.3943 15.3183C23.8598 14.7755 24.1113 14.0537 24.1427 13.3549C23.6223 13.5633 23.1396 13.9507 22.7148 14.4714Z" fill="url(#paint78_linear)"/>
<path d="M22.0484 14.2992C22.1778 14.9274 22.0374 15.5955 21.7185 16.1348C21.38 15.7071 21.1557 15.1771 21.0446 14.5864C20.9469 13.9999 20.9797 13.432 21.1384 12.8969C21.5788 13.1893 21.9314 13.6711 22.0484 14.2992Z" fill="url(#paint79_linear)"/>
<path d="M23.084 12.3155C22.7693 12.8818 22.5704 13.5048 22.4991 14.1484C23.0219 14.012 23.5436 13.6411 23.896 13.0332C24.2621 12.4271 24.3898 11.6894 24.3215 11.0027C23.8318 11.2817 23.4191 11.7352 23.084 12.3155V12.3155Z" fill="url(#paint80_linear)"/>
<path d="M22.398 12.2539C22.6268 12.8559 22.6054 13.534 22.3911 14.1232C21.9777 13.7647 21.6643 13.2805 21.4556 12.7099C21.2613 12.1396 21.1999 11.561 21.2813 10.9993C21.7551 11.2266 22.1823 11.6512 22.398 12.2539V12.2539Z" fill="url(#paint81_linear)"/>
<path d="M23.122 10.1356C22.8801 10.7565 22.7907 11.4022 22.8176 12.0325C23.319 11.8145 23.7624 11.3719 24.0271 10.7248C24.3018 10.0791 24.3242 9.34243 24.1676 8.67879C23.7224 9.01561 23.3649 9.51601 23.122 10.1356V10.1356Z" fill="url(#paint82_linear)"/>
<path d="M22.4346 10.1721C22.741 10.7372 22.8297 11.4098 22.7072 12.0252C22.2489 11.738 21.8507 11.3034 21.566 10.7634C21.292 10.2206 21.1477 9.64411 21.1536 9.06898C21.6574 9.23636 22.1292 9.60348 22.4346 10.1721V10.1721Z" fill="url(#paint83_linear)"/>
<path d="M22.8687 7.96108C22.6992 8.60681 22.7037 9.25978 22.8155 9.88002C23.2835 9.59349 23.6565 9.09826 23.8421 8.42773C24.0155 7.75599 23.9768 7.04722 23.7314 6.39825C23.3359 6.77914 23.026 7.31983 22.8687 7.96108Z" fill="url(#paint84_linear)"/>
<path d="M22.1909 8.08265C22.5588 8.60853 22.7437 9.26115 22.7047 9.88725C22.2123 9.66719 21.7527 9.28939 21.4062 8.78211C21.0497 8.27551 20.8558 7.71002 20.782 7.13351C21.312 7.24269 21.8099 7.55746 22.1909 8.08265Z" fill="url(#paint85_linear)"/>
<path d="M22.36 5.83758C22.2745 6.47878 22.3334 7.13095 22.5326 7.74653C22.9546 7.40627 23.2772 6.87006 23.3797 6.19058C23.4871 5.50903 23.3528 4.80028 23.0581 4.19622C22.6892 4.62016 22.4601 5.17911 22.36 5.83758Z" fill="url(#paint86_linear)"/>
<path d="M21.1498 4.83989C21.3565 5.43398 21.7058 5.96854 22.1671 6.39687C22.3445 5.83104 22.3359 5.15707 22.1047 4.49997C21.8645 3.84495 21.439 3.32148 20.9455 2.99258C20.8596 3.58424 20.921 4.21792 21.1498 4.83989Z" fill="url(#paint87_linear)"/>
<path d="M21.6995 6.03182C22.1357 6.51259 22.3762 7.14179 22.4249 7.76651C21.9011 7.60912 21.4107 7.28505 21.0004 6.81737C20.6045 6.36354 20.3297 5.81736 20.2015 5.22939C20.7247 5.29001 21.2768 5.54623 21.6995 6.03182Z" fill="url(#paint88_linear)"/>
<path d="M13.6087 22.3755C13.6087 22.3755 10.7625 23.4066 8.52603 25.6393L9.00259 26.2468C9.00259 26.2468 12.0994 22.6179 13.8465 22.6179C15.5936 22.6179 13.6087 22.3755 13.6087 22.3755V22.3755Z" fill="url(#paint89_linear)"/>
<path d="M17.4885 17.6284L10.5099 17.6215L10.6549 16.951C10.8478 16.9383 11.267 16.9018 11.4182 16.8394C11.6956 16.7285 11.8178 16.5043 11.8771 16.2309L13.0621 10.7506C13.1211 10.4772 13.0932 10.2661 12.8668 10.1414C12.706 10.0543 12.3606 9.94167 12.1736 9.92961L12.3185 9.2584L18.8643 9.26494L18.3971 11.4274L17.9009 11.427C17.8636 10.8674 17.4385 10.1462 16.9695 10.0712C16.6837 10.0284 16.3951 10.0073 16.1061 10.0081L15.251 10.0074L14.6385 12.8407L14.9763 12.8411C15.5674 12.8414 15.8269 12.6186 15.986 12.4691C16.1848 12.2825 16.4874 11.8107 16.5885 11.4876L17.0844 11.488L16.3183 15.0297L15.8221 15.029C15.879 14.6687 15.7486 14.1467 15.6568 13.9848C15.5578 13.8109 15.3783 13.6118 14.8086 13.6111H14.4708L14.0111 15.7364C13.791 16.7551 13.8831 16.867 14.9494 16.868C15.4563 16.8684 16.1078 16.8818 16.4288 16.5712C16.8418 16.1741 17.5158 15.3544 17.7228 14.9818L18.198 14.9821L17.4885 17.6284V17.6284Z" fill="white"/>
<path d="M10.4588 12.8611C9.34733 12.86 8.78796 12.4605 8.43977 12.2108L7.98495 12.7963L7.47699 12.7956L8.09538 9.59383L8.59264 9.59418C8.7286 10.7782 9.12027 12.05 10.3377 12.051C11.1845 12.0517 11.8109 11.6037 11.9858 10.794C12.1283 10.1338 11.7984 9.89655 11.0641 9.57145C10.6493 9.3841 10.1 9.18435 9.78835 9.00975C8.97223 8.57238 8.69271 7.66284 8.91874 6.61659C9.20965 5.27072 10.5769 4.08843 12.2074 4.09015C13.0121 4.09084 13.6508 4.41525 13.9752 4.67733L14.3793 4.17969L14.898 4.18004L14.2993 7.19516L13.802 7.19482C13.6591 5.8486 13.4745 4.88913 12.3316 4.8881C11.6646 4.88741 11.0783 5.29792 10.9223 6.02045C10.7822 6.66825 11.0803 6.90553 11.8333 7.24269C12.2481 7.43004 12.7764 7.63013 13.1091 7.80473C13.8669 8.21697 14.3224 8.85271 14.0366 10.1731C13.7074 11.6925 12.1736 12.8628 10.4588 12.8611V12.8611Z" fill="white"/>
<path d="M32.4595 9.61347C31.2065 9.61347 30.4784 9.23223 30.025 8.99391L29.655 9.55354H29.0822L28.9987 6.49261H29.5598C30.0012 7.62428 30.7531 8.83928 32.1262 8.83928C33.0807 8.83928 33.6776 8.41052 33.6776 7.63599C33.6776 7.00472 33.248 6.77846 32.3408 6.46851C31.8277 6.29011 31.1592 6.09932 30.7655 5.93264C29.7392 5.51593 29.2019 4.64634 29.2019 3.64555C29.2019 2.35925 30.4549 1.22725 32.2935 1.22725C33.2004 1.22725 34.0003 1.5372 34.4296 1.78688L34.7636 1.31025H35.3489L35.4082 4.19313H34.8475C34.3578 2.90649 33.9164 1.98938 32.6272 1.98938C31.8753 1.98938 31.3145 2.38267 31.3145 3.07317C31.3145 3.69307 31.7079 3.91934 32.6396 4.24065C33.1528 4.41974 33.7974 4.60984 34.2149 4.77687C35.1694 5.16981 35.8379 5.77732 35.8379 7.04054C35.8375 8.49386 34.3937 9.61347 32.4595 9.61347V9.61347Z" fill="url(#paint90_linear)"/>
<path d="M41.2339 9.48261L41.1511 9.39892V8.6726H41.1145C40.7211 9.11342 40.2553 9.60176 39.229 9.60176C38.1189 9.60176 37.546 8.77971 37.546 7.65975V4.99177C37.5222 4.69387 37.4266 4.52684 37.2355 4.39598C37.0926 4.30093 36.8421 4.241 36.6271 4.22895V3.6335L39.5037 3.47852L39.563 3.56221V7.39767C39.563 8.18426 39.7062 8.58926 40.0882 8.58926C40.7449 8.58926 41.0196 8.10023 41.139 7.8626V4.94424C41.1149 4.69387 41.032 4.49137 40.8526 4.36051C40.7332 4.26545 40.5182 4.24135 40.2439 4.22929V3.63384L43.0604 3.47887L43.1439 3.56256V8.04134C43.1678 8.29171 43.2633 8.48215 43.4545 8.61302C43.5974 8.70842 43.7765 8.73218 43.9915 8.74389V9.31592L41.2343 9.48261H41.2339Z" fill="url(#paint91_linear)"/>
<path d="M43.9566 10.8998C44.1784 10.8857 44.3982 10.8499 44.613 10.793C44.84 10.7214 44.9235 10.5072 44.9235 10.2451V4.99177C44.8994 4.74174 44.8041 4.52684 44.613 4.39597C44.4701 4.30092 44.1716 4.22895 43.9566 4.21724V3.62144L46.8449 3.47887L46.9288 3.55015V4.16971L46.9764 4.18142C47.2511 3.88387 47.7525 3.39518 48.5282 3.39518C49.9724 3.39518 50.939 4.75311 50.939 6.54014C50.939 8.20802 49.5783 9.57765 48.1701 9.57765C47.4896 9.57765 47.2511 9.41062 46.9764 9.20847H46.9288V10.1731C46.9288 10.4352 47.0482 10.638 47.2628 10.7214C47.4423 10.7927 47.8716 10.8884 48.0865 10.8998V11.448H43.9566V10.8998V10.8998ZM48.7667 6.5639C48.7667 5.45601 48.5396 4.39597 47.7522 4.39597C47.3105 4.39597 47.1676 4.58676 46.9288 4.90842V8.00517C47.0482 8.36265 47.2749 8.8627 47.7525 8.8627C48.4444 8.8627 48.7667 8.10057 48.7667 6.56425V6.5639Z" fill="url(#paint92_linear)"/>
<path d="M54.5565 9.61347C52.4919 9.61347 51.4294 8.12433 51.4294 6.46851C51.4294 4.95561 52.6109 3.39518 54.425 3.39518C56.3109 3.39518 57.1108 4.66976 57.1108 5.99222V6.52809H53.5537C53.5537 7.83849 53.9239 8.60096 55.1531 8.60096C55.8695 8.60096 56.3823 8.29136 56.7881 7.71933L57.2657 8.10057C56.7888 8.94639 55.7501 9.61347 54.5565 9.61347V9.61347ZM54.3536 4.07431C53.7928 4.07431 53.5775 4.62258 53.5537 5.89682L55.07 5.87306C55.07 4.88432 55.0461 4.07431 54.3536 4.07431V4.07431Z" fill="url(#paint93_linear)"/>
<path d="M62.1372 5.59927C61.552 5.59927 61.0865 5.33685 61.3487 4.43179C60.8121 4.50308 60.4419 4.94424 60.3349 5.11058V8.19562C60.3349 8.4577 60.4539 8.62438 60.6686 8.72012C60.8601 8.80278 61.2656 8.85099 61.4567 8.8627V9.43439H57.4938V8.8627C57.6716 8.85624 57.848 8.82825 58.019 8.77936C58.2458 8.70807 58.3296 8.51762 58.3296 8.25485V5.01588C58.3058 4.76585 58.1985 4.51548 58.0073 4.38461C57.8641 4.28921 57.6253 4.22964 57.4103 4.21758V3.62179L60.2514 3.47921L60.3352 3.56255V4.36085H60.359C60.8604 3.74129 61.3732 3.41963 61.9581 3.41963C62.5907 3.41963 63.0324 3.88421 63.0324 4.563C63.0324 5.13469 62.6738 5.59962 62.1372 5.59962V5.59927Z" fill="url(#paint94_linear)"/>
</g>
<defs>
<linearGradient id="paint0_linear" x1="22.3127" y1="0.907226" x2="22.5838" y2="30.7705" gradientUnits="userSpaceOnUse">
<stop stop-color="#004B03"/>
<stop offset="0.597" stop-color="#004A03" stop-opacity="0.973"/>
<stop offset="1" stop-color="#004B03" stop-opacity="0"/>
</linearGradient>
<linearGradient id="paint1_linear" x1="13.8355" y1="2.93407" x2="13.2924" y2="26.7163" gradientUnits="userSpaceOnUse">
<stop stop-color="#FF6200"/>
<stop offset="1" stop-color="#FFC400"/>
</linearGradient>
<linearGradient id="paint2_linear" x1="13.8355" y1="2.93408" x2="13.2925" y2="26.7163" gradientUnits="userSpaceOnUse">
<stop stop-color="#FF6200"/>
<stop offset="1" stop-color="#FFC400"/>
</linearGradient>
<linearGradient id="paint3_linear" x1="13.8355" y1="2.93405" x2="13.2925" y2="26.7163" gradientUnits="userSpaceOnUse">
<stop stop-color="#FF6200"/>
<stop offset="1" stop-color="#FFC400"/>
</linearGradient>
<linearGradient id="paint4_linear" x1="13.8355" y1="2.93406" x2="13.2925" y2="26.7163" gradientUnits="userSpaceOnUse">
<stop stop-color="#FF6200"/>
<stop offset="1" stop-color="#FFC400"/>
</linearGradient>
<linearGradient id="paint5_linear" x1="13.8355" y1="2.93408" x2="13.2925" y2="26.7163" gradientUnits="userSpaceOnUse">
<stop stop-color="#FF6200"/>
<stop offset="1" stop-color="#FFC400"/>
</linearGradient>
<linearGradient id="paint6_linear" x1="13.8355" y1="2.93408" x2="13.2924" y2="26.7163" gradientUnits="userSpaceOnUse">
<stop stop-color="#FF6200"/>
<stop offset="1" stop-color="#FFC400"/>
</linearGradient>
<linearGradient id="paint7_linear" x1="13.8354" y1="2.93404" x2="13.2924" y2="26.7163" gradientUnits="userSpaceOnUse">
<stop stop-color="#FF6200"/>
<stop offset="1" stop-color="#FFC400"/>
</linearGradient>
<linearGradient id="paint8_linear" x1="13.8355" y1="2.93407" x2="13.2924" y2="26.7163" gradientUnits="userSpaceOnUse">
<stop stop-color="#FF6200"/>
<stop offset="1" stop-color="#FFC400"/>
</linearGradient>
<linearGradient id="paint9_linear" x1="13.8355" y1="2.93408" x2="13.2925" y2="26.7163" gradientUnits="userSpaceOnUse">
<stop stop-color="#FF6200"/>
<stop offset="1" stop-color="#FFC400"/>
</linearGradient>
<linearGradient id="paint10_linear" x1="13.8355" y1="2.93407" x2="13.2925" y2="26.7163" gradientUnits="userSpaceOnUse">
<stop stop-color="#FF6200"/>
<stop offset="1" stop-color="#FFC400"/>
</linearGradient>
<linearGradient id="paint11_linear" x1="13.8355" y1="2.93406" x2="13.2924" y2="26.7163" gradientUnits="userSpaceOnUse">
<stop stop-color="#FF6200"/>
<stop offset="1" stop-color="#FFC400"/>
</linearGradient>
<linearGradient id="paint12_linear" x1="13.8355" y1="2.93407" x2="13.2925" y2="26.7163" gradientUnits="userSpaceOnUse">
<stop stop-color="#FF6200"/>
<stop offset="1" stop-color="#FFC400"/>
</linearGradient>
<linearGradient id="paint13_linear" x1="13.8355" y1="2.93406" x2="13.2925" y2="26.7163" gradientUnits="userSpaceOnUse">
<stop stop-color="#FF6200"/>
<stop offset="1" stop-color="#FFC400"/>
</linearGradient>
<linearGradient id="paint14_linear" x1="13.8355" y1="2.93406" x2="13.2924" y2="26.7163" gradientUnits="userSpaceOnUse">
<stop stop-color="#FF6200"/>
<stop offset="1" stop-color="#FFC400"/>
</linearGradient>
<linearGradient id="paint15_linear" x1="13.8355" y1="2.93406" x2="13.2924" y2="26.7163" gradientUnits="userSpaceOnUse">
<stop stop-color="#FF6200"/>
<stop offset="1" stop-color="#FFC400"/>
</linearGradient>
<linearGradient id="paint16_linear" x1="13.8355" y1="2.93406" x2="13.2925" y2="26.7163" gradientUnits="userSpaceOnUse">
<stop stop-color="#FF6200"/>
<stop offset="1" stop-color="#FFC400"/>
</linearGradient>
<linearGradient id="paint17_linear" x1="13.8355" y1="2.93406" x2="13.2924" y2="26.7163" gradientUnits="userSpaceOnUse">
<stop stop-color="#FF6200"/>
<stop offset="1" stop-color="#FFC400"/>
</linearGradient>
<linearGradient id="paint18_linear" x1="13.8354" y1="2.93406" x2="13.2924" y2="26.7163" gradientUnits="userSpaceOnUse">
<stop stop-color="#FF6200"/>
<stop offset="1" stop-color="#FFC400"/>
</linearGradient>
<linearGradient id="paint19_linear" x1="13.8355" y1="2.93406" x2="13.2924" y2="26.7163" gradientUnits="userSpaceOnUse">
<stop stop-color="#FF6200"/>
<stop offset="1" stop-color="#FFC400"/>
</linearGradient>
<linearGradient id="paint20_linear" x1="13.8355" y1="2.93406" x2="13.2924" y2="26.7163" gradientUnits="userSpaceOnUse">
<stop stop-color="#FF6200"/>
<stop offset="1" stop-color="#FFC400"/>
</linearGradient>
<linearGradient id="paint21_linear" x1="-2.18923" y1="8.43675" x2="16.3673" y2="23.2212" gradientUnits="userSpaceOnUse">
<stop stop-color="#FF6200"/>
<stop offset="1" stop-color="#FFC400"/>
</linearGradient>
<linearGradient id="paint22_linear" x1="13.8354" y1="2.93406" x2="13.2924" y2="26.7163" gradientUnits="userSpaceOnUse">
<stop stop-color="#FF6200"/>
<stop offset="1" stop-color="#FFC400"/>
</linearGradient>
<linearGradient id="paint23_linear" x1="13.8355" y1="2.9341" x2="13.2925" y2="26.7163" gradientUnits="userSpaceOnUse">
<stop stop-color="#FF6200"/>
<stop offset="1" stop-color="#FFC400"/>
</linearGradient>
<linearGradient id="paint24_linear" x1="13.8355" y1="2.93408" x2="13.2925" y2="26.7163" gradientUnits="userSpaceOnUse">
<stop stop-color="#FF6200"/>
<stop offset="1" stop-color="#FFC400"/>
</linearGradient>
<linearGradient id="paint25_linear" x1="13.8355" y1="2.93408" x2="13.2924" y2="26.7163" gradientUnits="userSpaceOnUse">
<stop stop-color="#FF6200"/>
<stop offset="1" stop-color="#FFC400"/>
</linearGradient>
<linearGradient id="paint26_linear" x1="13.8354" y1="2.93407" x2="13.2924" y2="26.7163" gradientUnits="userSpaceOnUse">
<stop stop-color="#FF6200"/>
<stop offset="1" stop-color="#FFC400"/>
</linearGradient>
<linearGradient id="paint27_linear" x1="13.8355" y1="2.93404" x2="13.2925" y2="26.7163" gradientUnits="userSpaceOnUse">
<stop stop-color="#FF6200"/>
<stop offset="1" stop-color="#FFC400"/>
</linearGradient>
<linearGradient id="paint28_linear" x1="13.8354" y1="2.93406" x2="13.2924" y2="26.7163" gradientUnits="userSpaceOnUse">
<stop stop-color="#FF6200"/>
<stop offset="1" stop-color="#FFC400"/>
</linearGradient>
<linearGradient id="paint29_linear" x1="13.8355" y1="2.93409" x2="13.2924" y2="26.7163" gradientUnits="userSpaceOnUse">
<stop stop-color="#FF6200"/>
<stop offset="1" stop-color="#FFC400"/>
</linearGradient>
<linearGradient id="paint30_linear" x1="13.8354" y1="2.93407" x2="13.2924" y2="26.7163" gradientUnits="userSpaceOnUse">
<stop stop-color="#FF6200"/>
<stop offset="1" stop-color="#FFC400"/>
</linearGradient>
<linearGradient id="paint31_linear" x1="13.8354" y1="2.93405" x2="13.2924" y2="26.7163" gradientUnits="userSpaceOnUse">
<stop stop-color="#FF6200"/>
<stop offset="1" stop-color="#FFC400"/>
</linearGradient>
<linearGradient id="paint32_linear" x1="13.8354" y1="2.93407" x2="13.2924" y2="26.7163" gradientUnits="userSpaceOnUse">
<stop stop-color="#FF6200"/>
<stop offset="1" stop-color="#FFC400"/>
</linearGradient>
<linearGradient id="paint33_linear" x1="13.8354" y1="2.93407" x2="13.2924" y2="26.7163" gradientUnits="userSpaceOnUse">
<stop stop-color="#FF6200"/>
<stop offset="1" stop-color="#FFC400"/>
</linearGradient>
<linearGradient id="paint34_linear" x1="13.8354" y1="2.93407" x2="13.2924" y2="26.7163" gradientUnits="userSpaceOnUse">
<stop stop-color="#FF6200"/>
<stop offset="1" stop-color="#FFC400"/>
</linearGradient>
<linearGradient id="paint35_linear" x1="13.8355" y1="2.93406" x2="13.2925" y2="26.7163" gradientUnits="userSpaceOnUse">
<stop stop-color="#FF6200"/>
<stop offset="1" stop-color="#FFC400"/>
</linearGradient>
<linearGradient id="paint36_linear" x1="13.8354" y1="2.93407" x2="13.2924" y2="26.7163" gradientUnits="userSpaceOnUse">
<stop stop-color="#FF6200"/>
<stop offset="1" stop-color="#FFC400"/>
</linearGradient>
<linearGradient id="paint37_linear" x1="13.8354" y1="2.93406" x2="13.2924" y2="26.7163" gradientUnits="userSpaceOnUse">
<stop stop-color="#FF6200"/>
<stop offset="1" stop-color="#FFC400"/>
</linearGradient>
<linearGradient id="paint38_linear" x1="13.8355" y1="2.93406" x2="13.2924" y2="26.7163" gradientUnits="userSpaceOnUse">
<stop stop-color="#FF6200"/>
<stop offset="1" stop-color="#FFC400"/>
</linearGradient>
<linearGradient id="paint39_linear" x1="13.8355" y1="2.93406" x2="13.2925" y2="26.7163" gradientUnits="userSpaceOnUse">
<stop stop-color="#FF6200"/>
<stop offset="1" stop-color="#FFC400"/>
</linearGradient>
<linearGradient id="paint40_linear" x1="13.8355" y1="2.93407" x2="13.2925" y2="26.7163" gradientUnits="userSpaceOnUse">
<stop stop-color="#FF6200"/>
<stop offset="1" stop-color="#FFC400"/>
</linearGradient>
<linearGradient id="paint41_linear" x1="13.8355" y1="2.93406" x2="13.2925" y2="26.7163" gradientUnits="userSpaceOnUse">
<stop stop-color="#FF6200"/>
<stop offset="1" stop-color="#FFC400"/>
</linearGradient>
<linearGradient id="paint42_linear" x1="13.8355" y1="2.93406" x2="13.2924" y2="26.7163" gradientUnits="userSpaceOnUse">
<stop stop-color="#FF6200"/>
<stop offset="1" stop-color="#FFC400"/>
</linearGradient>
<linearGradient id="paint43_linear" x1="13.8355" y1="2.93406" x2="13.2924" y2="26.7163" gradientUnits="userSpaceOnUse">
<stop stop-color="#FF6200"/>
<stop offset="1" stop-color="#FFC400"/>
</linearGradient>
<linearGradient id="paint44_linear" x1="13.8354" y1="2.93406" x2="13.2924" y2="26.7163" gradientUnits="userSpaceOnUse">
<stop stop-color="#FF6200"/>
<stop offset="1" stop-color="#FFC400"/>
</linearGradient>
<linearGradient id="paint45_linear" x1="22.2683" y1="0.899502" x2="22.5354" y2="30.516" gradientUnits="userSpaceOnUse">
<stop stop-color="#004B03"/>
<stop offset="0.597" stop-color="#004A03" stop-opacity="0.973"/>
<stop offset="1" stop-color="#004B03" stop-opacity="0"/>
</linearGradient>
<linearGradient id="paint46_linear" x1="13.8078" y1="2.90957" x2="13.2727" y2="26.4955" gradientUnits="userSpaceOnUse">
<stop stop-color="#FF6200"/>
<stop offset="1" stop-color="#FFC400"/>
</linearGradient>
<linearGradient id="paint47_linear" x1="13.8079" y1="2.90956" x2="13.2727" y2="26.4955" gradientUnits="userSpaceOnUse">
<stop stop-color="#FF6200"/>
<stop offset="1" stop-color="#FFC400"/>
</linearGradient>
<linearGradient id="paint48_linear" x1="13.8079" y1="2.90961" x2="13.2727" y2="26.4955" gradientUnits="userSpaceOnUse">
<stop stop-color="#FF6200"/>
<stop offset="1" stop-color="#FFC400"/>
</linearGradient>
<linearGradient id="paint49_linear" x1="13.8079" y1="2.90957" x2="13.2727" y2="26.4955" gradientUnits="userSpaceOnUse">
<stop stop-color="#FF6200"/>
<stop offset="1" stop-color="#FFC400"/>
</linearGradient>
<linearGradient id="paint50_linear" x1="13.8078" y1="2.90959" x2="13.2727" y2="26.4955" gradientUnits="userSpaceOnUse">
<stop stop-color="#FF6200"/>
<stop offset="1" stop-color="#FFC400"/>
</linearGradient>
<linearGradient id="paint51_linear" x1="13.8079" y1="2.90958" x2="13.2727" y2="26.4955" gradientUnits="userSpaceOnUse">
<stop stop-color="#FF6200"/>
<stop offset="1" stop-color="#FFC400"/>
</linearGradient>
<linearGradient id="paint52_linear" x1="13.8079" y1="2.90962" x2="13.2727" y2="26.4954" gradientUnits="userSpaceOnUse">
<stop stop-color="#FF6200"/>
<stop offset="1" stop-color="#FFC400"/>
</linearGradient>
<linearGradient id="paint53_linear" x1="13.8079" y1="2.90959" x2="13.2727" y2="26.4955" gradientUnits="userSpaceOnUse">
<stop stop-color="#FF6200"/>
<stop offset="1" stop-color="#FFC400"/>
</linearGradient>
<linearGradient id="paint54_linear" x1="13.8079" y1="2.90957" x2="13.2727" y2="26.4955" gradientUnits="userSpaceOnUse">
<stop stop-color="#FF6200"/>
<stop offset="1" stop-color="#FFC400"/>
</linearGradient>
<linearGradient id="paint55_linear" x1="13.8079" y1="2.90958" x2="13.2727" y2="26.4955" gradientUnits="userSpaceOnUse">
<stop stop-color="#FF6200"/>
<stop offset="1" stop-color="#FFC400"/>
</linearGradient>
<linearGradient id="paint56_linear" x1="13.8079" y1="2.90958" x2="13.2727" y2="26.4955" gradientUnits="userSpaceOnUse">
<stop stop-color="#FF6200"/>
<stop offset="1" stop-color="#FFC400"/>
</linearGradient>
<linearGradient id="paint57_linear" x1="13.8079" y1="2.90958" x2="13.2727" y2="26.4955" gradientUnits="userSpaceOnUse">
<stop stop-color="#FF6200"/>
<stop offset="1" stop-color="#FFC400"/>
</linearGradient>
<linearGradient id="paint58_linear" x1="13.8079" y1="2.90958" x2="13.2727" y2="26.4955" gradientUnits="userSpaceOnUse">
<stop stop-color="#FF6200"/>
<stop offset="1" stop-color="#FFC400"/>
</linearGradient>
<linearGradient id="paint59_linear" x1="13.8079" y1="2.90959" x2="13.2727" y2="26.4955" gradientUnits="userSpaceOnUse">
<stop stop-color="#FF6200"/>
<stop offset="1" stop-color="#FFC400"/>
</linearGradient>
<linearGradient id="paint60_linear" x1="13.8079" y1="2.90958" x2="13.2727" y2="26.4955" gradientUnits="userSpaceOnUse">
<stop stop-color="#FF6200"/>
<stop offset="1" stop-color="#FFC400"/>
</linearGradient>
<linearGradient id="paint61_linear" x1="13.8079" y1="2.90958" x2="13.2727" y2="26.4955" gradientUnits="userSpaceOnUse">
<stop stop-color="#FF6200"/>
<stop offset="1" stop-color="#FFC400"/>
</linearGradient>
<linearGradient id="paint62_linear" x1="13.8079" y1="2.90959" x2="13.2727" y2="26.4955" gradientUnits="userSpaceOnUse">
<stop stop-color="#FF6200"/>
<stop offset="1" stop-color="#FFC400"/>
</linearGradient>
<linearGradient id="paint63_linear" x1="13.8079" y1="2.90958" x2="13.2727" y2="26.4955" gradientUnits="userSpaceOnUse">
<stop stop-color="#FF6200"/>
<stop offset="1" stop-color="#FFC400"/>
</linearGradient>
<linearGradient id="paint64_linear" x1="13.8079" y1="2.90958" x2="13.2727" y2="26.4955" gradientUnits="userSpaceOnUse">
<stop stop-color="#FF6200"/>
<stop offset="1" stop-color="#FFC400"/>
</linearGradient>
<linearGradient id="paint65_linear" x1="13.8079" y1="2.90958" x2="13.2727" y2="26.4955" gradientUnits="userSpaceOnUse">
<stop stop-color="#FF6200"/>
<stop offset="1" stop-color="#FFC400"/>
</linearGradient>
<linearGradient id="paint66_linear" x1="-2.1852" y1="8.36636" x2="16.2437" y2="23.142" gradientUnits="userSpaceOnUse">
<stop stop-color="#FF6200"/>
<stop offset="1" stop-color="#FFC400"/>
</linearGradient>
<linearGradient id="paint67_linear" x1="13.8079" y1="2.90957" x2="13.2727" y2="26.4955" gradientUnits="userSpaceOnUse">
<stop stop-color="#FF6200"/>
<stop offset="1" stop-color="#FFC400"/>
</linearGradient>
<linearGradient id="paint68_linear" x1="13.8079" y1="2.90961" x2="13.2727" y2="26.4955" gradientUnits="userSpaceOnUse">
<stop stop-color="#FF6200"/>
<stop offset="1" stop-color="#FFC400"/>
</linearGradient>
<linearGradient id="paint69_linear" x1="13.8079" y1="2.90961" x2="13.2727" y2="26.4955" gradientUnits="userSpaceOnUse">
<stop stop-color="#FF6200"/>
<stop offset="1" stop-color="#FFC400"/>
</linearGradient>
<linearGradient id="paint70_linear" x1="13.8079" y1="2.90958" x2="13.2727" y2="26.4955" gradientUnits="userSpaceOnUse">
<stop stop-color="#FF6200"/>
<stop offset="1" stop-color="#FFC400"/>
</linearGradient>
<linearGradient id="paint71_linear" x1="13.8079" y1="2.9096" x2="13.2727" y2="26.4955" gradientUnits="userSpaceOnUse">
<stop stop-color="#FF6200"/>
<stop offset="1" stop-color="#FFC400"/>
</linearGradient>
<linearGradient id="paint72_linear" x1="13.8079" y1="2.90963" x2="13.2727" y2="26.4954" gradientUnits="userSpaceOnUse">
<stop stop-color="#FF6200"/>
<stop offset="1" stop-color="#FFC400"/>
</linearGradient>
<linearGradient id="paint73_linear" x1="13.8078" y1="2.90961" x2="13.2727" y2="26.4954" gradientUnits="userSpaceOnUse">
<stop stop-color="#FF6200"/>
<stop offset="1" stop-color="#FFC400"/>
</linearGradient>
<linearGradient id="paint74_linear" x1="13.8079" y1="2.9096" x2="13.2727" y2="26.4955" gradientUnits="userSpaceOnUse">
<stop stop-color="#FF6200"/>
<stop offset="1" stop-color="#FFC400"/>
</linearGradient>
<linearGradient id="paint75_linear" x1="13.8079" y1="2.90959" x2="13.2727" y2="26.4955" gradientUnits="userSpaceOnUse">
<stop stop-color="#FF6200"/>
<stop offset="1" stop-color="#FFC400"/>
</linearGradient>
<linearGradient id="paint76_linear" x1="13.8078" y1="2.90958" x2="13.2727" y2="26.4955" gradientUnits="userSpaceOnUse">
<stop stop-color="#FF6200"/>
<stop offset="1" stop-color="#FFC400"/>
</linearGradient>
<linearGradient id="paint77_linear" x1="13.8079" y1="2.90959" x2="13.2727" y2="26.4955" gradientUnits="userSpaceOnUse">
<stop stop-color="#FF6200"/>
<stop offset="1" stop-color="#FFC400"/>
</linearGradient>
<linearGradient id="paint78_linear" x1="13.8079" y1="2.90959" x2="13.2727" y2="26.4955" gradientUnits="userSpaceOnUse">
<stop stop-color="#FF6200"/>
<stop offset="1" stop-color="#FFC400"/>
</linearGradient>
<linearGradient id="paint79_linear" x1="13.8078" y1="2.90959" x2="13.2727" y2="26.4955" gradientUnits="userSpaceOnUse">
<stop stop-color="#FF6200"/>
<stop offset="1" stop-color="#FFC400"/>
</linearGradient>
<linearGradient id="paint80_linear" x1="13.8079" y1="2.90959" x2="13.2727" y2="26.4955" gradientUnits="userSpaceOnUse">
<stop stop-color="#FF6200"/>
<stop offset="1" stop-color="#FFC400"/>
</linearGradient>
<linearGradient id="paint81_linear" x1="13.8079" y1="2.90958" x2="13.2727" y2="26.4955" gradientUnits="userSpaceOnUse">
<stop stop-color="#FF6200"/>
<stop offset="1" stop-color="#FFC400"/>
</linearGradient>
<linearGradient id="paint82_linear" x1="13.8079" y1="2.90959" x2="13.2727" y2="26.4955" gradientUnits="userSpaceOnUse">
<stop stop-color="#FF6200"/>
<stop offset="1" stop-color="#FFC400"/>
</linearGradient>
<linearGradient id="paint83_linear" x1="13.8079" y1="2.90959" x2="13.2727" y2="26.4955" gradientUnits="userSpaceOnUse">
<stop stop-color="#FF6200"/>
<stop offset="1" stop-color="#FFC400"/>
</linearGradient>
<linearGradient id="paint84_linear" x1="13.8079" y1="2.90959" x2="13.2727" y2="26.4955" gradientUnits="userSpaceOnUse">
<stop stop-color="#FF6200"/>
<stop offset="1" stop-color="#FFC400"/>
</linearGradient>
<linearGradient id="paint85_linear" x1="13.8078" y1="2.90958" x2="13.2727" y2="26.4955" gradientUnits="userSpaceOnUse">
<stop stop-color="#FF6200"/>
<stop offset="1" stop-color="#FFC400"/>
</linearGradient>
<linearGradient id="paint86_linear" x1="13.8079" y1="2.90958" x2="13.2727" y2="26.4955" gradientUnits="userSpaceOnUse">
<stop stop-color="#FF6200"/>
<stop offset="1" stop-color="#FFC400"/>
</linearGradient>
<linearGradient id="paint87_linear" x1="13.8079" y1="2.90959" x2="13.2727" y2="26.4955" gradientUnits="userSpaceOnUse">
<stop stop-color="#FF6200"/>
<stop offset="1" stop-color="#FFC400"/>
</linearGradient>
<linearGradient id="paint88_linear" x1="13.8079" y1="2.90959" x2="13.2727" y2="26.4955" gradientUnits="userSpaceOnUse">
<stop stop-color="#FF6200"/>
<stop offset="1" stop-color="#FFC400"/>
</linearGradient>
<linearGradient id="paint89_linear" x1="13.8079" y1="2.90957" x2="13.2727" y2="26.4955" gradientUnits="userSpaceOnUse">
<stop stop-color="#FF6200"/>
<stop offset="1" stop-color="#FFC400"/>
</linearGradient>
<linearGradient id="paint90_linear" x1="35.835" y1="0.712204" x2="35.6035" y2="12.9973" gradientUnits="userSpaceOnUse">
<stop stop-color="#FF6200"/>
<stop offset="1" stop-color="#FFC400"/>
</linearGradient>
<linearGradient id="paint91_linear" x1="35.835" y1="0.712206" x2="35.6035" y2="12.9973" gradientUnits="userSpaceOnUse">
<stop stop-color="#FF6200"/>
<stop offset="1" stop-color="#FFC400"/>
</linearGradient>
<linearGradient id="paint92_linear" x1="35.835" y1="0.712206" x2="35.6035" y2="12.9973" gradientUnits="userSpaceOnUse">
<stop stop-color="#FF6200"/>
<stop offset="1" stop-color="#FFC400"/>
</linearGradient>
<linearGradient id="paint93_linear" x1="35.835" y1="0.712206" x2="35.6036" y2="12.9973" gradientUnits="userSpaceOnUse">
<stop stop-color="#FF6200"/>
<stop offset="1" stop-color="#FFC400"/>
</linearGradient>
<linearGradient id="paint94_linear" x1="35.835" y1="0.712206" x2="35.6035" y2="12.9973" gradientUnits="userSpaceOnUse">
<stop stop-color="#FF6200"/>
<stop offset="1" stop-color="#FFC400"/>
</linearGradient>
<clipPath id="clip0">
<rect width="120" height="30.7438" fill="white"/>
</clipPath>
</defs>
</svg>
