<svg width="33" height="20" viewBox="0 0 33 20" fill="none" xmlns="http://www.w3.org/2000/svg">
<path fill-rule="evenodd" clip-rule="evenodd" d="M16.2496 0.0272217C21.7486 0.0272217 26.2331 4.5072 26.2331 9.99941C26.2331 15.4927 21.7486 19.9727 16.2496 19.9727C10.7517 19.9727 6.26611 15.4927 6.26611 9.99941C6.26611 4.5072 10.7506 0.0272217 16.2496 0.0272217V0.0272217Z" fill="url(#paint0_radial)"/>
<path opacity="0.25" d="M25.413 8.73669C25.413 13.4977 21.346 17.3559 16.3289 17.3559C11.3117 17.3559 7.24365 13.4965 7.24365 8.73669C7.24365 3.97572 11.3117 0.116394 16.3289 0.116394C21.3449 0.116394 25.413 3.97572 25.413 8.73669Z" fill="url(#paint1_radial)"/>
<path d="M29.1074 6.06334L25.5178 6.52488L25.564 6.81264C25.5697 6.84424 25.5968 6.86793 25.6295 6.86568C25.7784 6.85778 26.1858 6.84875 26.3856 6.96837C26.6327 7.11619 26.5119 7.6082 26.5119 7.6082L25.0833 11.92C25.0833 11.92 24.8971 12.438 24.9682 12.8928C24.6861 13.009 24.0474 13.2505 23.6186 13.2505C23.0543 13.2505 22.8309 13.0282 22.6221 12.7337C22.4134 12.438 22.533 12.0182 22.533 12.0182L24.2054 6.482C24.2246 6.41768 24.176 6.35223 24.1083 6.35223H21.7397C21.69 6.35223 21.646 6.38157 21.6257 6.42783L21.1473 7.55968C21.1473 7.55968 20.9949 7.31367 20.8821 7.18954C20.7692 7.06654 20.5954 6.84424 20.2298 6.64788C19.8642 6.4504 19.2729 6.2044 18.5597 6.15588C17.8465 6.10622 17.1717 6.1807 16.059 6.45153C14.9441 6.72236 14.0594 7.28885 13.3485 7.88016C12.6364 8.47147 12.2505 9.35844 12.0824 9.80193C11.9142 10.2454 11.9627 11.0827 11.9627 11.0827C11.9627 11.0827 11.6061 11.5996 11.3714 11.8963C11.1367 12.192 10.7835 12.5373 10.5634 12.5373C10.3423 12.5373 10.3253 12.1683 10.3919 11.8963C10.4551 11.6402 11.6434 6.95708 11.772 6.44702C11.7777 6.42332 11.7596 6.40188 11.7359 6.40301L9.28265 6.42671C9.26233 6.42671 9.24541 6.44025 9.23976 6.46056L8.58413 8.94091C8.58413 8.94091 7.93075 10.0739 7.60801 10.4688C7.28527 10.8627 6.8542 11.3806 6.54726 11.7011C6.24032 12.0216 5.96272 12.1694 5.76975 12.1931C5.57679 12.218 5.38608 12.0453 5.46394 11.6503C5.53052 11.3186 6.4694 7.6003 6.76054 6.44702L6.79552 6.31047C6.82035 6.21343 6.7391 6.12089 6.6398 6.13331L3.06935 6.57566L3.05017 6.76524C3.04227 6.84762 3.10208 6.92097 3.18446 6.92661C3.29053 6.93564 3.44287 6.9537 3.60424 6.99319C3.90554 7.06654 3.95971 7.55968 3.87846 7.92981C3.79721 8.29882 3.01632 11.2057 2.87752 11.7237C2.73872 12.2417 2.69696 12.7585 2.86849 12.9797C3.04001 13.202 3.3368 13.6703 4.24634 13.694C5.157 13.7188 5.70656 13.1523 6.2911 12.684C6.87564 12.2168 8.11808 10.6392 8.11808 10.6392C8.11808 10.6392 7.8653 11.6492 7.77954 12.1909C7.69378 12.7337 7.82016 13.2008 8.08761 13.3983C8.35505 13.5947 8.76468 13.7436 9.44289 13.6692C10.1211 13.5947 10.7677 13.2505 11.2371 12.8555C11.7054 12.4617 12.0981 11.6233 12.0981 11.6233C12.0981 11.6233 12.2663 12.0171 12.4423 12.2642C12.6184 12.5114 12.9118 12.9289 13.5381 13.2505C14.1644 13.571 15.0637 13.9163 16.1708 13.94C17.2778 13.9648 17.7483 13.7922 18.6071 13.3983C19.467 13.0045 20.0842 12.2405 20.0842 12.2405C20.0842 12.2405 20.1599 12.6592 20.3889 12.93C20.618 13.202 20.9769 13.5213 21.663 13.7188C22.3502 13.9163 23.0521 14.0393 23.8307 13.9896C24.5191 13.9456 25.3068 13.633 25.4805 13.5608C25.5844 13.6116 25.6893 13.6455 25.7796 13.6692C26.0617 13.7436 26.6564 13.7673 26.9769 13.6195C27.2985 13.4717 27.8097 13.1275 28.1042 12.807C28.3604 12.5283 28.8343 11.7305 28.9551 11.5251C28.9709 11.498 28.9596 11.4653 28.9325 11.4517L28.7519 11.3615C28.7158 11.3434 28.6729 11.3558 28.6515 11.3897C28.5398 11.5702 28.2001 12.1119 28.0275 12.315C27.8198 12.561 27.663 12.6603 27.4136 12.4877C27.1642 12.315 27.2714 11.8963 27.2714 11.8963L29.139 6.1051C29.148 6.0814 29.13 6.05996 29.1074 6.06334V6.06334ZM20.3449 8.96348C20.2298 9.82562 19.643 11.0331 19.1646 11.7226C18.685 12.412 18.123 12.8307 17.6265 12.9785C17.1288 13.1264 16.5273 13.2257 15.7792 12.9052C15.0299 12.5847 14.8561 11.9437 15.0457 10.8604C15.2353 9.77597 15.9135 8.53354 16.3434 8.00316C16.9742 7.22227 18.4096 6.57792 19.5053 7.09137C20.0346 7.33963 20.4589 8.10134 20.3449 8.96348V8.96348Z" fill="#FFD31A"/>
<path d="M28.6807 3.45435C28.0364 3.49498 27.462 3.99714 27.4011 4.5704C27.3413 5.14478 27.8164 5.57924 28.4607 5.53862C29.105 5.49799 29.6794 4.99583 29.7392 4.42257C29.8002 3.84819 29.3251 3.41373 28.6807 3.45435V3.45435Z" fill="#FFD31A"/>
<defs>
<radialGradient id="paint0_radial" cx="0" cy="0" r="1" gradientUnits="userSpaceOnUse" gradientTransform="translate(15.6783 8.85751) scale(13.0274)">
<stop stop-color="#0086C9"/>
<stop offset="0.261" stop-color="#0182C6"/>
<stop offset="0.5183" stop-color="#0276BD"/>
<stop offset="0.7734" stop-color="#0563AD"/>
<stop offset="0.9857" stop-color="#084C9C"/>
</radialGradient>
<radialGradient id="paint1_radial" cx="0" cy="0" r="1" gradientUnits="userSpaceOnUse" gradientTransform="translate(16.2715 10.1909) scale(10.9021 10.3444)">
<stop offset="0.2796" stop-color="#0053A2"/>
<stop offset="0.4293" stop-color="#0057A5"/>
<stop offset="0.5652" stop-color="#0062AF"/>
<stop offset="0.6951" stop-color="#0074BF"/>
<stop offset="0.8011" stop-color="#0089D1"/>
<stop offset="1" stop-color="white"/>
</radialGradient>
</defs>
</svg>
