<svg xmlns="http://www.w3.org/2000/svg" width="102" height="30" viewBox="0 0 102 30">
    <defs>
        <linearGradient id="7x7qmlkg3a" x1="50%" x2="50%" y1="100%" y2="0%">
            <stop offset="0%" stop-color="#B52614"/>
            <stop offset="18.17%" stop-color="#BA3D12"/>
            <stop offset="35.31%" stop-color="#BB4312"/>
            <stop offset="52.04%" stop-color="#C1560F"/>
            <stop offset="68.52%" stop-color="#C7670A"/>
            <stop offset="84.65%" stop-color="#CF7C01"/>
            <stop offset="100%" stop-color="#E4B023"/>
        </linearGradient>
    </defs>
    <g fill="none" fill-rule="evenodd">
        <g fill="url(#7x7qmlkg3a)" fill-rule="nonzero">
            <path d="M101.741 1.975c-.94-1.61-2.8-2.243-4.555-1.872-17.38 3.7-25.31 5.202-41.018 8.336-1.11 3.03-2.234 6.098-3.367 9.211-1.463 4.019-2.933 8.11-4.439 12.275h10.766c1.111-3.297 2.211-6.552 3.3-9.759 1.082-3.189 1.656-4.358 2.719-7.461.411-1.206 1.235-1.885 2.493-2.045 1.433-.181 1.952.335 1.55 1.539-1.06 3.187-1.638 4.436-2.729 7.71-1.095 3.29-2.193 6.63-3.314 10.016h12.474c1.126-3.693 2.224-7.328 3.311-10.91 1.079-3.555 1.655-5.082 2.71-8.537.41-1.34 1.384-2.105 2.917-2.297 1.787-.225 2.51.329 2.11 1.677-1.056 3.55-1.613 5.185-2.693 8.837-1.091 3.688-2.195 7.43-3.309 11.23h14.985c1.102-4.264 2.184-8.464 3.249-12.593 1.052-4.075 2.079-7.305 3.1-11.26.436-1.695.345-3.064-.26-4.097zM54.44 8.695c-2.952.549-8.868 1.511-8.868 1.511s-1.422 3.639-2.133 5.482l-3.123 8.11c-.417 1.08-1.073 1.634-1.973 1.663-.962.032-1.247-.472-.843-1.509 1.043-2.681 2.076-5.34 3.104-7.96.716-1.823 1.428-3.632 2.138-5.428-2.895.377-4.988.766-7.895 1.113l-2.17 5.302c-1.016 2.483-2.038 5-3.066 7.54-.732 1.808-.842 3.17-.296 4.075.437.725 1.292 1.169 2.578 1.33h14.765c1.493-4.113 2.974-8.16 4.428-12.131 1.125-3.074 2.246-6.104 3.354-9.098zM24.017 17.71l7.43-.575c.086-.207.073-.18.372-.947.509-1.306.679-2.555.593-2.974-.187-1.222-1.182-1.086-1.359-1.065-2.945.337-5.9.647-8.857.947-.173.026-.551.1-.865.27-.722.394-1.04 1.01-1.04 1.01l.531-1.14-3.438.34c-1.087 2.465-2.18 4.953-3.283 7.467-1.283 2.925-2.588 5.885-3.901 8.883h6.238c.995-2.336 1.98-4.65 2.958-6.938.975-2.282 1.572-3.591 2.53-5.828.335-.78.909-1.222 1.736-1.328.828-.104 1.08.24.743 1.035-.41.97-.316.703-.389.843zm-7.695-4.024c-1.59.154-3.18.31-4.778.452-1.014 1.924-2.023 3.854-3.035 5.793-1.158 2.209-2.32 4.426-3.498 6.661-.021.002-.043 0-.054.002.772-2.208 1.536-4.388 2.296-6.542.68-1.929 1.355-3.838 2.028-5.726-1.491.127-2.986.246-4.476.37-.757 2.397-1.522 4.836-2.307 7.313C1.676 24.6.843 27.239 0 29.925h6.71c1.718-2.903 3.417-5.806 5.122-8.685 1.496-2.53 2.993-5.041 4.49-7.554z"/>
        </g>
    </g>
</svg>
