<svg xmlns="http://www.w3.org/2000/svg" width="108" height="42" fill="#e32417">
  <path fill="#e32417" d="M32.43 25.77c-.13-.87-.38-1.7-.74-2.45-.46-1.02-1.1-1.92-1.9-2.67-.77-.73-1.67-1.36-2.65-1.89-.97-.52-2.01-.97-3.11-1.34l-3.21-.96-3.13-.72-2.7-.62c-.8-.21-1.47-.43-2.01-.68-.45-.21-.77-.44-.91-.66-.13-.21-.19-.47-.19-.8 0-.44.1-.79.29-1.03.22-.27.49-.48.83-.62.37-.16.78-.26 1.23-.3l1.4-.07c1.87 0 3.64.27 5.25.8 1.65.54 3.37 1.25 5.14 2.1l.51.25.28-.49 2.2-3.82 2.24-3.83.3-.51-.51-.31c-2.14-1.33-4.43-2.3-6.8-2.89-3.79-.94-7.73-1.13-11.63-.55a17.99 17.99 0 0 0-4.28 1.13 13.42 13.42 0 0 0-3.76 2.28c-1.14.98-2.08 2.23-2.79 3.73-.36.75-.63 1.55-.81 2.38S.7 12.89.7 13.7c0 2.33.43 4.23 1.26 5.67.84 1.43 1.97 2.58 3.38 3.43a12.98 12.98 0 0 0 2.21 1.09 31.43 31.43 0 0 0 2.43.83 30.59 30.59 0 0 0 2.55.66c.85.18 1.73.38 2.63.6.69.16 1.38.3 2.06.42.64.12 1.27.29 1.91.53a5.79 5.79 0 0 1 .8.34c.28.14.55.3.8.48a2.39 2.39 0 0 1 .55.55c.11.16.17.34.17.55 0 .56-.12.98-.34 1.25-.26.31-.58.53-.97.68-.44.16-.94.27-1.48.31a19.11 19.11 0 0 1-1.64.07c-1.82 0-3.57-.22-5.19-.65-1.63-.43-3.28-1.07-4.87-1.86-.4-.23-.82-.43-1.25-.6l-.5-.19-.26.47c-.18.33-.5.88-.96 1.65L2.5 32.44l-.74 1.27-.65 1.11-.46.81c-.2.35-.27.49-.27.67 0 .4.33.63.66.84l.05.03c.25.12.42.19.55.23 2.16 1.01 4.46 1.81 6.83 2.38a31.07 31.07 0 0 0 7.3.87c1.97 0 3.97-.18 5.94-.54 2-.36 3.83-1.01 5.42-1.92 1.62-.92 2.96-2.2 3.97-3.79 1.02-1.6 1.53-3.66 1.53-6.11-.01-.83-.07-1.67-.2-2.52"></path>
  <path fill="#e32417" d="M49.13 23.9c0 1-.19 1.97-.56 2.9s-.88 1.75-1.52 2.44a7.41 7.41 0 0 1-2.3 1.66 6.77 6.77 0 0 1-2.88.62c-1.04 0-2.01-.21-2.89-.62-.89-.41-1.66-.97-2.3-1.66s-1.15-1.51-1.52-2.44-.56-1.9-.56-2.9c0-1.02.19-2.01.55-2.92a7.82 7.82 0 0 1 1.52-2.42c.64-.68 1.41-1.24 2.3-1.66.88-.41 1.85-.62 2.89-.62s2.01.21 2.88.62c.89.41 1.66.97 2.3 1.66a7.82 7.82 0 0 1 1.52 2.42c.38.92.57 1.9.57 2.92m8.18-6.5c-.88-2.02-2.08-3.8-3.59-5.29a17.2 17.2 0 0 0-5.33-3.57c-2.04-.88-4.23-1.32-6.52-1.32-2.32 0-4.52.44-6.54 1.32-2.02.87-3.8 2.07-5.31 3.57a16.85 16.85 0 0 0-3.59 5.29c-.88 2.02-1.32 4.21-1.32 6.5s.44 4.48 1.32 6.5c.87 2.02 2.08 3.8 3.59 5.29s3.3 2.69 5.31 3.55c2.02.86 4.22 1.3 6.54 1.3 2.29 0 4.48-.44 6.52-1.3 2.03-.86 3.82-2.06 5.33-3.55s2.72-3.28 3.59-5.29c.88-2.03 1.32-4.21 1.32-6.5s-.44-4.48-1.32-6.5"></path>
  <path fill="#e32417" d="M80.12 39.86H66.05c-.2 0-.46 0-.68-.01h-.5a11.95 11.95 0 0 1-11.02-11.6v-.31-14.61l7.86-.01h.55v16.07a3.55 3.55 0 0 0 3.54 3.52c1.95 0 3.53-1.57 3.54-3.52V13.32h8.38l.02 11.2v3.53.61 8.74l2.38 2.46zm9.14-17.53c.37-.22.55-.57.55-1.06 0-.5-.19-.85-.57-1.06-.38-.2-.94-.3-1.68-.3l-.77.01-.73.05v2.7h1.36c.86 0 1.47-.11 1.84-.34m.4 2.83c-.43-.24-1.04-.37-1.84-.37h-1.75v3.2l.66.05.79.02c.84 0 1.51-.12 2.02-.36s.77-.68.77-1.32c-.01-.57-.22-.98-.65-1.22"></path>
  <path fill="#e32417" d="M104.3 30.19h-2.79v-5.26h-4.69v5.26h-2.79V17.8h2.79v4.74h4.69V17.8h2.79v12.39zm-12.59-.82c-.95.66-2.36.98-4.23.98a34.14 34.14 0 0 1-2.03-.06 13.44 13.44 0 0 1-2.1-.3V17.98a16.29 16.29 0 0 1 1.88-.24l1.9-.08a13.18 13.18 0 0 1 2.17.17c.66.11 1.23.31 1.71.58a2.98 2.98 0 0 1 1.12 1.08c.27.45.4 1 .4 1.65 0 .99-.48 1.77-1.43 2.34.79.3 1.32.7 1.61 1.22.29.51.43 1.09.43 1.73-.01 1.31-.48 2.29-1.43 2.94M77.21 10.3l2.3 2.38v25.04h28.12V10.3H77.21z"></path>
</svg>