<svg xmlns="http://www.w3.org/2000/svg" width="242" height="242" viewBox="0 0 242 242">
    <g fill="none" fill-rule="evenodd" opacity=".5">
        <g fill="#C2D1D9">
            <g>
                <g>
                    <path d="M31.5 179C14.131 179 0 193.132 0 210.501 0 227.871 14.131 242 31.5 242S63 227.87 63 210.501C63 193.131 48.866 179 31.5 179z" transform="translate(-708.000000, -76.000000) translate(698.000000, 30.000000) translate(10.000000, 46.000000)"/>
                    <path d="M5.127 90c-1.353-.03-2.646.458-3.616 1.396C.543 92.332 0 93.62 0 94.965v40.242c0 2.65 2.087 4.834 4.737 4.959 52.939 2.414 94.682 44.158 97.096 97.1.122 2.647 2.305 4.734 4.958 4.734h40.244c1.345 0 2.635-.546 3.568-1.509.933-.963 1.435-2.273 1.395-3.615-1.283-38.583-17.092-74.935-44.512-102.358C80.06 107.094 43.71 91.287 5.126 90z" transform="translate(-708.000000, -76.000000) translate(698.000000, 30.000000) translate(10.000000, 46.000000)"/>
                    <path d="M171.072 70.935C126.62 26.487 67.665 1.294 5.059.005 3.72-.059 2.437.486 1.489 1.42.539 2.355 0 3.63 0 4.96v40.174c0 2.69 2.144 4.888 4.833 4.958 100.636 2.528 184.556 86.45 187.08 187.077.062 2.69 2.265 4.831 4.954 4.831h40.174c1.331 0 2.61-.535 3.545-1.49.93-.951 1.443-2.238 1.414-3.571-1.295-62.61-26.488-121.567-70.928-166.004z" transform="translate(-708.000000, -76.000000) translate(698.000000, 30.000000) translate(10.000000, 46.000000)"/>
                </g>
            </g>
        </g>
    </g>
</svg>
