<svg xmlns="http://www.w3.org/2000/svg" display="none">
  <symbol id="arrow-right" viewBox="0 0 24 24"><path d="M10.9425 0.462603C10.3575 1.07941 10.3575 2.07578 10.9425 2.69259L18.255 10.4185H1.5C0.672 10.4185 0 11.127 0 12C0 12.873 0.672 13.5815 1.5 13.5815H18.255L10.941 21.3058C10.3575 21.9226 10.359 22.9222 10.9425 23.5374C11.5275 24.1542 12.4725 24.1542 13.0575 23.5374L24 12L13.0575 0.462603C12.4725 -0.154201 11.5275 -0.154201 10.9425 0.462603Z" fill="#333" /></symbol>
  <symbol id="arrow-up" viewBox="0 0 8 5"><path d="M7.293 3.293L4.707.707a1 1 0 0 0-1.414 0L.707 3.293A1 1 0 0 0 1.414 5h5.172a1 1 0 0 0 .707-1.707z"/></symbol>
  <symbol id="arrow-down" viewBox="0 0 8 5"><path d="M.707 1.707l2.586 2.586a1 1 0 0 0 1.414 0l2.586-2.586A1 1 0 0 0 6.586 0H1.414a1 1 0 0 0-1 1 1 1 0 0 0 .293.707z"/></symbol>
  <symbol id="chevron-down" viewbox=" 0 0 13 8"><path d="M11.383.793a.996.996 0 0 0-1.41 0L6.088 4.668 2.204.792A.999.999 0 0 0 .793.793a.996.996 0 0 0 0 1.41l5.295 5.295 5.295-5.295a.996.996 0 0 0 0-1.41z"/></symbol>
  <symbol id="instagram" viewBox="0 0 448 512"><path d="M224.1 141c-63.6 0-114.9 51.3-114.9 114.9s51.3 114.9 114.9 114.9S339 319.5 339 255.9 287.7 141 224.1 141zm0 189.6c-41.1 0-74.7-33.5-74.7-74.7s33.5-74.7 74.7-74.7 74.7 33.5 74.7 74.7-33.6 74.7-74.7 74.7zm146.4-194.3c0 14.9-12 26.8-26.8 26.8-14.9 0-26.8-12-26.8-26.8s12-26.8 26.8-26.8 26.8 12 26.8 26.8zm76.1 27.2c-1.7-35.9-9.9-67.7-36.2-93.9-26.2-26.2-58-34.4-93.9-36.2-37-2.1-147.9-2.1-184.9 0-35.8 1.7-67.6 9.9-93.9 36.1s-34.4 58-36.2 93.9c-2.1 37-2.1 147.9 0 184.9 1.7 35.9 9.9 67.7 36.2 93.9s58 34.4 93.9 36.2c37 2.1 147.9 2.1 184.9 0 35.9-1.7 67.7-9.9 93.9-36.2 26.2-26.2 34.4-58 36.2-93.9 2.1-37 2.1-147.8 0-184.8zM398.8 388c-7.8 19.6-22.9 34.7-42.6 42.6-29.5 11.7-99.5 9-132.1 9s-102.7 2.6-132.1-9c-19.6-7.8-34.7-22.9-42.6-42.6-11.7-29.5-9-99.5-9-132.1s-2.6-102.7 9-132.1c7.8-19.6 22.9-34.7 42.6-42.6 29.5-11.7 99.5-9 132.1-9s102.7-2.6 132.1 9c19.6 7.8 34.7 22.9 42.6 42.6 11.7 29.5 9 99.5 9 132.1s2.7 102.7-9 132.1z"/></symbol>
  <symbol id="youtube" viewBox="0 0 576 512"><path d="M549.655 124.083c-6.281-23.65-24.787-42.276-48.284-48.597C458.781 64 288 64 288 64S117.22 64 74.629 75.486c-23.497 6.322-42.003 24.947-48.284 48.597-11.412 42.867-11.412 132.305-11.412 132.305s0 89.438 11.412 132.305c6.281 23.65 24.787 41.5 48.284 47.821C117.22 448 288 448 288 448s170.78 0 213.371-11.486c23.497-6.321 42.003-24.171 48.284-47.821 11.412-42.867 11.412-132.305 11.412-132.305s0-89.438-11.412-132.305zm-317.51 213.508V175.185l142.739 81.205-142.739 81.201z"/></symbol>
  <symbol id="facebook" viewBox="0 0 320 512"><path d="M279.14 288l14.22-92.66h-88.91v-60.13c0-25.35 12.42-50.06 52.24-50.06h40.42V6.26S260.43 0 225.36 0c-73.22 0-121.08 44.38-121.08 124.72v70.62H22.89V288h81.39v224h100.17V288z"/></symbol>
  <symbol id="twitter" viewBox="0 0 512 512"><path d="M459.37 151.716c.325 4.548.325 9.097.325 13.645 0 138.72-105.583 298.558-298.558 298.558-59.452 0-114.68-17.219-161.137-47.106 8.447.974 16.568 1.299 25.34 1.299 49.055 0 94.213-16.568 130.274-44.832-46.132-.975-84.792-31.188-98.112-72.772 6.498.974 12.995 1.624 19.818 1.624 9.421 0 18.843-1.3 27.614-3.573-48.081-9.747-84.143-51.98-84.143-102.985v-1.299c13.969 7.797 30.214 12.67 47.431 13.319-28.264-18.843-46.781-51.005-46.781-87.391 0-19.492 5.197-37.36 14.294-52.954 51.655 63.675 129.3 105.258 216.365 109.807-1.624-7.797-2.599-15.918-2.599-24.04 0-57.828 46.782-104.934 104.934-104.934 30.213 0 57.502 12.67 76.67 33.137 23.715-4.548 46.456-13.32 66.599-25.34-7.798 24.366-24.366 44.833-46.132 57.827 21.117-2.273 41.584-8.122 60.426-16.243-14.292 20.791-32.161 39.308-52.628 54.253z"/></symbol>
  <symbol id="user" viewBox="0 0 24 24"><path d="M5 19v2a1 1 0 1 1-2 0v-2c0-3.065 4.831-5 9-5s9 1.935 9 5v2a1 1 0 1 1-2 0v-2c0-1.46-3.844-3-7-3s-7 1.54-7 3zM17 7A5 5 0 1 1 7 7a5 5 0 1 1 10 0zm-2 0a3 3 0 1 0-6 0 3 3 0 1 0 6 0z"/></symbol>
  <symbol id="search" viewBox="0 0 24 24"><path d="M14.71 14l-.28-.27A6.47 6.47 0 0 0 16 9.5a6.5 6.5 0 1 0-13 0A6.5 6.5 0 0 0 9.5 16a6.47 6.47 0 0 0 4.23-1.57l.27.28v.79l4.293 4.284a1 1 0 0 0 1.413 0l.078-.078a1 1 0 0 0 0-1.413L15.5 14h-.79zM5 9.5C5 7.01 7.01 5 9.5 5S14 7.01 14 9.5 11.99 14 9.5 14 5 11.99 5 9.5z"/></symbol>
  <symbol id="menu" viewBox="0 0 24 24"><path d="M20.007 18c.548 0 .993-.444.993-1 0-.552-.445-1-.993-1H3.993C3.445 16 3 16.444 3 17c0 .552.445 1 .993 1h16.014zm0-5c.548 0 .993-.444.993-1 0-.552-.445-1-.993-1H3.993C3.445 11 3 11.444 3 12c0 .552.445 1 .993 1h16.014zM3 7c0 .552.445 1 .993 1h16.014c.548 0 .993-.444.993-1 0-.552-.445-1-.993-1H3.993C3.445 6 3 6.444 3 7z"/></symbol>
</svg>
