<svg width="24" height="24" viewBox="0 0 24 24" fill="none" xmlns="http://www.w3.org/2000/svg">
<mask id="mask0" mask-type="alpha" maskUnits="userSpaceOnUse" x="4" y="4" width="16" height="16">
<path d="M11.295 4.7051C10.905 5.0951 10.905 5.7251 11.295 6.1151L16.17 11.0001H5C4.448 11.0001 4 11.4481 4 12.0001C4 12.5521 4.448 13.0001 5 13.0001H16.17L11.294 17.8841C10.905 18.2741 10.906 18.9061 11.295 19.2951C11.685 19.6851 12.315 19.6851 12.705 19.2951L20 12.0001L12.705 4.7051C12.315 4.3151 11.685 4.3151 11.295 4.7051Z" fill="white"/>
</mask>
<g mask="url(#mask0)">
<path d="M11.295 4.7051C10.905 5.0951 10.905 5.7251 11.295 6.1151L16.17 11.0001H5C4.448 11.0001 4 11.4481 4 12.0001C4 12.5521 4.448 13.0001 5 13.0001H16.17L11.294 17.8841C10.905 18.2741 10.906 18.9061 11.295 19.2951C11.685 19.6851 12.315 19.6851 12.705 19.2951L20 12.0001L12.705 4.7051C12.315 4.3151 11.685 4.3151 11.295 4.7051Z" fill="black" fill-opacity="0.7"/>
<path fill-rule="evenodd" clip-rule="evenodd" d="M0 0H24V24H0V0Z" fill="#EEEEEE"/>
</g>
</svg>
