<svg width="24" height="24" viewBox="0 0 24 24" fill="none" xmlns="http://www.w3.org/2000/svg">
<mask id="mask0" mask-type="alpha" maskUnits="userSpaceOnUse" x="5" y="5" width="14" height="14">
<path d="M18.2951 5.70498C17.9051 5.31498 17.2751 5.31498 16.8851 5.70498L12.0001 10.59L7.1151 5.70498C6.7251 5.31498 6.0951 5.31498 5.7051 5.70498C5.3151 6.09498 5.3151 6.72498 5.7051 7.11498L10.5901 12L5.7051 16.885C5.3151 17.275 5.3151 17.905 5.7051 18.295C6.0951 18.685 6.7251 18.685 7.1151 18.295L12.0001 13.41L16.8851 18.295C17.2751 18.685 17.9051 18.685 18.2951 18.295C18.6851 17.905 18.6851 17.275 18.2951 16.885L13.4101 12L18.2951 7.11498C18.6851 6.72498 18.6851 6.09498 18.2951 5.70498Z" fill="white"/>
</mask>
<g mask="url(#mask0)">
<path d="M18.2951 5.70498C17.9051 5.31498 17.2751 5.31498 16.8851 5.70498L12.0001 10.59L7.1151 5.70498C6.7251 5.31498 6.0951 5.31498 5.7051 5.70498C5.3151 6.09498 5.3151 6.72498 5.7051 7.11498L10.5901 12L5.7051 16.885C5.3151 17.275 5.3151 17.905 5.7051 18.295C6.0951 18.685 6.7251 18.685 7.1151 18.295L12.0001 13.41L16.8851 18.295C17.2751 18.685 17.9051 18.685 18.2951 18.295C18.6851 17.905 18.6851 17.275 18.2951 16.885L13.4101 12L18.2951 7.11498C18.6851 6.72498 18.6851 6.09498 18.2951 5.70498Z" fill="#D0D0D0"/>
<path fill-rule="evenodd" clip-rule="evenodd" d="M0 0H24V24H0V0Z" fill="#333333"/>
</g>
</svg>
