<svg width="128" height="35" viewBox="0 0 128 35" fill="none" xmlns="http://www.w3.org/2000/svg">
<g clip-path="url(#clip0)">
<path fill-rule="evenodd" clip-rule="evenodd" d="M38.521 24.2608C38.521 24.4448 38.4282 24.5359 38.2442 24.5359H35.6388C35.4548 24.5359 35.362 24.4448 35.362 24.2608V7.39569C35.362 7.21174 35.4548 7.11895 35.6388 7.11895H38.2434C38.4282 7.11895 38.521 7.21174 38.521 7.39569V24.2608V24.2608ZM50.3542 24.2592C50.3542 24.4448 50.2614 24.5359 50.0775 24.5359H47.7366C47.59 24.5359 47.4924 24.4448 47.4476 24.2608C47.4012 24.076 47.3418 23.9832 47.2685 23.9832C47.2303 23.9832 46.9739 24.076 46.4961 24.26C46.0307 24.442 45.5356 24.5358 45.0359 24.5367C43.6033 24.5367 42.4231 24.0793 41.4952 23.1669C40.5681 22.2536 40.1033 21.0782 40.1033 19.64V12.1435C40.1033 11.9587 40.1953 11.8667 40.3784 11.8667H42.9888C43.1719 11.8667 43.2631 11.9587 43.2631 12.1435V19.6587C43.2631 20.2326 43.447 20.7087 43.8141 21.0864C44.1804 21.4657 44.6476 21.6562 45.2141 21.6562C45.7839 21.6562 46.2543 21.4624 46.6304 21.0734C47.0056 20.6843 47.1945 20.2138 47.1945 19.6587V12.1435C47.1945 11.9587 47.2864 11.8667 47.4712 11.8667H50.0767C50.2614 11.8667 50.3534 11.9587 50.3534 12.1435V24.2592H50.3542ZM63.1178 27.0641C63.1178 28.1287 62.745 29.0094 62.0027 29.7062C61.2604 30.4021 60.3113 30.7513 59.1563 30.7513H55.6352C54.4606 30.7513 53.5067 30.4005 52.7733 29.7013C52.0399 28.9996 51.6728 28.1157 51.6728 27.0453V26.5203C51.6728 25.8024 52.0123 25.0463 52.6919 24.2535C53.0028 23.8848 53.1591 23.6837 53.1591 23.6455C52.9833 23.0553 52.8946 22.6126 52.8946 22.3187C52.8946 22.0053 52.9572 21.6741 53.0818 21.3224C53.2071 20.9724 53.2706 20.7885 53.2706 20.7689C53.2706 20.6957 53.2429 20.6322 53.1884 20.5769C52.5999 19.7653 52.2686 19.2851 52.1954 19.1378C51.847 18.4939 51.6728 17.7744 51.6728 16.9808V16.7326C51.6728 15.3505 52.1514 14.1946 53.1054 13.2635C54.061 12.3323 55.2355 11.8667 56.6331 11.8667C57.1092 11.8667 57.5968 11.9595 58.0925 12.1451C58.5882 12.3299 58.8543 12.4219 58.8918 12.4219C58.9471 12.4219 58.9968 12.3299 59.0424 12.1451C59.088 11.9595 59.1856 11.8667 59.3329 11.8667H61.6731C61.857 11.8667 61.9498 11.9587 61.9498 12.1435V16.9784C61.9498 18.4524 61.4541 19.6359 60.4635 20.5288C59.4721 21.4226 58.1429 21.8694 56.4727 21.8694H56.0609C55.9998 21.9303 55.9514 22.0026 55.9185 22.0822C55.8855 22.1618 55.8686 22.2472 55.8688 22.3334C55.8688 22.488 55.942 22.6622 56.0885 22.8559H59.1636C60.3357 22.8559 61.2864 23.2059 62.0198 23.9019C62.7507 24.5986 63.1178 25.4785 63.1178 26.5415V27.0649V27.0641ZM58.79 16.9792V16.7285C58.79 16.1701 58.6045 15.7013 58.2366 15.3195C57.867 14.9378 57.3974 14.7473 56.8243 14.7473C56.253 14.7473 55.7776 14.9378 55.3999 15.3195C55.0223 15.7013 54.8326 16.1701 54.8326 16.7285V16.98C54.8326 17.5376 55.0223 18.0121 55.3999 18.4028C55.7776 18.7935 56.253 18.9888 56.8243 18.9888C57.3778 18.9888 57.8442 18.7935 58.2219 18.4028C58.6004 18.0121 58.79 17.5376 58.79 16.98V16.9792ZM59.9573 27.0665V26.5399C59.9573 26.0035 59.6911 25.7365 59.1596 25.7365H55.6319C55.0988 25.7365 54.8326 26.0035 54.8326 26.5399V27.0665C54.8326 27.6029 55.0988 27.8707 55.6319 27.8707H59.1588C59.6911 27.8707 59.9573 27.6029 59.9573 27.0665V27.0665ZM72.8096 24.2657C72.8096 24.4464 72.7192 24.5359 72.5402 24.5359H70.2497C70.1064 24.5359 70.012 24.4505 69.9664 24.2787C69.9209 24.1086 69.8631 24.0215 69.7914 24.0215C69.7548 24.0215 69.5261 24.1086 69.1036 24.2787C68.682 24.4496 68.2816 24.5359 67.9055 24.5359H66.8807C65.7673 24.5359 64.854 24.1916 64.1459 23.5038C63.4361 22.816 63.0812 21.9451 63.0812 20.8935V20.7584C63.0812 19.6896 63.4353 18.8155 64.1426 18.135C64.8491 17.4562 65.7567 17.1159 66.8677 17.1159H69.4447C69.6238 17.1159 69.7133 17.0362 69.7133 16.8726V16.8188L69.6864 16.4957C69.5798 15.291 68.9384 14.6863 67.7623 14.6863C67.2088 14.6863 66.7188 14.9598 66.2914 15.5059C66.1478 15.7092 66.0139 15.9191 65.8902 16.1351C65.7827 16.3174 65.685 16.4086 65.5955 16.4086C65.5389 16.402 65.4843 16.3837 65.4352 16.3549L63.2416 15.1917C63.1341 15.1372 63.0812 15.0745 63.0812 15.0021C63.0812 14.5162 63.5126 13.8569 64.3721 13.0282C65.16 12.2526 66.2971 11.8651 67.785 11.8651C69.3063 11.8651 70.5256 12.2989 71.4389 13.165C72.3529 14.0302 72.8096 15.1852 72.8096 16.63V24.2657V24.2657ZM69.7141 19.7295H66.8946C66.4152 19.7295 66.1767 19.9859 66.1767 20.5012V20.9146C66.1767 21.447 66.4152 21.7139 66.8946 21.7139H67.9063C68.7374 21.7139 69.3332 21.1995 69.6889 20.1699C69.6889 20.1145 69.697 19.968 69.7133 19.7303L69.7141 19.7295ZM81.0802 15.0485C81.0802 15.252 81.0167 15.3545 80.8897 15.3545C80.7985 15.3545 80.5666 15.2609 80.1938 15.0778C79.8193 14.893 79.4881 14.8002 79.1959 14.8002C78.6668 14.8002 78.2207 14.9907 77.8569 15.3676C77.6795 15.5482 77.5397 15.7624 77.4458 15.9975C77.3519 16.2327 77.3057 16.4842 77.3099 16.7374V24.2584C77.3099 24.4448 77.2171 24.5359 77.0324 24.5359H74.4277C74.243 24.5359 74.151 24.4448 74.151 24.2592V12.1435C74.151 11.9587 74.2413 11.8667 74.4261 11.8667H76.7703C76.9518 11.8667 77.0446 11.9498 77.0446 12.1166V12.5049C77.0446 12.6538 77.1284 12.7458 77.2928 12.7824L77.4573 12.6994C78.1711 12.1443 78.8654 11.8667 79.5426 11.8667C80.5682 11.8667 81.0802 12.0336 81.0802 12.3649V15.0485ZM91.1952 21.9117C91.305 21.9655 91.3596 22.0387 91.3596 22.1291C91.3596 22.6402 90.9762 23.1498 90.2095 23.6601C89.3353 24.2429 88.3032 24.5343 87.1181 24.5343C85.6774 24.5343 84.5264 24.1273 83.6693 23.3142C82.8114 22.501 82.3833 21.4103 82.3833 20.0388V16.3378C82.3833 14.9866 82.8098 13.9024 83.6661 13.0885C84.5199 12.2762 85.6668 11.8684 87.1034 11.8684C88.2853 11.8684 89.3133 12.1532 90.1875 12.7214C90.9689 13.2163 91.3596 13.7201 91.3596 14.2329C91.3596 14.3062 91.2969 14.3794 91.1691 14.4527L90.0214 15.0306C89.987 15.0478 89.9492 15.057 89.9107 15.0574C89.8383 15.0574 89.7659 15.0208 89.6926 14.9467C89.0366 14.3216 88.6548 13.9708 88.5449 13.8984C88.125 13.5907 87.6175 13.4258 87.0969 13.4279C86.2756 13.4279 85.5895 13.7079 85.0327 14.2646C84.4776 14.823 84.2009 15.5141 84.2009 16.3362V20.0396C84.2009 20.8446 84.4792 21.5357 85.0368 22.1112C85.5943 22.6866 86.2846 22.9739 87.1075 22.9739C87.8026 22.9739 88.4049 22.7298 88.9177 22.2381L89.9067 21.3102C89.9425 21.3102 89.9881 21.3184 90.0418 21.3371L91.1952 21.9117V21.9117ZM101.914 18.0186C101.914 18.2026 101.822 18.2937 101.64 18.2937H94.4957C94.3134 18.2937 94.2223 18.3849 94.2223 18.5664V20.047C94.2165 20.4297 94.2872 20.8098 94.4303 21.1648C94.5735 21.5198 94.7861 21.8427 95.0557 22.1144C95.6125 22.6891 96.3011 22.9764 97.1232 22.9764C97.815 22.9764 98.4174 22.7322 98.9285 22.2389L99.9134 21.311C99.9492 21.311 99.9964 21.3192 100.051 21.3379L101.199 21.9126C101.309 21.9663 101.363 22.0395 101.363 22.1307C101.363 22.641 100.981 23.1522 100.215 23.6617C99.342 24.2453 98.3124 24.5384 97.1289 24.5384C95.6914 24.5384 94.5438 24.1306 93.6875 23.3174C92.8328 22.5035 92.4047 21.4112 92.4047 20.0388V16.3353C92.4047 15.2381 92.8467 14.2191 93.7306 13.2765C94.6129 12.3364 95.7484 11.8635 97.1313 11.8635C98.4434 11.8635 99.5683 12.3128 100.508 13.2106C101.444 14.1076 101.914 15.1519 101.914 16.3427V18.0194V18.0186ZM100.044 16.722V16.3378C100.044 15.5499 99.7612 14.8678 99.1963 14.2907C98.6323 13.7136 97.9396 13.4246 97.1207 13.4246C96.2995 13.4246 95.61 13.7046 95.0557 14.263C94.5006 14.8222 94.2223 15.5132 94.2223 16.3378V16.722C94.2223 16.9051 94.3134 16.9963 94.4949 16.9963H99.7693C99.9533 16.9963 100.044 16.9051 100.044 16.722V16.722ZM109.416 14.0164C109.416 14.2012 109.332 14.2931 109.17 14.2931C109.114 14.2931 108.973 14.2809 108.744 14.2541C108.539 14.2284 108.333 14.2148 108.127 14.2134C107.305 14.2134 106.615 14.4901 106.058 15.042C105.5 15.5938 105.22 16.2841 105.22 17.1119V24.26C105.22 24.4448 105.128 24.5367 104.944 24.5367H103.613C103.427 24.5367 103.336 24.4448 103.336 24.26V12.5977C103.336 12.4121 103.426 12.3201 103.61 12.3201H104.628C104.812 12.3201 104.902 12.4121 104.902 12.5952V13.9724C104.902 14.1743 104.975 14.2752 105.123 14.2752C105.232 14.2752 105.434 14.1287 105.727 13.8349C106.204 13.3571 106.581 13.0079 106.856 12.7881C107.241 12.4772 107.662 12.3201 108.122 12.3201H109.14C109.324 12.3201 109.416 12.4137 109.416 12.5985V14.0156V14.0164ZM117.26 24.2608C117.26 24.4448 117.159 24.5376 116.958 24.5376C115.874 24.5376 114.929 24.1119 114.122 23.2662C113.257 22.4009 112.827 21.3232 112.827 20.0348V13.9301C112.827 13.747 112.734 13.655 112.55 13.655H110.952C110.766 13.655 110.676 13.5622 110.676 13.3766V12.85L113.799 9.54941L113.992 9.46639H114.434C114.619 9.46639 114.711 9.55918 114.711 9.74476V11.8024C114.711 11.9872 114.804 12.0792 114.985 12.0792H116.986C117.169 12.0792 117.26 12.172 117.26 12.3551V13.3774C117.26 13.563 117.169 13.6542 116.986 13.6542H114.985C114.804 13.6542 114.711 13.7462 114.711 13.9301V20.0331C114.711 20.6965 114.912 21.3045 115.315 21.8564C115.423 22.0224 115.999 22.3724 117.041 22.9064C117.187 22.9609 117.26 23.0545 117.26 23.1831V24.26V24.2608ZM127.727 20.0388C127.727 21.3924 127.29 22.4807 126.417 23.3028C125.541 24.1265 124.386 24.5376 122.946 24.5376C121.507 24.5376 120.359 24.1306 119.504 23.3166C118.648 22.5027 118.22 21.412 118.22 20.0388V16.3362C118.22 14.985 118.648 13.9008 119.504 13.086C120.359 12.2721 121.507 11.8643 122.946 11.8643C124.386 11.8643 125.541 12.277 126.417 13.0999C127.29 13.922 127.727 15.0013 127.727 16.3362V20.0388ZM125.857 20.0405V16.3353C125.857 15.5491 125.574 14.867 125.011 14.2915C124.445 13.7152 123.753 13.4255 122.934 13.4255C122.114 13.4255 121.425 13.7046 120.871 14.2622C120.314 14.8214 120.038 15.5124 120.038 16.3353V20.0405C120.038 20.8455 120.314 21.5373 120.871 22.1128C121.425 22.6882 122.114 22.9756 122.934 22.9756C123.753 22.9756 124.445 22.6882 125.01 22.1128C125.283 21.842 125.499 21.5189 125.644 21.1629C125.79 20.8068 125.862 20.4251 125.857 20.0405H125.857ZM100.596 34.7055C100.261 34.7055 100.025 34.4377 100.025 34.0828C100.025 33.7165 100.272 33.4585 100.616 33.4585C100.962 33.4585 101.197 33.7165 101.197 34.0828C101.197 34.4377 100.972 34.7055 100.607 34.7055H100.596ZM105.091 34.4181C104.864 34.5378 104.361 34.7055 103.721 34.7055C102.282 34.7055 101.347 33.7165 101.347 32.2506C101.347 30.7757 102.353 29.707 103.909 29.707C104.421 29.707 104.874 29.8356 105.111 29.9544L104.914 30.6284C104.707 30.5103 104.382 30.4005 103.909 30.4005C102.814 30.4005 102.223 31.212 102.223 32.2107C102.223 33.3193 102.933 34.0022 103.878 34.0022C104.371 34.0022 104.696 33.8744 104.944 33.7653L105.091 34.4181V34.4181ZM110.028 32.1627C110.028 33.933 108.807 34.7055 107.652 34.7055C106.362 34.7055 105.368 33.7556 105.368 32.2408C105.368 30.6373 106.41 29.698 107.732 29.698C109.102 29.698 110.028 30.6959 110.028 32.1627V32.1627ZM106.244 32.2115C106.244 33.2607 106.844 34.051 107.692 34.051C108.52 34.051 109.14 33.2696 109.14 32.192C109.14 31.3796 108.737 30.3508 107.712 30.3508C106.686 30.3508 106.244 31.3007 106.244 32.2107V32.2115ZM110.588 31.1021C110.588 30.608 110.579 30.2019 110.549 29.8063H111.308L111.349 30.5771H111.378C111.642 30.1229 112.086 29.698 112.873 29.698C113.525 29.698 114.018 30.0936 114.224 30.656H114.245C114.392 30.3907 114.58 30.1823 114.777 30.0342C115.062 29.816 115.378 29.698 115.83 29.698C116.462 29.698 117.396 30.1131 117.396 31.7752V34.5964H116.55V31.8843C116.55 30.9645 116.215 30.4094 115.516 30.4094C115.022 30.4094 114.639 30.7757 114.491 31.2014C114.452 31.3202 114.421 31.4781 114.421 31.6369V34.5964H113.575V31.7264C113.575 30.9645 113.239 30.4094 112.578 30.4094C112.037 30.4094 111.642 30.8449 111.505 31.2803C111.456 31.4089 111.437 31.5579 111.437 31.7069V34.5964H110.588V31.1021V31.1021ZM118.788 34.7055C118.454 34.7055 118.218 34.4377 118.218 34.0828C118.218 33.7165 118.463 33.4585 118.808 33.4585C119.153 33.4585 119.389 33.7165 119.389 34.0828C119.389 34.4377 119.163 34.7055 118.799 34.7055H118.789H118.788ZM120.278 27.5695H121.134V30.5771H121.156C121.46 30.0439 122.012 29.698 122.781 29.698C123.962 29.698 124.8 30.687 124.791 32.1423C124.791 33.8541 123.717 34.7055 122.652 34.7055C121.963 34.7055 121.411 34.4377 121.057 33.8044H121.027L120.988 34.5964H120.238C120.259 34.2708 120.277 33.7849 120.277 33.3592V27.5695H120.278ZM121.134 32.6771C121.134 32.7853 121.156 32.8944 121.173 32.9929C121.342 33.5969 121.845 34.0128 122.475 34.0128C123.381 34.0128 123.924 33.2705 123.924 32.1716C123.924 31.212 123.43 30.3907 122.506 30.3907C121.912 30.3907 121.362 30.7969 121.184 31.4594C121.164 31.5579 121.134 31.6767 121.134 31.8151V32.6771V32.6771ZM125.352 31.3007C125.352 30.7374 125.341 30.2515 125.314 29.8063H126.071L126.102 30.7472H126.141C126.357 30.1042 126.88 29.698 127.461 29.698C127.559 29.698 127.628 29.7062 127.707 29.7281V30.5486C127.61 30.5272 127.512 30.5171 127.413 30.5185C126.801 30.5185 126.368 30.9841 126.249 31.6369C126.228 31.7565 126.208 31.8941 126.208 32.0438V34.5964H125.352V31.3007V31.3007ZM30.1828 15.8055C30.1828 24.133 23.4612 30.8856 15.1695 30.8856C6.87771 30.8856 0.155273 24.1338 0.155273 15.8055C0.155273 7.47546 6.87771 0.7229 15.1695 0.7229C23.4612 0.7229 30.1828 7.47546 30.1828 15.8055" fill="#211915"/>
<path fill-rule="evenodd" clip-rule="evenodd" d="M26.8149 15.8055C26.8149 22.2642 21.6015 27.5012 15.1696 27.5012C8.7386 27.5012 3.52441 22.2642 3.52441 15.8047C3.52441 9.34432 8.7386 4.10815 15.1696 4.10815C21.6015 4.10815 26.8149 9.34432 26.8149 15.8047" fill="#C2CE29"/>
<path fill-rule="evenodd" clip-rule="evenodd" d="M23.2056 15.8055C23.2056 20.2627 19.608 23.8775 15.1695 23.8775C10.731 23.8775 7.1333 20.2627 7.1333 15.8055C7.1333 11.3467 10.731 7.73193 15.1695 7.73193C19.608 7.73193 23.2056 11.3459 23.2056 15.8055" fill="#211915"/>
<path fill-rule="evenodd" clip-rule="evenodd" d="M11.8438 20.2813H18.4946L16.7877 15.7451L16.5207 14.98C16.8178 14.7644 17.0596 14.4814 17.2263 14.1543C17.393 13.8272 17.4797 13.4653 17.4796 13.0982C17.4796 11.8121 16.4434 10.7703 15.1639 10.7703C14.8589 10.771 14.5571 10.8318 14.2756 10.9492C13.9942 11.0666 13.7386 11.2383 13.5235 11.4544C13.3084 11.6706 13.138 11.927 13.0219 12.2091C12.9059 12.4911 12.8466 12.7932 12.8474 13.0982C12.8474 13.8397 13.1778 14.5389 13.7167 14.9654L11.8438 20.2813V20.2813Z" fill="#C2CE29"/>
</g>
<defs>
<clipPath id="clip0">
<rect width="127.791" height="35" fill="white"/>
</clipPath>
</defs>
</svg>
