<svg xmlns="http://www.w3.org/2000/svg" xmlns:xlink="http://www.w3.org/1999/xlink" width="24" height="24" viewBox="0 0 24 24">
    <defs>
        <path id="as9r9ycx2a" d="M14.933 11.2L11.6 8.7c-.442-.331-1.069-.242-1.4.2-.13.173-.2.384-.2.6v5c0 .552.448 1 1 1 .216 0 .427-.07.6-.2l3.333-2.5c.442-.331.532-.958.2-1.4-.057-.076-.124-.143-.2-.2zM2 12c0 5.52 4.48 10 10 10s10-4.48 10-10S17.52 2 12 2 2 6.48 2 12zm2 0c0-4.41 3.59-8 8-8s8 3.59 8 8-3.59 8-8 8-8-3.59-8-8z"/>
    </defs>
    <g fill="none" fill-rule="evenodd">
        <g transform="translate(-891.000000, -1895.000000) translate(891.000000, 1895.000000)">
            <mask id="tsqur8i7wb" fill="#fff">
                <use xlink:href="#as9r9ycx2a"/>
            </mask>
            <use fill="#C2D1D9" xlink:href="#as9r9ycx2a"/>
            <g fill="#FFF" mask="url(#tsqur8i7wb)">
                <path d="M0 0H24V24H0z"/>
            </g>
        </g>
    </g>
</svg>
