<svg width="6" height="9" viewBox="0 0 6 9" fill="none" xmlns="http://www.w3.org/2000/svg">
<path d="M2.207 7.79309L4.793 5.20709C4.98047 5.01957 5.08579 4.76526 5.08579 4.50009C5.08579 4.23493 4.98047 3.98062 4.793 3.79309L2.207 1.20709C2.06715 1.06728 1.88898 0.972078 1.69503 0.93351C1.50108 0.894943 1.30005 0.914746 1.11735 0.990416C0.934646 1.06609 0.778483 1.19423 0.668598 1.35864C0.558714 1.52304 0.500042 1.71634 0.5 1.91409V7.08609C0.500042 7.28384 0.558714 7.47714 0.668598 7.64155C0.778483 7.80596 0.934646 7.9341 1.11735 8.00977C1.30005 8.08544 1.50108 8.10524 1.69503 8.06668C1.88898 8.02811 2.06715 7.9329 2.207 7.79309V7.79309Z" fill="#333333"/>
</svg>
