<?xml version="1.0" standalone="no"?>
<!DOCTYPE svg PUBLIC "-//W3C//DTD SVG 20010904//EN"
 "http://www.w3.org/TR/2001/REC-SVG-20010904/DTD/svg10.dtd">
<svg version="1.0" xmlns="http://www.w3.org/2000/svg"
 width="344.000000pt" height="34.000000pt" viewBox="0 0 344.000000 34.000000"
 preserveAspectRatio="xMidYMid meet">

<g transform="translate(0.000000,34.000000) scale(0.100000,-0.100000)"
fill="#000000" stroke="none">
<path d="M10 170 l0 -170 1664 0 c1191 0 1672 3 1695 11 51 18 61 50 61 199
l0 130 -1710 0 -1710 0 0 -170z m3398 28 c2 -111 1 -117 -22 -145 l-24 -28
-926 -3 -926 -2 0 150 0 150 948 -2 947 -3 3 -117z m-3205 80 c9 -11 17 -31
17 -44 0 -33 -47 -35 -52 -2 -2 13 -11 24 -20 26 -16 3 -18 -7 -18 -93 0 -86
2 -96 18 -93 10 2 18 14 20 31 3 21 9 27 28 27 20 0 24 -5 24 -28 0 -45 -26
-72 -67 -72 -63 0 -73 19 -73 134 0 56 4 106 8 112 25 38 84 39 115 2z m87
-88 l0 -120 40 0 c33 0 40 -3 40 -20 0 -18 -7 -20 -65 -20 l-65 0 0 140 0 140
25 0 25 0 0 -120z m388 97 c2 -10 -3 -17 -12 -17 -9 0 -16 -8 -16 -20 0 -11 5
-20 10 -20 6 0 10 -9 10 -20 0 -11 -4 -20 -10 -20 -6 0 -10 -33 -10 -80 0 -79
0 -80 -25 -80 -25 0 -25 1 -25 80 0 47 -4 80 -10 80 -5 0 -10 9 -10 20 0 11 5
20 10 20 6 0 10 9 10 20 0 45 70 79 78 37z m337 1 c11 -47 45 -233 45 -245 0
-7 -11 -13 -24 -13 -19 0 -25 6 -28 28 -2 21 -8 27 -28 27 -20 0 -26 -6 -28
-28 -3 -21 -9 -27 -28 -27 -13 0 -24 3 -24 8 0 4 11 65 25 137 14 71 25 130
25 132 0 2 13 3 30 3 23 0 31 -5 35 -22z m423 -14 c28 -32 28 -41 -2 -46 -15
-3 -27 2 -35 14 -14 22 -30 23 -38 2 -4 -12 9 -29 43 -59 44 -38 49 -47 49
-85 0 -50 -21 -70 -76 -70 -29 0 -42 6 -58 26 -28 35 -26 51 4 56 18 4 26 0
30 -13 8 -25 45 -25 45 -1 0 10 -20 37 -45 59 -37 33 -45 46 -45 76 0 27 7 41
27 57 33 26 68 20 101 -16z m-920 7 c3 -10 -1 -12 -17 -8 -27 7 -28 -9 -1 -23
22 -12 26 -40 8 -58 -9 -9 -9 -12 0 -12 7 0 12 -7 12 -15 0 -10 -11 -15 -35
-15 -24 0 -35 5 -35 15 0 8 8 15 18 15 16 1 16 1 0 11 -24 14 -23 33 2 26 11
-3 20 -2 20 2 0 3 -9 14 -20 24 -20 17 -26 38 -13 51 12 11 56 2 61 -13z m354
2 c10 -9 18 -29 18 -45 0 -23 -4 -28 -25 -28 -20 0 -25 5 -25 26 0 19 -4 25
-17 22 -16 -3 -18 -15 -18 -93 0 -78 2 -90 18 -93 13 -3 17 3 17 27 0 26 4 31
25 31 21 0 25 -5 25 -32 0 -42 -25 -68 -67 -68 -59 0 -73 26 -73 133 0 112 12
137 67 137 20 0 45 -7 55 -17z m286 5 c13 -13 16 -106 4 -126 -5 -7 -25 -15
-45 -19 l-37 -6 0 82 0 81 33 0 c18 0 38 -5 45 -12z m122 -7 c15 -29 12 -93
-6 -119 -17 -25 -56 -29 -74 -7 -17 21 -23 85 -11 118 9 22 17 27 45 27 25 0
38 -6 46 -19z m-872 -3 c7 -7 12 -43 12 -93 l0 -82 -50 -1 c-45 -1 -52 2 -62
24 -10 20 -8 29 9 52 11 15 29 31 41 37 24 11 29 30 11 41 -7 4 -16 -1 -21
-10 -12 -22 -38 -21 -38 2 0 27 20 42 55 42 17 0 36 -5 43 -12z m322 -69 c0
-25 -33 -22 -38 4 -2 12 3 17 17 17 15 0 21 -6 21 -21z m-170 -44 c0 -8 -4
-15 -10 -15 -5 0 -10 7 -10 15 0 8 5 15 10 15 6 0 10 -7 10 -15z m168 -62 c-2
-61 -6 -78 -18 -78 -11 0 -16 15 -18 64 -3 73 1 91 23 91 13 0 15 -12 13 -77z
m-210 18 c3 -9 -2 -11 -17 -6 -27 8 -27 -6 -1 -23 40 -25 10 -83 -32 -61 -24
13 -23 33 2 26 26 -7 25 1 -1 29 -28 30 -19 56 18 52 14 -2 28 -9 31 -17z m42
-36 c0 -30 -4 -55 -10 -55 -5 0 -10 25 -10 55 0 30 5 55 10 55 6 0 10 -25 10
-55z m728 28 c3 -10 -22 -13 -102 -13 -89 0 -106 3 -106 15 0 13 16 15 102 13
70 -2 103 -7 106 -15z"/>
<path d="M1575 170 l0 -100 58 0 57 0 -1 38 c-1 21 -3 29 -6 17 -7 -29 -23
-45 -44 -45 -16 0 -19 8 -19 48 l1 47 19 -24 20 -23 0 43 c-1 39 -2 42 -14 27
-20 -27 -26 -22 -26 22 0 46 17 53 50 18 l20 -22 0 27 c0 26 -2 27 -57 27
l-58 0 0 -100z"/>
<path d="M1721 251 c-20 -36 -12 -62 30 -101 29 -26 40 -43 35 -55 -9 -24 -48
-15 -63 15 l-13 25 0 -31 c0 -28 3 -30 39 -32 31 -2 42 2 50 17 21 39 13 70
-30 110 -42 38 -45 61 -10 61 10 0 23 -10 29 -22 l11 -23 0 25 c1 23 -4 26
-33 28 -26 2 -38 -3 -45 -17z"/>
<path d="M1828 236 c-2 -19 0 -32 4 -30 4 3 8 11 8 18 0 8 7 19 15 26 13 11
15 1 15 -78 0 -63 -4 -92 -12 -95 -7 -3 7 -5 32 -5 25 0 39 2 33 5 -16 6 -18
169 -3 178 6 4 17 -9 25 -27 l14 -33 1 38 0 37 -64 0 -64 0 -4 -34z"/>
<path d="M1995 203 c-10 -38 -24 -83 -31 -101 -12 -30 -12 -32 9 -32 13 0 17
3 11 8 -8 4 -8 15 -3 30 12 33 44 25 44 -11 -1 -24 3 -27 33 -27 26 0 32 3 25
12 -6 7 -21 52 -33 101 -13 48 -26 87 -30 87 -4 0 -15 -30 -25 -67z m24 -55
c1 -5 -6 -8 -15 -8 -11 0 -14 5 -10 16 3 9 6 21 7 27 0 12 17 -20 18 -35z"/>
<path d="M2105 170 l0 -100 43 0 c50 0 78 23 87 74 15 75 -25 126 -98 126
l-32 0 0 -100z m73 78 c12 -12 17 -124 6 -152 -3 -9 -12 -16 -20 -16 -11 0
-14 20 -14 90 0 89 5 101 28 78z"/>
<path d="M2286 251 c-57 -63 -29 -181 44 -181 42 0 70 40 70 102 0 39 -5 54
-25 73 -29 30 -65 32 -89 6z m67 -34 c18 -75 -15 -171 -44 -126 -10 16 -12
129 -3 154 11 28 38 12 47 -28z"/>
<path d="M2695 170 c0 -60 4 -100 10 -100 6 0 9 31 8 77 -2 69 -1 74 8 38 22
-92 30 -115 38 -111 4 3 13 31 20 63 21 91 30 97 31 16 0 -48 -4 -73 -12 -76
-7 -3 3 -6 22 -6 l35 -1 0 100 0 100 -27 0 c-23 0 -27 -6 -38 -51 -14 -57 -20
-56 -35 4 -9 34 -16 43 -35 45 l-25 3 0 -101z"/>
<path d="M2885 170 l0 -100 35 1 c19 0 29 3 23 6 -17 6 -18 164 -1 181 9 9 4
12 -22 12 l-35 0 0 -100z"/>
<path d="M2968 263 c8 -3 12 -32 12 -93 0 -61 -4 -90 -12 -93 -7 -3 1 -5 17
-5 17 0 24 2 18 5 -9 3 -13 29 -12 81 l0 77 42 -82 c23 -46 45 -83 49 -83 3 0
8 45 10 100 3 92 2 100 -16 100 -15 0 -16 -3 -7 -14 7 -8 11 -32 9 -53 l-3
-38 -28 53 c-25 47 -31 52 -60 51 -17 0 -26 -3 -19 -6z"/>
<path d="M3150 183 c-13 -49 -28 -94 -33 -100 -7 -10 -3 -13 14 -13 14 0 19 3
13 8 -8 4 -8 15 -3 30 12 33 44 25 44 -11 -1 -24 3 -27 32 -27 29 0 32 2 24
18 -5 9 -19 54 -31 100 -12 45 -26 82 -30 82 -4 0 -18 -39 -30 -87z m29 -35
c1 -5 -6 -8 -15 -8 -11 0 -14 5 -10 16 3 9 6 21 7 27 0 12 17 -20 18 -35z"/>
<path d="M3272 258 c-25 -25 -14 -69 29 -108 29 -26 40 -43 35 -55 -9 -24 -48
-15 -63 15 l-13 25 0 -31 c0 -28 3 -30 39 -32 31 -2 42 2 50 17 21 39 13 70
-30 110 -42 39 -45 61 -8 61 11 0 24 -10 29 -22 9 -23 9 -23 9 2 1 22 -4 26
-32 28 -18 1 -38 -3 -45 -10z"/>
<path d="M2460 165 c0 -65 0 -65 29 -65 36 0 55 23 55 67 0 39 -23 63 -61 63
-22 0 -23 -4 -23 -65z m54 39 c13 -34 3 -94 -15 -94 -5 0 -9 25 -9 55 0 53 11
72 24 39z"/>
<path d="M2565 165 l0 -65 38 0 c32 0 37 3 37 23 -1 20 -2 20 -11 5 -15 -27
-39 -22 -39 7 0 14 5 25 10 25 6 0 10 5 10 11 0 5 -4 7 -10 4 -6 -4 -10 5 -10
21 0 21 4 25 20 21 11 -3 20 -1 20 4 0 5 -15 9 -32 9 l-33 0 0 -65z"/>
<path d="M977 203 c-14 -13 -7 -73 7 -73 11 0 13 9 9 38 -7 43 -7 44 -16 35z"/>
<path d="M1110 225 c0 -41 3 -56 13 -52 7 2 12 22 12 52 0 30 -5 50 -12 53
-10 3 -13 -12 -13 -53z"/>
<path d="M1222 223 c4 -66 28 -70 28 -4 0 39 -4 51 -16 51 -12 0 -14 -10 -12
-47z"/>
<path d="M356 171 c-15 -16 -17 -24 -8 -33 16 -16 35 3 30 32 l-3 22 -19 -21z"/>
</g>
</svg>
