<svg xmlns="http://www.w3.org/2000/svg" width="20" height="20" viewBox="0 0 20 20">
    <g fill="none" fill-rule="evenodd">
        <g fill="#B52614">
            <path d="M20 0c-1.949.19-3.897.383-5.855.557-1.242 2.37-2.478 4.747-3.719 7.135-1.418 2.72-2.842 5.45-4.286 8.204l-.066.001c.946-2.719 1.882-5.404 2.813-8.057.834-2.375 1.661-4.726 2.486-7.052-1.828.157-3.659.303-5.485.456-.928 2.953-1.865 5.957-2.827 9.007C2.054 13.442 1.033 16.69 0 20h8.222c2.106-3.575 4.187-7.15 6.276-10.696C16.332 6.19 18.166 3.094 20 0z"/>
        </g>
    </g>
</svg>
