<svg width="302" height="311" viewBox="0 0 302 311" fill="none" xmlns="http://www.w3.org/2000/svg">
<path d="M222.582 89.3306C195.232 58.4543 161.577 40.4903 120.464 34.7694C111.399 33.5166 108.2 34.2229 105.929 38.0218C105.422 38.8813 103.568 47.6449 101.824 57.5715C99.1152 73.2733 98.7986 75.8275 99.4553 77.2875C100.85 80.1455 102.937 81.1138 109.498 81.9521C136.146 85.4137 159.662 96.8877 178.6 115.572C182.768 119.708 193.453 133.795 196.313 138.924C209.201 162.197 213.912 187.935 210.063 214.53C209.101 221.074 209.471 223.345 211.847 225.458C213.076 226.484 215.621 226.868 231.472 228.491C241.502 229.487 250.44 230.065 251.405 229.808C255.675 228.645 257.218 225.754 258.455 216.687C263.567 179.107 256.723 143.001 238.661 112.142C235.258 106.297 225.994 93.1502 222.582 89.3306Z" fill="#C2D1D9"/>
<path d="M163.745 128.921C150.648 116.07 135.081 107.349 117.394 102.965C111.442 101.486 103.194 100.207 100.342 100.353C98.1403 100.421 94.8782 102.658 93.7898 104.789C92.5826 107.188 86.799 141.421 87.3576 142.836C88.4708 145.493 90.6839 147.137 93.9111 147.656C111.326 150.407 122.948 156.9 132.233 169.14C141.519 181.381 144.638 194.324 142.593 211.835C142.223 215.083 143.21 217.657 145.468 219.445C146.681 220.365 181.205 224.022 183.841 223.507C186.186 223.033 189.22 220.495 189.879 218.392C191.358 213.889 192.422 200.265 191.886 191.831C191.277 181.434 187.901 167.559 183.884 158.443C179.169 147.897 171.199 136.201 163.745 128.921Z" fill="#C2D1D9"/>
<path d="M119.623 169.811C118.399 168.751 115.665 167.123 113.54 166.139C110.411 164.701 108.647 164.272 104.147 163.874C95.0199 163.064 88.5336 164.946 81.0363 170.633C77.2306 173.52 76.3095 174.439 74.082 177.51C67.1866 186.993 65.8426 198.342 70.4292 208.341C72.2479 212.319 73.8969 214.493 77.2379 217.317C85.6302 224.429 96.9212 226.194 107.913 222.11C111.47 220.792 112.604 220.153 116.409 217.266C123.907 211.58 127.467 205.841 129.148 196.833C129.977 192.393 130.039 190.578 129.498 187.177C128.362 180.305 124.895 174.153 119.623 169.811Z" fill="#C2D1D9"/>
</svg>
