<svg xmlns="http://www.w3.org/2000/svg" viewBox="0 0 30 30" fill="#1973b4"><path d="M30 11.431a.97.97 0 0 1-.968.968h-1.088a.97.97 0 0 1-.968-.968c0-.534.433-.967.968-.967h1.088c.535 0 .968.433.968.967zM18.56 3.024c.534 0 .967-.433.967-.968V.968A.97.97 0 0 0 18.559 0c-.534 0-.967.433-.967.968v1.088c0 .535.433.968.967.968zm7.317 2.46l.77-.769a.97.97 0 0 0 0-1.369c-.378-.378-.99-.378-1.368 0l-.77.77a.97.97 0 0 0 0 1.369c.378.378.99.378 1.368 0zm-14.633.007a.96.96 0 0 0 .684.284c.855 0 1.296-1.04.685-1.652l-.77-.77a.97.97 0 0 0-1.369 0c-.378.378-.378.99 0 1.368l.77.77zm-3.14 6.952h1.09c.534 0 .967-.433.967-.968a.97.97 0 0 0-.967-.968h-1.09a.97.97 0 0 0-.967.968.97.97 0 0 0 .968.968zm17.79 4.972a.97.97 0 0 0-1.37 0 .97.97 0 0 0 0 1.369l.77.77a.97.97 0 0 0 1.369 0 .97.97 0 0 0 0-1.369l-.77-.77zm-.067-5.962a7.27 7.27 0 0 1-7.258 7.258 7.27 7.27 0 0 1-7.259-7.258 7.27 7.27 0 0 1 7.259-7.258 7.27 7.27 0 0 1 7.258 7.258zm-1.936 0a5.33 5.33 0 0 0-5.322-5.322 5.33 5.33 0 0 0-5.323 5.322 5.33 5.33 0 0 0 5.323 5.323 5.33 5.33 0 0 0 5.322-5.323zm-14.274 9.98c0-1.4-1.14-2.54-2.54-2.54H6.41c-.534 0-.967.433-.967.968s.433.967.967.967h.666c.333 0 .604.272.604.605s-.27.605-.604.605H.967c-.534 0-.967.433-.967.968a.97.97 0 0 0 .968.968h6.109c1.4 0 2.54-1.14 2.54-2.54zm4.113-2.54h-.665a.97.97 0 0 0-.968.968c0 .534.433.967.968.967h.665c.333 0 .605.272.605.605s-.272.605-.605.605h-1.875a.97.97 0 0 0-.968.968.97.97 0 0 0 .968.968h1.875c1.4 0 2.54-1.14 2.54-2.54s-1.14-2.541-2.54-2.541zm-1.815 5.988H5.806c-.534 0-.967.433-.967.968s.433.967.967.967h6.11c.333 0 .604.272.604.605s-.271.605-.605.605h-.665a.97.97 0 0 0-.968.968.97.97 0 0 0 .968.967h.665c1.401 0 2.54-1.14 2.54-2.54s-1.139-2.54-2.54-2.54z"/></svg>
