<svg xmlns="http://www.w3.org/2000/svg" viewBox="0 0 30 30" fill="#1973b4"><path d="M18.564 4.533c-2.633 0-5.03 1.416-6.311 3.666-4.207-.723-7.78 2.81-7.467 6.635C2.117 15.011 0 17.239 0 19.952c0 2.828 2.3 5.13 5.13 5.13h12.995c4.455 0 7.538-4.459 5.998-8.612 3.947-4.677.623-11.937-5.559-11.937zm0 1.936c4.203 0 6.731 4.657 4.507 8.169a6.39 6.39 0 0 0-5.879-2.279 6.39 6.39 0 0 0-3.06-3.523 5.33 5.33 0 0 1 4.432-2.367zm-.44 16.677H5.13a3.2 3.2 0 0 1-3.194-3.194 3.2 3.2 0 0 1 3.791-3.138.97.97 0 0 0 1.132-1.125c-.064-.346-.153-.944-.153-1.188 0-2.46 2-4.46 4.46-4.46 2.15 0 3.994 1.532 4.384 3.642a.97.97 0 0 0 1.24.747 4.47 4.47 0 0 1 5.795 4.256c0 2.46-2 4.46-4.46 4.46zM30 11.79a.97.97 0 0 1-.968.968h-1.088a.97.97 0 0 1-.968-.968c0-.534.433-.967.968-.967h1.088c.535 0 .968.433.968.967zM17.592 2.416V1.328c0-.535.433-.968.967-.968a.97.97 0 0 1 .968.968v1.088a.97.97 0 0 1-.968.968c-.534 0-.967-.433-.967-.968zm9.055 1.29a.97.97 0 0 1 0 1.369l-.77.77c-.378.378-.99.378-1.368 0a.97.97 0 0 1 0-1.369l.77-.77c.378-.378.99-.378 1.368 0zM10.474 5.081c-.378-.378-.378-.99 0-1.368a.97.97 0 0 1 1.369 0l.77.77c.611.611.17 1.652-.685 1.652-.247 0-.495-.095-.684-.284l-.77-.77zm-.532 21.407a.97.97 0 0 0-1.282.48l-.605 1.33a.97.97 0 0 0 .48 1.28.97.97 0 0 0 1.282-.48l.605-1.33c.221-.486.006-1.06-.48-1.28zm-6.049 0a.97.97 0 0 0-1.281.48l-.605 1.33c-.221.485-.006 1.058.48 1.28a.97.97 0 0 0 1.282-.48l.605-1.33c.221-.486.006-1.06-.48-1.28zm17.54-.121c-.486-.221-1.06-.006-1.28.48l-.606 1.33a.97.97 0 0 0 .48 1.28.97.97 0 0 0 1.282-.48l.605-1.33c.221-.486.006-1.06-.48-1.28zm-5.443 0a.97.97 0 0 0-1.281.48l-.605 1.33c-.221.485-.006 1.059.48 1.28a.97.97 0 0 0 1.282-.48l.605-1.33c.22-.486.006-1.06-.48-1.28z"/></svg>
