<svg xmlns="http://www.w3.org/2000/svg" viewBox="0 0 30 28" fill="#1973b4"><path d="M28.775 12.26c-3.442.947-6.827-1.666-6.827-5.216 0-1.655.741-3.197 2.035-4.23a.97.97 0 0 0-.262-1.664c-5.79-2.187-12.18 1.272-13.551 7.294-3.346.586-5.581 3.697-5.327 6.723C2.143 15.34 0 17.597 0 20.344c0 2.565 1.868 4.702 4.313 5.115A5.08 5.08 0 0 0 8.39 27.51h13.38c3.523 0 6.39-2.872 6.39-6.401 0-1.15-.302-2.221-.827-3.147 1.258-1.257 2.164-2.817 2.631-4.51a.97.97 0 0 0-1.19-1.193zm-26.84 8.084c0-2.024 1.842-3.572 3.85-3.193a.97.97 0 0 0 1.13-1.127c-.063-.35-.153-.956-.153-1.206 0-2.499 2.029-4.532 4.523-4.532.587 0 1.15.114 1.67.32-2.996.802-5.03 3.722-4.706 6.714a5.1 5.1 0 0 0-4.946 5.094c0 .204.012.406.036.604a3.25 3.25 0 0 1-1.404-2.674zm19.835 5.56H8.39c-.561 0-1.092-.135-1.561-.372-.794-.4-1.414-1.095-1.718-1.94a3.49 3.49 0 0 1 3.929-4.607c.552.105 1.039-.379.938-.933-.062-.34-.16-.981-.16-1.26 0-2.645 2.147-4.796 4.786-4.796a4.27 4.27 0 0 1 .227.006c1.722.081 3.234 1.079 4.009 2.554a4.77 4.77 0 0 1 .47 1.356.8.8 0 0 0 1.027.62 4.77 4.77 0 0 1 1.586-.219c.944.03 1.838.344 2.585.867a5.5 5.5 0 0 1 .392.306c.489.424.895.946 1.182 1.54.302.624.474 1.329.474 2.083 0 2.644-2.147 4.795-4.786 4.795zm4.35-9.48c-.798-.743-1.783-1.283-2.866-1.543-.815-.196-1.686-.234-2.575-.08a6.36 6.36 0 0 0-1.159-2.1c-.856-1.031-2.025-1.78-3.347-2.116-1.008-1.165-2.419-1.956-3.996-2.175 1.138-3.904 5.101-6.59 9.361-5.855-3.73 4.824-.219 12 6.005 11.833a8.41 8.41 0 0 1-1.423 2.037z"/></svg>
