<svg xmlns="http://www.w3.org/2000/svg" viewBox="0 0 30 30" fill="#1973b4"><path d="M4.09 29.926c-.545.105-1.035-.254-1.134-.758s.206-1.017.756-1.136c.501-.097 1.015.203 1.134.758.098.509-.209 1.018-.757 1.136zm2.048-4.43a.97.97 0 0 0-.934 1.56c.344.428 1.013.485 1.426.07.525-.525.293-1.46-.492-1.63zm3.227.412a.97.97 0 0 0 .801 1.502.97.97 0 0 0 .96-1.06c-.087-.907-1.27-1.187-1.761-.442zm4.273-.077a.97.97 0 0 0 .134 1.36c.654.54 1.653.022 1.57-.842-.08-.849-1.157-1.183-1.704-.518zm4.774-.334a.97.97 0 1 0 1.147.852c-.053-.557-.576-.962-1.147-.852zM7.929 28.032c-.548.118-.854.627-.756 1.136.12.553.63.855 1.133.758.52-.112.816-.573.77-1.042-.052-.555-.573-.963-1.147-.852zm3.66.334a.97.97 0 0 0 .134 1.36c.68.547 1.652.003 1.571-.842a.97.97 0 0 0-1.704-.518zm5.152-.334a.97.97 0 0 0-.934 1.56c.376.467 1.11.472 1.49 0 .443-.538.19-1.399-.556-1.56zm3.84 0c-.543.117-.856.621-.757 1.136a.96.96 0 0 0 1.134.758c.52-.112.815-.574.77-1.042-.053-.557-.576-.962-1.147-.852zm9.224-15.257a10.1 10.1 0 0 1-5.144 6.3c-.386 3.153-3.074 5.602-6.322 5.602H5.395c-2.817 0-5.109-2.297-5.109-5.12 0-2.707 2.109-4.93 4.767-5.107-.243-2.963 1.94-6.034 5.246-6.618C11.657 1.89 17.959-1.5 23.652.65a.97.97 0 0 1 .26 1.659 5.29 5.29 0 0 0-1.998 4.155c0 3.485 3.323 6.055 6.706 5.123.72-.198 1.384.467 1.185 1.188zm-7.024 5.52c0-2.99-2.907-5.146-5.772-4.248-.551.173-1.13-.176-1.236-.746a4.44 4.44 0 0 0-4.367-3.634c-2.449 0-4.441 1.996-4.441 4.45 0 .245.089.84.152 1.186.121.666-.464 1.248-1.127 1.123a3.19 3.19 0 0 0-3.776 3.132 3.19 3.19 0 0 0 3.181 3.187H18.34c2.45 0 4.442-1.996 4.442-4.45zm4.611-4.59c-6.095.15-9.582-6.881-5.913-11.653-4.154-.707-8.052 1.9-9.18 5.747a6.37 6.37 0 0 1 5.111 4.182c3.341-.49 6.43 1.708 7.146 4.924a8.28 8.28 0 0 0 2.836-3.2z"/></svg>
