<svg xmlns="http://www.w3.org/2000/svg" viewBox="0 0 30 30" fill="#1973b4"><path d="M7.063 23.975H.978c-.532 0-.963-.432-.963-.965s.431-.966.963-.966h6.085c.332 0 .602-.27.602-.604s-.27-.603-.602-.603H6.4c-.532 0-.964-.433-.964-.966s.432-.966.964-.966h.663c1.395 0 2.53 1.137 2.53 2.535s-1.135 2.535-2.53 2.535zm6.626-5.07h-.662c-.533 0-.964.432-.964.966s.431.966.964.966h.662c.333 0 .603.27.603.603s-.27.604-.603.604h-1.867c-.532 0-.964.432-.964.966s.432.965.964.965h1.867c1.396 0 2.53-1.137 2.53-2.535s-1.134-2.535-2.53-2.535zm-1.807 5.976H5.798c-.533 0-.964.432-.964.966s.431.965.964.965h6.084c.332 0 .603.271.603.604s-.27.604-.603.604h-.662c-.533 0-.964.432-.964.965s.431.966.964.966h.662c1.395 0 2.53-1.137 2.53-2.535s-1.135-2.535-2.53-2.535zm17.961-12.838a9.53 9.53 0 0 1-9.176 7.023c-5.242 0-9.508-4.274-9.508-9.527 0-6.645 6.663-11.268 12.877-8.92a.97.97 0 0 1 .261 1.659c-1.174.938-1.848 2.338-1.848 3.842 0 2.708 2.199 4.911 4.901 4.911 1.142 0 1.307-.312 1.817-.173s.816.671.676 1.185zm-2.406.92c-5.705.07-8.893-6.467-5.567-10.93-4.675-.724-8.783 2.892-8.783 7.506 0 4.188 3.4 7.595 7.58 7.595 2.896 0 5.5-1.657 6.77-4.172z"/></svg>
