<svg xmlns="http://www.w3.org/2000/svg" viewBox="0 0 30 22" fill="#1973b4"><path d="M20.971 6.013A7.71 7.71 0 0 0 13.639.71c-4.662 0-8.13 4.107-7.67 8.332C2.664 9.132 0 11.844 0 15.166c0 3.378 2.754 6.126 6.14 6.126h16.148c4.253 0 7.712-3.452 7.712-7.696a7.72 7.72 0 0 0-9.029-7.583zm1.317 13.347H6.14c-2.318 0-4.204-1.881-4.204-4.194a4.21 4.21 0 0 1 4.99-4.122c.665.125 1.253-.456 1.13-1.123-.074-.407-.192-1.179-.192-1.515 0-3.179 2.591-5.764 5.776-5.764 2.785 0 5.174 1.98 5.68 4.707a.97.97 0 0 0 1.24.746c3.72-1.163 7.506 1.624 7.506 5.501a5.78 5.78 0 0 1-5.777 5.764z"/></svg>
