<svg xmlns="http://www.w3.org/2000/svg" viewBox="0 0 30 30" fill="#1973b4"><path d="M18.564 4.173c-2.633 0-5.03 1.416-6.311 3.666-4.232-.727-7.779 2.838-7.467 6.635C2.117 14.651 0 16.879 0 19.592c0 2.828 2.3 5.13 5.13 5.13h12.995c4.455 0 7.538-4.459 5.998-8.612 3.947-4.677.623-11.937-5.559-11.937zm0 1.936c4.203 0 6.731 4.657 4.507 8.169a6.39 6.39 0 0 0-5.879-2.279 6.39 6.39 0 0 0-3.06-3.523 5.33 5.33 0 0 1 4.432-2.367zm-.44 16.677H5.13a3.2 3.2 0 0 1-3.194-3.194 3.2 3.2 0 0 1 3.791-3.138.97.97 0 0 0 1.132-1.126c-.064-.345-.153-.941-.153-1.187 0-2.46 2-4.46 4.46-4.46 2.15 0 3.994 1.532 4.384 3.642a.97.97 0 0 0 1.24.747 4.47 4.47 0 0 1 5.795 4.256c0 2.46-2 4.46-4.46 4.46zM30 11.43a.97.97 0 0 1-.968.968h-1.088a.97.97 0 0 1-.968-.968c0-.534.433-.967.968-.967h1.088c.535 0 .968.433.968.967zM17.592 2.056V.968c0-.535.433-.968.967-.968a.97.97 0 0 1 .968.968v1.088a.97.97 0 0 1-.968.968c-.534 0-.967-.433-.967-.968zm9.055 1.29a.97.97 0 0 1 0 1.369l-.77.77c-.189.189-.436.283-.684.283a.97.97 0 0 1-.684-1.652l.77-.77c.378-.378.99-.378 1.368 0zM10.474 4.721c-.378-.378-.378-.99 0-1.368a.97.97 0 0 1 1.369 0l.77.77c.611.611.17 1.652-.685 1.652-.247 0-.495-.095-.684-.284l-.77-.77zM4.597 26.673v.605a.97.97 0 0 1-.968.968.97.97 0 0 1-.968-.968v-.605a.97.97 0 0 1 .968-.967.97.97 0 0 1 .968.967zm4.234 0v2.36a.97.97 0 0 1-.968.967.97.97 0 0 1-.968-.968v-2.359c0-.534.433-.967.968-.967a.97.97 0 0 1 .968.967zm4.234 0v.605a.97.97 0 0 1-.968.968.97.97 0 0 1-.968-.968v-.605c0-.534.433-.967.968-.967a.97.97 0 0 1 .968.967zm4.233 0v2.36c0 .534-.433.967-.967.967a.97.97 0 0 1-.968-.968v-2.359c0-.534.433-.967.968-.967s.967.433.967.967zm4.234 0v.605c0 .535-.433.968-.967.968a.97.97 0 0 1-.968-.968v-.605c0-.534.433-.967.968-.967s.967.433.967.967z"/></svg>
