<svg xmlns="http://www.w3.org/2000/svg" viewBox="0 0 30 26" fill="#1973b4"><path d="M18.564 4.221c-2.633 0-5.03 1.419-6.311 3.675-4.217-.727-7.78 2.828-7.467 6.649C2.117 14.723 0 16.955 0 19.674a5.14 5.14 0 0 0 5.13 5.14h12.995c4.455 0 7.538-4.468 5.998-8.63 3.947-4.687.623-11.963-5.559-11.963zm0 1.94c4.203 0 6.731 4.668 4.507 8.187-1.424-1.74-3.638-2.612-5.879-2.283a6.39 6.39 0 0 0-3.06-3.531c.978-1.467 2.63-2.373 4.432-2.373zm-.44 16.714H5.13c-1.76 0-3.194-1.436-3.194-3.201 0-1.994 1.814-3.52 3.791-3.145a.97.97 0 0 0 1.132-1.128c-.064-.346-.153-.945-.153-1.19a4.47 4.47 0 0 1 4.46-4.47 4.46 4.46 0 0 1 4.384 3.65.97.97 0 0 0 .452.654c.608.367.862-.108 2.124-.108a4.47 4.47 0 0 1 4.459 4.469 4.47 4.47 0 0 1-4.46 4.469zM30 11.495a.97.97 0 0 1-.968.97h-1.088a.97.97 0 1 1 0-1.94h1.088a.97.97 0 0 1 .968.97zM17.592 2.1V1.009a.97.97 0 0 1 .967-.97.97.97 0 0 1 .968.97v1.09a.97.97 0 0 1-.968.97.97.97 0 0 1-.967-.97zm9.055 1.292a.97.97 0 0 1 0 1.372l-.77.771a.96.96 0 0 1-.684.285c-.854 0-1.296-1.043-.684-1.656l.77-.772c.378-.378.99-.378 1.368 0zM10.474 4.771a.97.97 0 0 1 0-1.372c.378-.379.99-.379 1.369 0l.77.771c.611.613.17 1.656-.685 1.656-.247 0-.495-.095-.684-.284l-.77-.771z"/></svg>
