<svg xmlns="http://www.w3.org/2000/svg" viewBox="0 0 30 30" fill="#1973b4"><path d="M18.527 4.165a7.24 7.24 0 0 0-6.298 3.659c-4.222-.726-7.763 2.83-7.452 6.62A5.13 5.13 0 0 0 0 19.553c0 2.823 2.296 5.12 5.119 5.12h12.969c4.446 0 7.523-4.45 5.986-8.595 3.94-4.667.622-11.912-5.548-11.912zm0 1.932c4.195 0 6.718 4.647 4.498 8.152-1.42-1.732-3.63-2.6-5.867-2.274a6.38 6.38 0 0 0-3.053-3.516c.975-1.46 2.623-2.362 4.422-2.362zM18.09 22.74H5.119a3.19 3.19 0 0 1-3.187-3.187c0-1.986 1.81-3.505 3.783-3.132a.97.97 0 0 0 1.13-1.123c-.064-.345-.152-.941-.152-1.186 0-2.454 1.996-4.45 4.45-4.45 2.145 0 3.986 1.528 4.375 3.634.05.272.215.509.452.652.606.365.86-.109 2.119-.109 2.454 0 4.45 1.997 4.45 4.45s-1.996 4.45-4.45 4.45zm11.85-11.332c0 .534-.432.966-.965.966h-1.087c-.533 0-.966-.432-.966-.966s.433-.965.966-.965h1.087c.533 0 .965.432.965.965zM17.557 2.052V.966c0-.534.432-.966.966-.966s.965.432.965.966v1.086c0 .534-.432.966-.965.966s-.966-.432-.966-.966zm9.037 1.288c.377.377.377.988 0 1.365l-.768.769c-.377.377-.989.377-1.366 0s-.377-.989 0-1.366l.768-.768c.378-.378.989-.378 1.366 0zm-16.14 1.372c-.377-.377-.377-.989 0-1.366s.988-.377 1.366 0l.768.768a.97.97 0 0 1-.683 1.65c-.247 0-.494-.095-.683-.284l-.768-.768zM3.81 29.92c-.509.098-1.017-.21-1.136-.758-.097-.507.207-1.017.758-1.136.502-.097 1.016.202 1.136.758.099.51-.21 1.018-.758 1.136zm2.053-2.535c-.51.098-1.018-.21-1.136-.758-.097-.5.2-1.016.758-1.136.501-.097 1.015.202 1.136.758.096.502-.203 1.016-.758 1.136zm3.5-.145c-.433-.285-.568-.891-.267-1.338a.97.97 0 0 1 1.75.347.97.97 0 0 1-1.483.991zm4.95.145c-.51.098-1.018-.21-1.136-.758-.097-.508.209-1.018.758-1.136.511-.099 1.02.211 1.136.758.097.5-.2 1.016-.758 1.136zm3.424-.2a.97.97 0 0 1-.134-1.36c.503-.61 1.517-.401 1.694.424a.97.97 0 0 1-1.56.935zm-9.7 2.735c-.51.098-1.018-.21-1.136-.758-.098-.507.207-1.018.758-1.136.501-.097 1.016.202 1.136.758.098.509-.21 1.018-.758 1.136zm3.5-.144a.97.97 0 0 1-.267-1.34.97.97 0 0 1 1.75.348.97.97 0 0 1-1.483.992zm4.95.144c-.507.097-1.016-.207-1.136-.758-.097-.506.206-1.017.759-1.136.502-.097 1.017.203 1.136.758a.97.97 0 0 1-.759 1.136zm3.848 0c-.858-.185-1.051-1.287-.347-1.75.538-.363 1.326-.102 1.483.614.131.678-.457 1.267-1.136 1.136z"/></svg>
