<svg xmlns="http://www.w3.org/2000/svg" viewBox="0 0 30 24" fill="#1973b4"><path d="M29.032.6H.968A.97.97 0 0 0 0 1.568a.97.97 0 0 0 .968.968h.738l.9 7.974a.97.97 0 0 0 .597.788l2.505 1.023 1.335 5.508c.238.98 1.634.984 1.88.008l1.446-5.758L14.087 22.7c.336.96 1.744.812 1.873-.197l1.177-9.184 2.97-3.946 1.325 2.973.65 6.5c.098.986 1.45 1.202 1.848.293l3.348-7.844-.058-4.365.96-4.394h.853a.97.97 0 0 0 .968-.968.97.97 0 0 0-.969-.968zM25.29 7.35l-.909-.579-.394-1.673c-.122-.52-.643-.844-1.163-.721a.97.97 0 0 0-.72 1.164l.483 2.057a.97.97 0 0 0 .422.595l2.312 1.473.02 1.446-1.7 3.873-.298-2.986c-.022-.221.167.255-2.8-6.408a.97.97 0 0 0-1.279-.49.97.97 0 0 0-.49 1.278l.434.973-2.83 3.76-1.057-2.113 1.14-3.37c.172-.506-.099-1.055-.605-1.227a.97.97 0 0 0-1.227.607l-1.27 3.75a.97.97 0 0 0 .05.744l1.804 3.609-.651 5.084-3.335-9.528.66-2.629a.97.97 0 0 0-.703-1.175.97.97 0 0 0-1.174.703l-2.008 7.995-.528-2.179a.97.97 0 0 0-.575-.668l-2.432-.993-.142-1.258L6.15 7.281a.97.97 0 0 0 .429-.653l.302-1.815a.97.97 0 0 0-.796-1.114c-.527-.088-1.025.268-1.113.795L4.74 5.888l-.66.427-.427-3.779h22.543l-.908 4.815z"/></svg>
