<svg xmlns="http://www.w3.org/2000/svg" viewBox="0 0 28 28" fill="#1973b4"><path d="M27.8 12.821c0 3.115-1.994 5.734-4.752 6.702l-3.884 5.767c-.514.763-1.718.332-1.624-.589l.293-2.858h-1.718a.89.89 0 0 1-.887-.97l.436-4.931a.89.89 0 1 1 1.773.157l-.35 3.962h1.732a.89.89 0 0 1 .885.981l-.03.303 1.222-1.815h-1.074a.89.89 0 0 1-.865-1.104l.61-2.487a.89.89 0 0 1 1.73.425l-.34 1.384 1.73.008c1.984-.8 3.332-2.764 3.332-4.935 0-3.58-3.484-6.147-6.905-5.075a.89.89 0 0 1-1.141-.688 5.31 5.31 0 0 0-5.225-4.342c-2.93 0-5.314 2.385-5.314 5.317 0 .312.109 1.023.177 1.398a.89.89 0 0 1-1.04 1.036c-2.397-.453-4.59 1.394-4.59 3.802 0 1.68 1.059 3.118 2.575 3.65l.266-3.005a.89.89 0 0 1 1.774.157l-.471 5.323h2.477a.89.89 0 0 1 .886.981l-.14 1.363 2.367-3.514H9.882a.89.89 0 0 1-.864-1.103l.779-3.174a.89.89 0 1 1 1.729.425l-.508 2.07h2.37c.711 0 1.136.798.738 1.39l-5.286 7.85c-.514.763-1.718.332-1.624-.588l.4-3.919H5.152a.89.89 0 0 1-.886-.969l.13-1.476A5.65 5.65 0 0 1 .2 14.27a5.66 5.66 0 0 1 5.492-5.65C5.268 4.724 8.457.935 12.748.935c3.104 0 5.807 2.009 6.745 4.892C23.857 5.074 27.8 8.45 27.8 12.82z"/></svg>
