<svg xmlns="http://www.w3.org/2000/svg" viewBox="0 0 30 26" fill="#1973b4"><path d="M28.718 12.23c-3.436.943-6.814-1.657-6.814-5.188 0-1.647.74-3.181 2.031-4.209.585-.465.44-1.393-.261-1.657C17.896-1 11.518 2.442 10.149 8.435c-3.339.583-5.569 3.678-5.315 6.689A5.17 5.17 0 0 0 0 20.274c0 2.847 2.318 5.163 5.168 5.163h13.123c3.29 0 6.011-2.474 6.399-5.657 2.615-1.329 4.472-3.677 5.215-6.363a.97.97 0 0 0-1.187-1.187zM18.291 23.508H5.168a3.24 3.24 0 0 1-3.236-3.233 3.24 3.24 0 0 1 3.841-3.177c.666.126 1.251-.456 1.13-1.121-.065-.349-.155-.952-.155-1.2a4.52 4.52 0 0 1 4.515-4.51 4.51 4.51 0 0 1 4.439 3.683c.105.568.685.918 1.238.745 2.907-.91 5.866 1.27 5.866 4.303a4.52 4.52 0 0 1-4.515 4.51zm6.296-5.895c-.712-3.229-3.826-5.488-7.245-4.983-.797-2.26-2.803-3.899-5.189-4.23 1.136-3.883 5.091-6.557 9.343-5.825-3.723 4.8-.22 11.94 5.993 11.773a8.39 8.39 0 0 1-2.902 3.265z"/></svg>
