<svg xmlns="http://www.w3.org/2000/svg" viewBox="0 0 30 30" fill="#1973b4"><path d="M13.642 27.121l-.361.604c-.274.457-.866.605-1.323.33s-.604-.867-.33-1.324l.361-.604c.274-.457.866-.605 1.323-.331s.604.868.33 1.325zm3.865-1.338c-.464-.262-1.052-.098-1.314.367l-1.325 2.354c-.262.464-.098 1.053.366 1.315s1.052.098 1.313-.366l1.325-2.354c.262-.465.098-1.054-.365-1.316zm3.636.013c-.456-.274-1.048-.126-1.322.331l-.361.604c-.274.457-.126 1.05.33 1.325s1.049.126 1.323-.331l.361-.604c.274-.457.126-1.05-.33-1.325zm8.66-13.021c-.73 2.648-2.56 4.99-5.168 6.313a6.38 6.38 0 0 1-6.315 5.582c-7.265 0-6.799.005-6.906-.01L8.15 29.513c-.556.828-1.86.36-1.758-.637l.327-3.206H4.784a.96.96 0 0 1-.71-.314c-.316-.346-.252-.717-.233-.926-2.08-.662-3.556-2.617-3.556-4.875a5.12 5.12 0 0 1 4.762-5.103c-.242-2.963 1.942-6.033 5.249-6.612 1.357-5.962 7.675-9.337 13.355-7.191a.97.97 0 0 1 .26 1.659c-1.27 1.015-1.998 2.53-1.998 4.155 0 3.485 3.323 6.055 6.706 5.123a.97.97 0 0 1 1.185 1.189zm-7.047 5.519c0-2.986-2.903-5.14-5.764-4.242-.551.173-1.13-.177-1.236-.746-.388-2.103-2.222-3.63-4.361-3.63-2.446 0-4.436 1.994-4.436 4.445 0 .244.089.84.151 1.184.122.666-.463 1.248-1.126 1.123-1.97-.372-3.771 1.147-3.771 3.128a3.19 3.19 0 0 0 1.805 2.872l.29-3.293c.048-.53.515-.923 1.046-.876s.922.515.875 1.047l-.392 4.432h1.95a.96.96 0 0 1 .715.319c.336.372.244.747.2 1.18l1.438-2.14H8.9c-.624 0-1.084-.588-.935-1.195l.678-2.766c.127-.518.649-.835 1.166-.708s.833.65.706 1.169l-.385 1.57h1.822c.716 0 1.279.792.754 1.572h5.614c2.446 0 4.436-1.994 4.436-4.445zm4.635-4.59c-6.099.15-9.58-6.883-5.913-11.653-4.157-.707-8.059 1.904-9.183 5.758a6.37 6.37 0 0 1 5.098 4.176c3.332-.488 6.43 1.704 7.141 4.933 1.216-.797 2.209-1.915 2.857-3.214z"/></svg>
