<svg xmlns="http://www.w3.org/2000/svg" viewBox="0 0 30 26" fill="#1973b4"><path d="M12.74 22.188a.97.97 0 0 0-1.282.48l-.605 1.33c-.221.486-.006 1.059.48 1.28a.97.97 0 0 0 1.282-.48l.605-1.33a.97.97 0 0 0-.48-1.28zm-6.05 0c-.486-.22-1.06-.006-1.28.48l-.606 1.33c-.22.486-.006 1.059.481 1.28a.97.97 0 0 0 1.281-.48l.605-1.33c.222-.486.006-1.059-.48-1.28zM30 13.431a7.72 7.72 0 0 1-7.712 7.704H6.14c-3.386 0-6.14-2.752-6.14-6.133C0 11.676 2.663 8.96 5.97 8.87 5.51 4.642 8.975.53 13.64.53a7.71 7.71 0 0 1 7.331 5.309A7.72 7.72 0 0 1 30 13.43zm-1.935 0c0-3.89-3.792-6.67-7.506-5.508a.97.97 0 0 1-1.24-.747c-.506-2.73-2.895-4.712-5.68-4.712a5.78 5.78 0 0 0-5.776 5.77c0 .337.118 1.11.193 1.517a.97.97 0 0 1-1.132 1.124 4.21 4.21 0 0 0-4.989 4.127 4.21 4.21 0 0 0 4.204 4.2h16.15c3.184 0 5.776-2.59 5.776-5.771zm-3.834 8.636a.97.97 0 0 0-1.281.48l-.605 1.33c-.221.486-.006 1.059.48 1.28a.97.97 0 0 0 1.282-.48l.605-1.33a.97.97 0 0 0-.48-1.28zm-5.443 0a.97.97 0 0 0-1.282.48l-.605 1.33a.97.97 0 0 0 .48 1.28.97.97 0 0 0 1.282-.48l.605-1.33c.221-.486.006-1.059-.48-1.28z"/></svg>
