<svg width="20" height="20" viewBox="0 0 20 20" fill="none" xmlns="http://www.w3.org/2000/svg">
<path fill-rule="evenodd" clip-rule="evenodd" d="M20 10C20 15.523 15.523 20 10 20C4.477 20 0 15.523 0 10C0 4.477 4.477 0 10 0C15.523 0 20 4.477 20 10Z" fill="#E7A100"/>
<path fill-rule="evenodd" clip-rule="evenodd" d="M14.89 13.0059C14.89 12.9131 14.8531 12.8241 14.7875 12.7585C14.7218 12.6928 14.6328 12.656 14.54 12.656H5.49997C5.40714 12.656 5.31812 12.6928 5.25248 12.7585C5.18685 12.8241 5.14997 12.9131 5.14997 13.0059V13.845C5.14997 14.038 5.30697 14.195 5.49997 14.195H14.541C14.6338 14.195 14.7228 14.1581 14.7885 14.0924C14.8541 14.0268 14.891 13.9378 14.891 13.845V13.0059H14.89ZM15.743 8.44295C15.745 8.47695 15.743 8.51295 15.733 8.54695L14.964 11.623C14.9449 11.698 14.9015 11.7647 14.8405 11.8125C14.7796 11.8603 14.7044 11.8864 14.627 11.887L10.014 11.911H5.39797C5.31985 11.9111 5.24395 11.885 5.18233 11.837C5.12072 11.789 5.07694 11.7217 5.05797 11.646L4.28997 8.55795C4.28125 8.52333 4.27788 8.48759 4.27997 8.45195C4.11337 8.39862 3.97125 8.28762 3.87915 8.13889C3.78705 7.99017 3.75102 7.81347 3.77753 7.64056C3.80404 7.46765 3.89135 7.30986 4.02377 7.19555C4.15619 7.08125 4.32504 7.01792 4.49997 7.01695C4.65104 7.01734 4.79832 7.06427 4.92176 7.15136C5.0452 7.23844 5.13882 7.36144 5.18985 7.50363C5.24089 7.64582 5.24688 7.80027 5.207 7.94598C5.16712 8.09169 5.0833 8.22157 4.96697 8.31795L5.92997 9.28795C6.17297 9.53295 6.50997 9.67395 6.85597 9.67395C7.26397 9.67395 7.65397 9.47995 7.89897 9.15395L9.48097 7.05795C9.39507 6.97262 9.33159 6.86739 9.29615 6.75161C9.26072 6.63584 9.25444 6.5131 9.27786 6.39431C9.30129 6.27552 9.3537 6.16436 9.43043 6.0707C9.50716 5.97704 9.60585 5.90379 9.71771 5.85746C9.82957 5.81113 9.95114 5.79315 10.0716 5.80511C10.1921 5.81708 10.3078 5.85863 10.4083 5.92606C10.5089 5.9935 10.5912 6.08473 10.648 6.19165C10.7049 6.29857 10.7344 6.41787 10.734 6.53895C10.7341 6.72797 10.661 6.90968 10.53 7.04595L10.531 7.04795L12.102 9.14995C12.2238 9.31238 12.3817 9.44426 12.5632 9.5352C12.7448 9.62614 12.9449 9.67364 13.148 9.67395C13.496 9.67395 13.824 9.53795 14.071 9.29195L15.039 8.32195C14.9127 8.22002 14.8238 8.07906 14.7863 7.92119C14.7487 7.76331 14.7646 7.59744 14.8315 7.44958C14.8984 7.30172 15.0124 7.18023 15.1558 7.10415C15.2991 7.02807 15.4636 7.00171 15.6236 7.0292C15.7835 7.05668 15.9298 7.13647 16.0395 7.25604C16.1492 7.37561 16.2161 7.52821 16.2298 7.68991C16.2435 7.85161 16.2031 8.01328 16.115 8.14956C16.0269 8.28584 15.896 8.38903 15.743 8.44295V8.44295Z" fill="white"/>
</svg>
