<svg xmlns="http://www.w3.org/2000/svg" width="20" height="20" viewBox="0 0 20 20">
    <g fill="none" fill-rule="evenodd">
        <g>
            <path fill="#1973B4" d="M11.027 8.54v3.879H7.274c0-2.137 1.675-3.879 3.753-3.879z" transform="translate(-67.000000, -1851.000000) translate(67.000000, 1851.000000)"/>
            <path fill="#ED7D00" d="M7.287 3c4.024 0 7.287 3.353 7.287 7.49 0 .097-.002.194-.006.29-.034.916-.765 1.639-1.655 1.639h-2.655c.343-.558.542-1.22.542-1.929 0-1.995-1.573-3.612-3.513-3.612S3.773 8.495 3.773 10.49c0 1.99 1.566 3.604 3.5 3.611H9.9c2.078 0 3.773 1.743 3.773 3.879H7.274C3.256 17.973 0 14.622 0 10.49 0 6.353 3.263 3 7.287 3z" transform="translate(-67.000000, -1851.000000) translate(67.000000, 1851.000000)"/>
            <path fill="#1973B4" d="M19.082 14.056h-1.369v-1.411c0-.5-.415-.904-.9-.904-.487 0-.902.404-.902.904v1.41h-1.118c-.485 0-.88.368-.88.867 0 .5.395.867.88.867h1.118v1.264c0 .499.415.904.901.904.486 0 .901-.405.901-.904v-1.264h1.369c.485 0 .88-.367.88-.867 0-.499-.395-.866-.88-.866z" transform="translate(-67.000000, -1851.000000) translate(67.000000, 1851.000000)"/>
        </g>
    </g>
</svg>
