<svg xmlns="http://www.w3.org/2000/svg" width="20" height="20" viewBox="0 0 20 20">
    <g fill="none" fill-rule="evenodd">
        <g fill="#D92D33" fill-rule="nonzero">
            <path d="M14.946 15.936c-.878.194-1.657.24-2.714.24-1.801 0-3.177-.42-4.125-1.257-.95-.838-1.483-2.022-1.603-3.552h10.228c1.392-.103 2.148-.518 2.268-1.795-.024-3.151-.746-5.53-2.175-7.13C15.37.814 13.348 0 10.755 0 9.65 0 8.568.213 7.513.638c-1.058.424-1.995 1.057-2.81 1.895-.818.837-1.473 1.888-1.964 3.15C2.247 6.946 2 8.416 2 10.092c0 1.432.192 2.75.577 3.952.384 1.202.972 2.247 1.765 3.133.792.887 1.801 1.579 3.026 2.076 1.225.498 2.666.747 4.323.747.649 0 1.285-.037 1.91-.11.624-.072 1.198-.124 1.738-.234.54-.11.915-.19 1.34-.35.279-.088.6-.24.873-.386.394-.179.756-.503.962-.872.194-.434.28-.845.144-1.39-.159-.526-.46-.896-.902-1.11-.443-.212-.872-.235-1.397-.073l-.726.25-.687.21zm-.3-7.811H6.54c.072-.558.204-1.105.396-1.64.192-.534.462-1.007.81-1.42.348-.413.775-.748 1.28-1.003.505-.254 1.092-.383 1.766-.383.647 0 1.206.117 1.674.347.468.232.865.546 1.19.948.323.4.57.873.738 1.42.167.547.251 1.124.251 1.73z" transform="translate(-167.000000, -1851.000000) translate(167.000000, 1851.000000)"/>
        </g>
    </g>
</svg>
