<svg xmlns="http://www.w3.org/2000/svg" width="20" height="20" viewBox="0 0 20 20">
    <g fill="none" fill-rule="evenodd">
        <g>
            <path fill="#211915" d="M19.457 9.808c0 5.372-4.356 9.728-9.728 9.728-5.374 0-9.73-4.356-9.73-9.728C0 4.434 4.356.078 9.73.078c5.372 0 9.728 4.356 9.728 9.73" transform="translate(-267.000000, -1851.000000) translate(267.000000, 1851.000000)"/>
            <path fill="#C2CE28" d="M17.274 9.808c0 4.167-3.378 7.545-7.545 7.545-4.168 0-7.546-3.378-7.546-7.545 0-4.168 3.378-7.546 7.546-7.546 4.167 0 7.545 3.378 7.545 7.546" transform="translate(-267.000000, -1851.000000) translate(267.000000, 1851.000000)"/>
            <path fill="#211915" d="M14.936 9.808c0 2.875-2.332 5.207-5.207 5.207-2.876 0-5.208-2.332-5.208-5.207C4.521 6.932 6.853 4.6 9.73 4.6c2.875 0 5.207 2.332 5.207 5.208" transform="translate(-267.000000, -1851.000000) translate(267.000000, 1851.000000)"/>
            <path fill="#C2CE28" d="M7.573 12.695h4.31L10.777 9.77l-.173-.493c.376-.273.621-.715.621-1.214 0-.83-.671-1.502-1.5-1.502-.83 0-1.501.672-1.501 1.502 0 .478.214.93.563 1.204l-1.214 3.43z" transform="translate(-267.000000, -1851.000000) translate(267.000000, 1851.000000)"/>
        </g>
    </g>
</svg>
