<?xml version="1.0" encoding="UTF-8"?>
<svg width="22px" height="20px" viewBox="0 0 22 20" version="1.1" xmlns="http://www.w3.org/2000/svg" xmlns:xlink="http://www.w3.org/1999/xlink">
    <!-- Generator: sketchtool 55.2 (78181) - https://sketchapp.com -->
    <title>158C3B83-1BEC-4353-B46F-B8F2E37F1855</title>
    <desc>Created with sketchtool.</desc>
    <g id="Style-Guide" stroke="none" stroke-width="1" fill="none" fill-rule="evenodd">
        <g transform="translate(-517.000000, -1851.000000)" fill="#E32417" fill-rule="nonzero" id="Atoms-/-Brand-/-Icons-/-SouBH">
            <g transform="translate(517.000000, 1851.000000)">
                <path d="M8.70618153,8.75931641 C8.97300469,8.59888672 9.10641628,8.34089844 9.10641628,7.98535156 C9.10641628,7.62041016 8.9687011,7.36458984 8.69327074,7.21716797 C8.41712311,7.06974609 8.0118675,6.99603516 7.47822118,6.99603516 C7.30535994,6.99603516 7.12030516,6.99748047 6.92233959,7.00181641 C6.72437402,7.006875 6.54720918,7.01699219 6.39299687,7.03433594 L6.39299687,8.9992573 L7.37493479,8.9992573 C7.9946531,9.00068359 8.43864111,8.91974609 8.70618153,8.75931641" id="Path"></path>
                <path d="M8.99021909,10.8159961 C8.67964267,10.6382227 8.23565467,10.5486133 7.65897235,10.5486133 L6.39156234,10.5486133 L6.39156234,12.878457 C6.53788472,12.8958008 6.69783516,12.9088086 6.86997913,12.9182031 C7.04212311,12.926875 7.23219875,12.9312109 7.43877152,12.9312109 C8.04270996,12.9312109 8.52973396,12.8444922 8.89984351,12.6710547 C9.27067032,12.4983398 9.45572509,12.1760352 9.45572509,11.7077539 C9.45572509,11.2900586 9.30007825,10.9937695 8.99021909,10.8159961" id="Path"></path>
                <path d="M19.5655973,14.478418 L17.5486437,14.478418 L17.5486437,10.6526758 L14.1609937,10.6526758 L14.1609937,14.478418 L12.1440402,14.478418 L12.1440402,5.46111328 L14.1609937,5.46111328 L14.1609937,8.90890625 L17.5486437,8.90890625 L17.5486437,5.46111328 L19.5655973,5.46111328 L19.5655973,14.478418 Z M10.4706573,13.8793359 C9.78566771,14.3570117 8.76571466,14.5954883 7.41223266,14.5954883 C6.92090506,14.5954883 6.43244653,14.5803125 5.94470527,14.5499609 C5.45768127,14.5196094 4.95129108,14.4480664 4.42625196,14.335332 L4.42625196,5.59119141 C4.84011476,5.51314453 5.29270996,5.45460937 5.78403756,5.41558594 C6.27536515,5.37583984 6.73226395,5.35632812 7.15473396,5.35632812 C7.72352634,5.35632812 8.2456964,5.39751953 8.7241132,5.47990234 C9.20324726,5.56228516 9.614241,5.70320312 9.95996348,5.90265625 C10.3035342,6.10210937 10.5739437,6.36443359 10.7683229,6.69035156 C10.9619849,7.01482422 11.0580986,7.41662109 11.0580986,7.89357422 C11.0580986,8.6140625 10.7138106,9.18207031 10.0245175,9.59832031 C10.5933099,9.81583984 10.9813511,10.1099609 11.1879238,10.4828516 C11.3944966,10.8564648 11.4985003,11.2770508 11.4985003,11.745332 C11.4985003,12.6912891 11.1556468,13.4031055 10.4706573,13.8793359 L10.4706573,13.8793359 Z M-2.84217094e-14,-7.10542736e-14 L1.65903756,1.73003906 L1.65903756,19.9518164 L21.967723,19.9518164 L21.967723,-7.10542736e-14 L-2.84217094e-14,-7.10542736e-14 Z" id="Shape"></path>
            </g>
        </g>
    </g>
</svg>